<svg width="101" height="101" viewBox="0 0 101 101" fill="none" xmlns="http://www.w3.org/2000/svg">
<path d="M30.0681 33.5866C30.0681 32.9909 30.5511 32.5086 31.146 32.5086H54.7749C55.3699 32.5086 55.8529 32.9916 55.8529 33.5866C55.8529 34.1815 55.3699 34.6645 54.7749 34.6645H31.146C30.5511 34.6645 30.0681 34.1815 30.0681 33.5866ZM31.146 38.9019H46.19C46.7849 38.9019 47.2679 38.4189 47.2679 37.8239C47.2679 37.229 46.7849 36.746 46.19 36.746H31.146C30.5511 36.746 30.0681 37.229 30.0681 37.8239C30.0681 38.4189 30.5511 38.9019 31.146 38.9019ZM26.5514 33.3336L24.0199 35.8651L23.2257 35.0701C22.804 34.6492 22.1217 34.6492 21.7008 35.0701C21.2799 35.4917 21.2799 36.1741 21.7008 36.595L23.2579 38.1521C23.4687 38.3621 23.7447 38.4679 24.0207 38.4679C24.2967 38.4679 24.5727 38.3629 24.7835 38.1521L28.0778 34.8577C28.4987 34.436 28.4987 33.7537 28.0778 33.3328C27.6562 32.9119 26.9739 32.9119 26.553 33.3328L26.5514 33.3336ZM31.146 48.5389H54.7749C55.3699 48.5389 55.8529 48.0559 55.8529 47.4609C55.8529 46.866 55.3699 46.383 54.7749 46.383H31.146C30.5511 46.383 30.0681 46.866 30.0681 47.4609C30.0681 48.0559 30.5511 48.5389 31.146 48.5389ZM31.146 52.7762H46.19C46.7849 52.7762 47.2679 52.2932 47.2679 51.6983C47.2679 51.1034 46.7849 50.6204 46.19 50.6204H31.146C30.5511 50.6204 30.0681 51.1034 30.0681 51.6983C30.0681 52.2932 30.5511 52.7762 31.146 52.7762ZM31.146 60.2566C30.5511 60.2566 30.0681 60.7396 30.0681 61.3345C30.0681 61.9295 30.5511 62.4125 31.146 62.4125H54.7749C55.3699 62.4125 55.8529 61.9295 55.8529 61.3345C55.8529 60.7396 55.3699 60.2566 54.7749 60.2566H31.146ZM46.19 64.4932H31.146C30.5511 64.4932 30.0681 64.9762 30.0681 65.5711C30.0681 66.1661 30.5511 66.6491 31.146 66.6491H46.19C46.7849 66.6491 47.2679 66.1661 47.2679 65.5711C47.2679 64.9762 46.7849 64.4932 46.19 64.4932ZM84.7265 83.2413C85.1022 83.7028 85.0332 84.3821 84.5709 84.7585C84.3708 84.921 84.13 85 83.8909 85C83.5781 85 83.2676 84.8643 83.0537 84.6029L69.8113 68.3442C69.4625 67.9148 69.4939 67.2915 69.8849 66.9005L70.2153 66.5701L69.6534 66.0081C67.4086 66.5755 65.0695 65.9483 63.4151 64.2962L61.2371 62.1173V73.6027C61.2371 75.5071 59.6877 77.0566 57.7833 77.0566H19.453C17.5494 77.0566 16 75.5071 16 73.6027V25.5726C16 23.6682 17.5494 22.1188 19.453 22.1188H28.2618C28.3025 20.5578 29.5782 19.299 31.1483 19.299H33.7196C34.5177 17.3447 36.455 16 38.6178 16C40.7805 16 42.7193 17.3447 43.5167 19.299H46.088C47.6589 19.299 48.9346 20.5578 48.976 22.1188H57.7841C59.6884 22.1188 61.2378 23.6682 61.2378 25.5726V36.6494L70.5802 45.992C70.8325 44.8834 71.1537 43.5003 71.4343 42.3043C71.7977 40.7656 73.1409 39.7053 74.7148 39.7053C74.7355 39.7053 74.7562 39.7053 74.7761 39.7053C76.4865 39.736 77.8895 40.9504 78.0382 42.5305C78.1095 43.2734 78.2322 44.2233 78.3694 45.2897C78.8233 48.8164 79.4343 53.5598 78.9375 56.5482L79.5884 57.1984L79.9188 56.8679C80.3405 56.4463 81.0228 56.4463 81.4437 56.8679L84.6843 60.1086C85.1052 60.5303 85.1052 61.2126 84.6843 61.6335C84.2627 62.0552 83.5804 62.0552 83.1595 61.6335L80.6809 59.1549L80.3505 59.4853L72.503 67.3329C72.503 67.3329 72.4999 67.3345 72.4992 67.3352L72.0982 67.7362L84.7265 83.2397V83.2413ZM30.4108 24.2003C30.4108 24.6074 30.7419 24.9386 31.1483 24.9386H46.088C46.4959 24.9386 46.8271 24.6074 46.8271 24.2003V22.1939C46.8271 21.7868 46.4959 21.4556 46.088 21.4556H42.7278C42.221 21.4556 41.7833 21.1029 41.6744 20.6084C41.3631 19.187 40.0775 18.1559 38.6178 18.1559C37.1581 18.1559 35.8739 19.1878 35.5619 20.6084C35.453 21.1029 35.0153 21.4548 34.5085 21.4548H31.1483C30.7419 21.4548 30.4108 21.786 30.4108 22.1931V24.1995V24.2003ZM59.0805 59.9607L55.4918 56.3711C54.929 55.8084 54.6201 55.0594 54.6201 54.2613C54.6201 53.4632 54.929 52.7141 55.4918 52.1522C55.754 51.89 56.0453 51.6761 56.355 51.5151C56.0698 51.0512 55.9173 50.5153 55.918 49.9557C55.918 49.1576 56.2285 48.4078 56.792 47.8458C57.0872 47.5506 57.4222 47.3153 57.7818 47.1489C57.3126 46.0464 57.5686 44.7347 58.5323 43.7694C58.7002 43.6008 58.8865 43.4628 59.0812 43.3432V43.1469L56.5888 40.6545C55.974 40.0396 55.6643 39.2423 55.7164 38.4089C55.7647 37.6499 56.1128 36.9108 56.6969 36.3274C57.2589 35.7647 58.0087 35.4549 58.806 35.4549C58.8995 35.4549 58.9892 35.4733 59.0812 35.4818V25.5726C59.0812 24.8573 58.4993 24.2754 57.7841 24.2754H48.976C48.9354 25.8363 47.6589 27.0952 46.088 27.0952H31.1483C29.5782 27.0952 28.3025 25.8363 28.2618 24.2754H19.453C18.7377 24.2754 18.1566 24.8573 18.1566 25.5726V73.6035C18.1566 74.3196 18.7385 74.9007 19.453 74.9007H57.7833C58.4993 74.9007 59.0805 74.3188 59.0805 73.6035V59.9607ZM71.7394 65.0452L74.9011 61.8842L78.0628 58.7225L77.0048 57.6645C76.7395 57.3985 76.6307 57.0136 76.7196 56.6479C77.3321 54.1171 76.6958 49.1737 76.2305 45.565C76.0902 44.4717 75.9644 43.4965 75.8924 42.7337C75.8418 42.1985 75.266 41.8704 74.7386 41.8604H74.7148C74.1398 41.8604 73.6668 42.2346 73.5334 42.7973C72.973 45.1816 72.3566 47.8795 72.2661 48.348C72.1902 48.7397 71.9042 49.0571 71.5232 49.1737C71.1414 49.2894 70.7274 49.1875 70.4453 48.9053L59.3917 37.8523C59.0812 37.5403 58.5323 37.5403 58.221 37.8523C58.0079 38.0647 57.8837 38.3108 57.8684 38.5446C57.8546 38.7593 57.9351 38.9509 58.1137 39.1288L65.817 46.833C66.2379 47.2547 66.2379 47.937 65.817 48.3579C65.3954 48.7796 64.7131 48.7788 64.2922 48.3579L61.2263 45.2928C60.9036 44.97 60.3784 44.9708 60.0556 45.2928C59.9406 45.4078 59.3925 46.0127 59.9491 46.5693L63.1874 49.8069C63.6083 50.2286 63.6083 50.9109 63.1874 51.3318C62.7658 51.7535 62.0834 51.7535 61.6625 51.3318L59.5918 49.2618C59.414 49.0832 59.2223 49.0088 59.0069 49.0165C58.773 49.0311 58.5277 49.156 58.3161 49.3676C58.1597 49.524 58.0739 49.7326 58.0739 49.9541C58.0739 50.1757 58.1589 50.3835 58.3146 50.5383L62.111 54.3333C62.5319 54.7542 62.5319 55.4373 62.111 55.8582C61.6894 56.2784 61.0071 56.2799 60.5869 55.8582L58.2946 53.5674C58.1283 53.4011 57.952 53.3206 57.7557 53.3206C57.5111 53.3206 57.242 53.4486 57.0174 53.674C56.8618 53.8304 56.7759 54.0374 56.7759 54.259C56.7759 54.4805 56.8618 54.6891 57.0174 54.8439L60.9204 58.7478L60.922 58.7493L64.94 62.7682C66.159 63.988 67.9407 64.3721 69.589 63.7725C69.7093 63.7288 69.8335 63.7074 69.9577 63.7074C70.2383 63.7074 70.5143 63.817 70.7205 64.0232L71.7402 65.0429L71.7394 65.0452ZM26.5507 47.2072L24.0192 49.7387L23.2249 48.9437C22.8033 48.5228 22.1209 48.5228 21.7001 48.9437C21.2792 49.3653 21.2792 50.0477 21.7001 50.4686L23.2571 52.0257C23.468 52.2365 23.744 52.3415 24.0199 52.3415C24.2959 52.3415 24.5719 52.2365 24.7828 52.0257L28.0771 48.7321C28.498 48.3112 28.498 47.6281 28.0771 47.2072C27.6554 46.7855 26.9731 46.7863 26.5522 47.2072H26.5507ZM26.5507 61.5316L24.0192 64.0631L23.2249 63.2688C22.8033 62.8472 22.1209 62.8472 21.7001 63.2688C21.2792 63.6905 21.2792 64.3728 21.7001 64.7937L23.2571 66.3508C23.468 66.5617 23.744 66.6667 24.0199 66.6667C24.2959 66.6667 24.5719 66.5617 24.7828 66.3508L28.0771 63.0565C28.498 62.6348 28.498 61.9525 28.0771 61.5316C27.6554 61.1099 26.9731 61.1099 26.5522 61.5316H26.5507Z" fill="#101840"/>
</svg>
