<svg width="117" height="106" viewBox="0 0 117 106" fill="none" xmlns="http://www.w3.org/2000/svg">
<path d="M59.8607 72.0273H47.741V80.647H59.8607V72.0273Z" fill="#101840"/>
<path d="M64.2679 47.2461C64.2679 40.5659 60.5218 34.5322 54.6823 31.2998L56.2248 29.7914L57.6571 31.0843L59.1996 29.5759L54.7924 25.2661L53.2499 26.7745L54.6823 28.1752L52.5889 30.2224C42.893 26.4513 31.9852 31.0843 28.1289 40.4582C24.2727 49.832 29.0104 60.4988 38.596 64.2698C48.1817 68.0409 59.0895 63.5156 62.9457 54.1418C63.8272 51.8792 64.2679 49.6165 64.2679 47.2461ZM50.2751 31.7308C51.4871 32.0541 52.699 32.5928 53.8008 33.2392L52.699 35.0709C51.7074 34.5322 50.7158 34.1012 49.614 33.778L50.2751 31.7308ZM47.8511 31.2998L47.5206 33.4547C46.529 33.2393 45.5373 33.2392 44.5457 33.2392L44.4355 31.0843C45.5373 31.0843 46.7493 31.0843 47.8511 31.2998ZM42.0116 31.4076L42.4523 33.5625C41.3505 33.778 40.3589 34.1012 39.3673 34.6399L38.3757 32.7005C39.5876 32.1618 40.7996 31.7308 42.0116 31.4076ZM45.5373 63.4079C36.3924 63.4079 29.0104 56.189 29.0104 47.2461C29.0104 41.9666 31.6547 37.0103 36.0619 33.9935L37.2739 35.7174C30.7733 40.1349 29.2307 48.8623 33.7481 55.2192C38.2655 61.5762 47.19 63.0846 53.6906 58.6671C57.5469 56.0812 59.8607 51.8791 59.8607 47.2461C59.8607 43.906 58.6487 40.6737 56.5553 38.0878L41.1302 53.1721L35.9517 48.1081L37.4942 46.5996L41.1302 50.1552L56.5553 35.0709L57.3266 35.8251C60.4116 38.842 62.0643 42.9363 62.0643 47.2461C62.0643 56.189 54.6823 63.4079 45.5373 63.4079Z" fill="#101840"/>
<path d="M47.741 69.8726H59.8607V62.115C56.5553 65.2396 52.2583 67.0713 47.741 67.61V69.8726Z" fill="#101840"/>
<path d="M42.232 22.4647H48.8428C49.5039 22.4647 49.9446 22.0337 49.9446 21.3873C49.9446 20.7408 49.5039 20.3098 48.8428 20.3098H42.232C41.571 20.3098 41.1302 20.7408 41.1302 21.3873C41.1302 22.0337 41.571 22.4647 42.232 22.4647Z" fill="#101840"/>
<path d="M45.5375 26.7745C45.868 26.7745 46.3087 26.7745 46.6393 26.8823V24.6196H44.4357V26.8823C44.7662 26.7745 45.2069 26.7745 45.5375 26.7745Z" fill="#101840"/>
<path d="M74.1841 72.0273H62.0643V80.647H74.1841V72.0273Z" fill="#101840"/>
<path d="M33.4176 79.5695C33.4176 80.216 33.8583 80.647 34.5194 80.647H45.5374V72.0273H33.4176V79.5695Z" fill="#101840"/>
<path d="M33.4176 69.8725H45.5374V67.7176C41.2404 67.7176 36.9434 66.4247 33.4176 63.9465V69.8725Z" fill="#101840"/>
<path d="M66.4716 47.246C66.4716 47.5692 66.4716 48.0002 66.3614 48.3235H74.1842V39.7039H64.9291C65.9207 42.0742 66.4716 44.6601 66.4716 47.246Z" fill="#101840"/>
<path d="M88.5075 50.4785H76.3877V59.0981H88.5075V50.4785Z" fill="#101840"/>
<path d="M88.5075 61.2529H76.3877V69.8725H88.5075V61.2529Z" fill="#101840"/>
<path d="M88.5075 39.7039H76.3877V48.3235H88.5075V39.7039Z" fill="#101840"/>
<path d="M87.4058 33.2392H85.2022V28.9294H82.9986V33.2392H80.795V28.9294H78.5914V33.2392H69.6669H60.7423C61.9543 34.5322 63.0561 35.9329 63.9375 37.5491H88.5076V34.3167C88.5076 33.6702 88.0669 33.2392 87.4058 33.2392Z" fill="#101840"/>
<path d="M74.1841 61.2529H62.0643V69.8725H74.1841V61.2529Z" fill="#101840"/>
<path d="M62.6152 59.0981H74.1841V50.4785H66.141C65.7003 53.6031 64.4883 56.5122 62.6152 59.0981Z" fill="#101840"/>
<path d="M76.3877 80.647H87.4057C88.0667 80.647 88.5075 80.216 88.5075 79.5695V72.0273H76.3877V80.647Z" fill="#101840"/>
</svg>
