<svg width="252" height="315" viewBox="0 0 252 315" fill="none" xmlns="http://www.w3.org/2000/svg">
<g clip-path="url(#clip0_804_1526)">
<path d="M117.337 37.0123C99.1562 36.9849 81.3294 42.0409 65.8697 51.6094C50.41 61.1778 37.9331 74.8777 29.8478 91.1622C21.7624 107.447 18.3906 125.667 20.1131 143.767C21.8355 161.866 28.5836 179.124 39.5955 193.591C49.6379 206.816 62.8893 217.259 78.0952 223.931C93.3011 230.604 109.958 233.285 126.49 231.721C143.022 230.157 158.881 224.4 172.566 214.995C186.251 205.59 197.309 192.847 204.694 177.974C212.079 163.101 215.545 146.589 214.765 130.002C213.986 113.415 208.986 97.3012 200.238 83.1863C191.491 69.0715 179.286 57.4226 164.779 49.3425C150.272 41.2624 133.943 37.0184 117.337 37.0123ZM192.811 183.172C192.024 182.818 191.181 182.511 190.378 182.172C189.26 181.7 188.134 181.227 186.96 180.77C185.519 180.211 184.031 179.692 182.527 179.195C181.322 178.778 180.117 178.361 178.873 177.975C177.298 177.479 175.723 177.03 174.061 176.581C172.864 176.25 171.699 175.904 170.47 175.597C173.772 163.527 175.568 151.095 175.817 138.584H206.971C206.307 154.449 201.416 169.848 192.804 183.188L192.811 183.172ZM117.337 224.437C99.4455 224.437 83.7191 207.9 74.6944 183.086L75.663 182.842C77.0175 182.511 78.3641 182.18 79.7501 181.889C81.6007 181.495 83.4907 181.148 85.3886 180.81C86.7904 180.558 88.1685 180.29 89.586 180.07C91.6099 179.762 93.681 179.51 95.7521 179.282C97.1145 179.117 98.4611 178.92 99.8392 178.778C102.162 178.542 104.564 178.384 106.887 178.227C108.069 178.148 109.25 178.03 110.423 177.967C113.998 177.786 117.613 177.683 121.243 177.683C124.527 177.683 127.78 177.77 131.016 177.912C132.072 177.959 133.111 178.054 134.166 178.117C136.324 178.25 138.482 178.384 140.608 178.573C141.837 178.684 143.049 178.841 144.27 178.975C146.176 179.188 148.081 179.392 149.956 179.652C151.224 179.833 152.46 180.046 153.712 180.243C155.476 180.526 157.24 180.81 158.965 181.141C159.5 181.243 160.028 181.361 160.54 181.471C151.617 207.175 135.607 224.437 117.337 224.437ZM58.3695 179.692C57.015 180.18 55.7156 180.7 54.432 181.267C52.9042 181.881 51.3922 182.495 49.9432 183.157C48.699 183.716 47.5177 184.306 46.3365 184.897C45.549 185.306 44.6434 185.684 43.8559 186.094C34.0167 172.146 28.4112 155.655 27.7121 138.6H58.8499C59.116 151.788 61.1069 164.886 64.7719 177.557C64.2679 177.707 63.7954 177.888 63.2992 178.046C61.6297 178.581 59.9681 179.117 58.3695 179.692ZM43.8401 83.2858C44.6276 83.7111 45.5175 84.0733 46.3286 84.4828C47.5099 85.0734 48.6911 85.6641 49.9196 86.2232C51.3765 86.8847 52.8885 87.5068 54.4241 88.1211C55.7235 88.6408 57.015 89.1606 58.3616 89.6488C59.9366 90.2316 61.6219 90.7592 63.2835 91.2868C63.7875 91.4443 64.26 91.6254 64.764 91.7751C61.1024 104.445 59.1141 117.539 58.8499 130.725H27.7121C28.4171 113.69 34.0165 97.2201 43.8401 83.2858ZM117.337 44.8873C135.615 44.8873 151.625 62.1493 160.555 87.8848C160.012 87.9951 159.492 88.1132 158.98 88.2156C157.256 88.5463 155.5 88.8298 153.736 89.1133C152.484 89.3102 151.239 89.5228 149.971 89.7039C148.105 89.9638 146.199 90.1686 144.286 90.3812C143.065 90.5151 141.86 90.6726 140.624 90.7828C138.505 90.9797 136.348 91.1057 134.19 91.2396C133.135 91.3026 132.103 91.3971 131.04 91.4443C127.811 91.5913 124.556 91.6674 121.275 91.6727C117.645 91.6727 114.038 91.5703 110.463 91.3892C109.266 91.3262 108.1 91.2081 106.911 91.1293C104.548 90.9718 102.186 90.8143 99.8786 90.5781C98.4926 90.4363 97.1381 90.2394 95.7679 90.0741C93.7046 89.8142 91.6414 89.5701 89.6254 89.2866C88.2 89.0661 86.814 88.7983 85.4122 88.5463C83.5222 88.2077 81.6322 87.8612 79.7974 87.4753C78.4035 87.1761 77.049 86.8453 75.6866 86.5146L74.7259 86.2704C83.7112 61.4248 99.4376 44.8873 117.337 44.8873ZM161.083 173.486C159.28 173.14 157.437 172.84 155.571 172.541C154.224 172.321 152.901 172.076 151.531 171.887C149.57 171.604 147.593 171.391 145.561 171.163C144.262 171.021 142.978 170.84 141.624 170.722C139.395 170.509 137.135 170.375 134.875 170.234C133.741 170.163 132.631 170.06 131.489 170.005C128.082 169.848 124.648 169.766 121.188 169.761C117.298 169.761 113.452 169.861 109.651 170.06C108.391 170.123 107.171 170.249 105.919 170.336C103.407 170.509 100.894 170.667 98.4296 170.927C96.957 171.076 95.5316 171.289 94.0826 171.47C91.9091 171.738 89.7277 171.998 87.6094 172.336C86.0895 172.573 84.6247 172.872 83.1364 173.124C81.1597 173.486 79.1989 173.833 77.2695 174.25C75.7575 174.581 74.3164 174.959 72.8516 175.321L72.1744 175.486C68.7653 163.467 66.9127 151.059 66.6619 138.568H167.942C167.694 150.482 165.999 162.32 162.894 173.825L161.083 173.486ZM66.717 130.725C66.9684 118.234 68.821 105.826 72.2295 93.8068L72.891 93.9722C74.3636 94.3344 75.8205 94.7124 77.3325 95.0432C79.2382 95.4606 81.207 95.8307 83.1679 96.1693C84.672 96.4371 86.1446 96.7442 87.6724 96.9568C89.7829 97.2954 91.9485 97.5474 94.1141 97.8231C95.5789 98.0042 97.0121 98.2168 98.4926 98.3743C100.942 98.6263 103.446 98.7838 105.95 98.9571C107.21 99.0437 108.439 99.1697 109.707 99.2327C113.513 99.4322 117.358 99.5319 121.243 99.5319C124.703 99.5319 128.137 99.4506 131.544 99.2878C132.694 99.2327 133.828 99.1224 134.97 99.0516C137.214 98.9177 139.45 98.7838 141.663 98.5791C143.018 98.4452 144.333 98.2719 145.672 98.1144C147.633 97.8939 149.609 97.6892 151.515 97.4136C152.932 97.2088 154.303 96.9647 155.697 96.7363C157.492 96.4371 159.288 96.1536 161.044 95.8149L162.902 95.4448C166.007 106.949 167.702 118.788 167.95 130.701L66.717 130.725ZM175.809 130.725C175.56 118.214 173.764 105.782 170.462 93.7123C171.714 93.3973 172.919 93.0508 174.14 92.7122C175.715 92.2712 177.29 91.8302 178.865 91.3498C180.133 90.9482 181.361 90.5229 182.59 90.0977C184.078 89.5858 185.543 89.0739 186.968 88.5227C188.142 88.0659 189.283 87.5856 190.41 87.1052C191.197 86.7744 192.063 86.4673 192.835 86.1129C201.445 99.4458 206.339 114.836 207.01 130.693L175.809 130.725ZM188.102 79.5373C187.606 79.7578 187.134 79.9862 186.622 80.1988C185.559 80.6398 184.472 81.0651 183.369 81.4824C182.007 81.9943 180.629 82.4983 179.203 82.9787C178.062 83.3646 176.904 83.7662 175.723 84.0969C174.247 84.5537 172.746 84.9868 171.218 85.3963C170.202 85.6719 169.171 85.9397 168.131 86.1838C163.796 72.4592 156.26 59.9619 146.144 49.7226C162.734 55.3648 177.317 65.7268 188.102 79.5373ZM88.6882 49.6123C78.9679 59.3559 71.6317 71.2146 67.2525 84.2623L66.5359 84.0497C64.9136 83.5457 63.3071 83.0259 61.7557 82.4747C60.5194 82.0416 59.3145 81.5848 58.1254 81.1202C56.6291 80.5374 55.1722 79.9389 53.7626 79.3089C52.6496 78.8207 51.5655 78.3193 50.5102 77.8048C49.9117 77.4898 49.3605 77.1748 48.825 76.8677C59.3535 64.2896 73.1469 54.8587 88.6882 49.6123ZM48.825 192.473C49.3999 192.173 49.9432 191.858 50.5417 191.567C51.597 191.047 52.6916 190.543 53.802 190.055C55.2116 189.425 56.6685 188.827 58.1726 188.236C59.3539 187.779 60.5351 187.33 61.7872 186.889C63.3622 186.346 64.9372 185.826 66.5831 185.314L67.2919 185.102C71.6682 198.151 79.0048 210.01 88.7276 219.752C73.1713 214.501 59.3642 205.062 48.825 192.473ZM146.184 219.586C156.3 209.351 163.837 196.856 168.171 183.133C169.21 183.385 170.234 183.661 171.25 183.92C172.825 184.338 174.297 184.763 175.778 185.22C176.951 185.582 178.14 185.952 179.235 186.338C180.668 186.816 182.065 187.317 183.424 187.842C184.519 188.26 185.598 188.677 186.653 189.11C187.165 189.331 187.645 189.559 188.149 189.779C177.352 203.596 162.752 213.956 146.144 219.586H146.184Z" fill="black"/>
<path d="M198.261 61.9368C200.427 61.9456 202.508 61.0962 204.049 59.5743C205.392 58.2321 206.228 56.4656 206.414 54.576C206.601 52.6865 206.126 50.7907 205.071 49.2119C204.016 47.6331 202.447 46.469 200.63 45.9179C198.813 45.3668 196.861 45.4629 195.107 46.1898C193.353 46.9167 191.905 48.2294 191.01 49.9042C190.116 51.579 189.83 53.5122 190.201 55.3743C190.572 57.2364 191.577 58.9122 193.046 60.1161C194.514 61.3199 196.354 61.9773 198.253 61.9762L198.261 61.9368Z" fill="black"/>
<path d="M204.277 31.7362C203.233 31.7362 202.232 32.151 201.493 32.8894C200.755 33.6279 200.34 34.6294 200.34 35.6737C200.34 36.718 200.755 37.7195 201.493 38.4579C202.232 39.1963 203.233 39.6112 204.277 39.6112C205.361 39.5418 206.446 39.7041 207.462 40.0872C208.477 40.4703 209.399 41.0654 210.167 41.8329C210.934 42.6004 211.53 43.5226 211.913 44.5382C212.296 45.5537 212.458 46.6392 212.389 47.7224C212.389 48.7667 212.804 49.7682 213.542 50.5067C214.28 51.2451 215.282 51.6599 216.326 51.6599C217.37 51.6599 218.372 51.2451 219.11 50.5067C219.849 49.7682 220.264 48.7667 220.264 47.7224C220.326 45.6062 219.955 43.4997 219.173 41.5321C218.392 39.5645 217.217 37.7773 215.72 36.2803C214.223 34.7833 212.435 33.608 210.468 32.8266C208.5 32.0452 206.394 31.6741 204.277 31.7362Z" fill="black"/>
<path d="M204.277 19.6874C203.233 19.6874 202.232 20.1023 201.493 20.8407C200.755 21.5791 200.34 22.5806 200.34 23.6249C200.34 24.6692 200.755 25.6707 201.493 26.4092C202.232 27.1476 203.233 27.5624 204.277 27.5624C206.955 27.4512 209.626 27.8966 212.122 28.8703C214.618 29.8441 216.885 31.3251 218.78 33.2198C220.675 35.1145 222.156 37.3816 223.13 39.8779C224.103 42.3741 224.549 45.0453 224.437 47.7224C224.437 48.7667 224.852 49.7682 225.591 50.5067C226.329 51.2451 227.331 51.6599 228.375 51.6599C229.419 51.6599 230.421 51.2451 231.159 50.5067C231.898 49.7682 232.312 48.7667 232.312 47.7224C232.453 44.0032 231.824 40.295 230.464 36.8301C229.105 33.3652 227.045 30.2183 224.413 27.5865C221.782 24.9547 218.635 22.8947 215.17 21.5355C211.705 20.1763 207.997 19.5471 204.277 19.6874Z" fill="black"/>
</g>
<defs>
<clipPath id="clip0_804_1526">
<rect width="252" height="315" fill="white"/>
</clipPath>
</defs>
</svg>
