<svg width="69" height="69" viewBox="0 0 69 69" fill="none" xmlns="http://www.w3.org/2000/svg">
<path d="M14.0681 17.5866C14.0681 16.9909 14.5511 16.5086 15.146 16.5086H38.7749C39.3699 16.5086 39.8529 16.9916 39.8529 17.5866C39.8529 18.1815 39.3699 18.6645 38.7749 18.6645H15.146C14.5511 18.6645 14.0681 18.1815 14.0681 17.5866ZM15.146 22.9019H30.19C30.7849 22.9019 31.2679 22.4189 31.2679 21.8239C31.2679 21.229 30.7849 20.746 30.19 20.746H15.146C14.5511 20.746 14.0681 21.229 14.0681 21.8239C14.0681 22.4189 14.5511 22.9019 15.146 22.9019ZM10.5514 17.3336L8.01994 19.8651L7.22569 19.0701C6.80403 18.6492 6.12171 18.6492 5.70082 19.0701C5.27993 19.4917 5.27993 20.1741 5.70082 20.595L7.25789 22.1521C7.46872 22.3621 7.74472 22.4679 8.02071 22.4679C8.29671 22.4679 8.5727 22.3629 8.78353 22.1521L12.0778 18.8577C12.4987 18.436 12.4987 17.7537 12.0778 17.3328C11.6562 16.9119 10.9739 16.9119 10.553 17.3328L10.5514 17.3336ZM15.146 32.5389H38.7749C39.3699 32.5389 39.8529 32.0559 39.8529 31.4609C39.8529 30.866 39.3699 30.383 38.7749 30.383H15.146C14.5511 30.383 14.0681 30.866 14.0681 31.4609C14.0681 32.0559 14.5511 32.5389 15.146 32.5389ZM15.146 36.7762H30.19C30.7849 36.7762 31.2679 36.2932 31.2679 35.6983C31.2679 35.1034 30.7849 34.6204 30.19 34.6204H15.146C14.5511 34.6204 14.0681 35.1034 14.0681 35.6983C14.0681 36.2932 14.5511 36.7762 15.146 36.7762ZM15.146 44.2566C14.5511 44.2566 14.0681 44.7396 14.0681 45.3345C14.0681 45.9295 14.5511 46.4125 15.146 46.4125H38.7749C39.3699 46.4125 39.8529 45.9295 39.8529 45.3345C39.8529 44.7396 39.3699 44.2566 38.7749 44.2566H15.146ZM30.19 48.4932H15.146C14.5511 48.4932 14.0681 48.9762 14.0681 49.5711C14.0681 50.1661 14.5511 50.6491 15.146 50.6491H30.19C30.7849 50.6491 31.2679 50.1661 31.2679 49.5711C31.2679 48.9762 30.7849 48.4932 30.19 48.4932ZM68.7265 67.2413C69.1022 67.7028 69.0332 68.3821 68.5709 68.7585C68.3708 68.921 68.13 69 67.8909 69C67.5781 69 67.2676 68.8643 67.0537 68.6029L53.8113 52.3442C53.4625 51.9148 53.4939 51.2915 53.8849 50.9005L54.2153 50.5701L53.6534 50.0081C51.4086 50.5755 49.0695 49.9483 47.4151 48.2962L45.2371 46.1173V57.6027C45.2371 59.5071 43.6877 61.0566 41.7833 61.0566H3.453C1.5494 61.0566 0 59.5071 0 57.6027V9.5726C0 7.6682 1.5494 6.11877 3.453 6.11877H12.2618C12.3025 4.55783 13.5782 3.29897 15.1483 3.29897H17.7196C18.5177 1.34473 20.455 0 22.6178 0C24.7805 0 26.7193 1.34473 27.5167 3.29897H30.088C31.6589 3.29897 32.9346 4.55783 32.976 6.11877H41.7841C43.6884 6.11877 45.2378 7.6682 45.2378 9.5726V20.6494L54.5802 29.992C54.8325 28.8834 55.1537 27.5003 55.4343 26.3043C55.7977 24.7656 57.1409 23.7053 58.7148 23.7053C58.7355 23.7053 58.7562 23.7053 58.7761 23.7053C60.4865 23.736 61.8895 24.9504 62.0382 26.5305C62.1095 27.2734 62.2322 28.2233 62.3694 29.2897C62.8233 32.8164 63.4343 37.5598 62.9375 40.5482L63.5884 41.1984L63.9188 40.8679C64.3405 40.4463 65.0228 40.4463 65.4437 40.8679L68.6843 44.1086C69.1052 44.5303 69.1052 45.2126 68.6843 45.6335C68.2627 46.0552 67.5804 46.0552 67.1595 45.6335L64.6809 43.1549L64.3505 43.4853L56.503 51.3329C56.503 51.3329 56.4999 51.3345 56.4992 51.3352L56.0982 51.7362L68.7265 67.2397V67.2413ZM14.4108 8.20027C14.4108 8.60737 14.7419 8.93857 15.1483 8.93857H30.088C30.4959 8.93857 30.8271 8.60737 30.8271 8.20027V6.1939C30.8271 5.7868 30.4959 5.4556 30.088 5.4556H26.7278C26.221 5.4556 25.7833 5.10293 25.6744 4.60843C25.3631 3.18703 24.0775 2.15587 22.6178 2.15587C21.1581 2.15587 19.8739 3.1878 19.5619 4.60843C19.453 5.10293 19.0153 5.45483 18.5085 5.45483H15.1483C14.7419 5.45483 14.4108 5.78603 14.4108 6.19313V8.1995V8.20027ZM43.0805 43.9607L39.4918 40.3711C38.929 39.8084 38.6201 39.0594 38.6201 38.2613C38.6201 37.4632 38.929 36.7141 39.4918 36.1522C39.754 35.89 40.0453 35.6761 40.355 35.5151C40.0698 35.0512 39.9173 34.5153 39.918 33.9557C39.918 33.1576 40.2285 32.4078 40.792 31.8458C41.0872 31.5506 41.4222 31.3153 41.7818 31.1489C41.3126 30.0464 41.5686 28.7347 42.5323 27.7694C42.7002 27.6008 42.8865 27.4628 43.0812 27.3432V27.1469L40.5888 24.6545C39.974 24.0396 39.6643 23.2423 39.7164 22.4089C39.7647 21.6499 40.1128 20.9108 40.6969 20.3274C41.2589 19.7647 42.0087 19.4549 42.806 19.4549C42.8995 19.4549 42.9892 19.4733 43.0812 19.4818V9.5726C43.0812 8.8573 42.4993 8.2754 41.7841 8.2754H32.976C32.9354 9.83633 31.6589 11.0952 30.088 11.0952H15.1483C13.5782 11.0952 12.3025 9.83633 12.2618 8.2754H3.453C2.73771 8.2754 2.15659 8.8573 2.15659 9.5726V57.6035C2.15659 58.3196 2.73848 58.9007 3.453 58.9007H41.7833C42.4993 58.9007 43.0805 58.3188 43.0805 57.6035V43.9607ZM55.7394 49.0452L58.9011 45.8842L62.0628 42.7225L61.0048 41.6645C60.7395 41.3985 60.6307 41.0136 60.7196 40.6479C61.3321 38.1171 60.6958 33.1737 60.2305 29.565C60.0902 28.4717 59.9644 27.4965 59.8924 26.7337C59.8418 26.1985 59.266 25.8704 58.7386 25.8604H58.7148C58.1398 25.8604 57.6668 26.2346 57.5334 26.7973C56.973 29.1816 56.3566 31.8795 56.2661 32.348C56.1902 32.7397 55.9042 33.0571 55.5232 33.1737C55.1414 33.2894 54.7274 33.1875 54.4453 32.9053L43.3917 21.8523C43.0812 21.5403 42.5323 21.5403 42.221 21.8523C42.0079 22.0647 41.8837 22.3108 41.8684 22.5446C41.8546 22.7593 41.9351 22.9509 42.1137 23.1288L49.817 30.833C50.2379 31.2547 50.2379 31.937 49.817 32.3579C49.3954 32.7796 48.7131 32.7788 48.2922 32.3579L45.2263 29.2928C44.9036 28.97 44.3784 28.9708 44.0556 29.2928C43.9406 29.4078 43.3925 30.0127 43.9491 30.5693L47.1874 33.8069C47.6083 34.2286 47.6083 34.9109 47.1874 35.3318C46.7658 35.7535 46.0834 35.7535 45.6625 35.3318L43.5918 33.2618C43.414 33.0832 43.2223 33.0088 43.0069 33.0165C42.773 33.0311 42.5277 33.156 42.3161 33.3676C42.1597 33.524 42.0739 33.7326 42.0739 33.9541C42.0739 34.1757 42.1589 34.3835 42.3146 34.5383L46.111 38.3333C46.5319 38.7542 46.5319 39.4373 46.111 39.8582C45.6894 40.2784 45.0071 40.2799 44.5869 39.8582L42.2946 37.5674C42.1283 37.4011 41.952 37.3206 41.7557 37.3206C41.5111 37.3206 41.242 37.4486 41.0174 37.674C40.8618 37.8304 40.7759 38.0374 40.7759 38.259C40.7759 38.4805 40.8618 38.6891 41.0174 38.8439L44.9204 42.7478L44.922 42.7493L48.94 46.7682C50.159 47.988 51.9407 48.3721 53.589 47.7725C53.7093 47.7288 53.8335 47.7074 53.9577 47.7074C54.2383 47.7074 54.5143 47.817 54.7205 48.0232L55.7402 49.0429L55.7394 49.0452ZM10.5507 31.2072L8.01918 33.7387L7.22493 32.9437C6.80327 32.5228 6.12095 32.5228 5.70006 32.9437C5.27916 33.3653 5.27916 34.0477 5.70006 34.4686L7.25713 36.0257C7.46795 36.2365 7.74395 36.3415 8.01994 36.3415C8.29594 36.3415 8.57193 36.2365 8.78276 36.0257L12.0771 32.7321C12.498 32.3112 12.498 31.6281 12.0771 31.2072C11.6554 30.7855 10.9731 30.7863 10.5522 31.2072H10.5507ZM10.5507 45.5316L8.01918 48.0631L7.22493 47.2688C6.80327 46.8472 6.12095 46.8472 5.70006 47.2688C5.27916 47.6905 5.27916 48.3728 5.70006 48.7937L7.25713 50.3508C7.46795 50.5617 7.74395 50.6667 8.01994 50.6667C8.29594 50.6667 8.57193 50.5617 8.78276 50.3508L12.0771 47.0565C12.498 46.6348 12.498 45.9525 12.0771 45.5316C11.6554 45.1099 10.9731 45.1099 10.5522 45.5316H10.5507Z" fill="#101840"/>
</svg>
