<svg width="105" height="119" viewBox="0 0 105 119" fill="none" xmlns="http://www.w3.org/2000/svg">
<g clip-path="url(#clip0_305_2465)">
<path d="M88.1625 77.77L76.6875 66.5687L81.525 61.8925C81.975 61.4575 81.975 60.805 81.525 60.37C81.3 60.1525 81.075 60.0437 80.7375 60.0437H63.1875C62.5125 60.0437 62.0625 60.4787 62.0625 61.1312V77.9875C62.0625 78.64 62.625 79.075 63.1875 79.075C63.525 79.075 63.75 78.9662 63.975 78.7487L68.8125 74.0725L80.2875 85.165C80.7375 85.6 81.4125 85.6 81.8625 85.165L88.05 79.1837C88.275 78.9662 88.3875 78.7487 88.3875 78.4225C88.5 78.205 88.3875 77.9875 88.1625 77.77ZM81.1875 82.8812L69.7125 71.7887C69.4875 71.5712 69.2625 71.4625 68.925 71.4625C68.5875 71.4625 68.3625 71.5712 68.1375 71.7887L64.425 75.3775V62.2187H78.0375L74.325 65.8075C73.875 66.2425 73.875 66.895 74.325 67.33L85.8 78.4225L81.1875 82.8812Z" fill="#101840"/>
<path d="M60.9376 65.3725C59.4751 64.72 58.5751 63.3062 58.3501 61.7837C58.3501 61.5662 58.3501 61.3488 58.3501 61.0225C58.3501 58.4125 60.6 56.2375 63.3 56.2375C65.1 56.2375 66.9001 57.2163 67.6876 58.8475C67.9126 59.3913 68.5876 59.7175 69.1501 59.3913C69.7126 59.1738 70.0501 58.5212 69.7126 57.9775C69.7126 57.9775 69.7126 57.8688 69.6001 57.8688C68.7001 56.2375 67.2376 54.9325 65.4376 54.3887C64.7626 54.1712 63.9751 54.0625 63.1876 54.0625C59.2501 54.0625 55.9875 57.2163 55.9875 61.0225C55.9875 61.3488 55.9876 61.7838 56.1001 62.11C56.4376 64.285 57.9 66.2425 59.925 67.2212C60.0375 67.33 60.2625 67.33 60.4875 67.33C61.1625 67.33 61.6125 66.7863 61.6125 66.2425C61.6125 65.9163 61.3876 65.59 60.9376 65.3725Z" fill="#101840"/>
<path d="M60.7125 70.1575C60.2625 70.0488 59.8125 69.94 59.475 69.7225C56.1 68.4175 53.85 65.3725 53.625 61.8925C53.625 61.675 53.625 61.3488 53.625 61.1313C53.7375 56.02 58.125 51.8875 63.4125 51.9963C67.6875 52.105 71.2875 54.8238 72.525 58.7388C72.6375 59.2825 73.3125 59.7175 73.875 59.5C74.4375 59.2825 74.8875 58.7388 74.6625 58.195C73.5375 54.0625 70.1625 50.9088 65.8875 49.93C64.9875 49.7125 64.0875 49.6038 63.1875 49.6038C56.6625 49.6038 51.375 54.8238 51.375 61.1313C51.375 61.4575 51.375 61.7838 51.375 62.11C51.7125 66.3513 54.525 70.0488 58.575 71.7888C59.1375 72.0063 59.5875 72.2238 60.15 72.3325C60.2625 72.3325 60.375 72.3325 60.375 72.3325C61.05 72.4413 61.6125 72.0063 61.6125 71.3538C61.6125 70.7013 61.3875 70.1575 60.7125 70.1575Z" fill="#101840"/>
<path d="M21 71.6799H18.75V73.8549H21V71.6799Z" fill="#101840"/>
<path d="M85.125 19.2625H82.875V21.4375H85.125V19.2625Z" fill="#101840"/>
<path d="M27.75 18.175H25.5V20.35H27.75V18.175Z" fill="#101840"/>
<path d="M26.625 80.1626H24.375V82.3376H26.625V80.1626Z" fill="#101840"/>
<path d="M74.775 20.2412H72.525V22.4162H74.775V20.2412Z" fill="#101840"/>
<path d="M19.875 24.7H17.625V26.875H19.875V24.7Z" fill="#101840"/>
<path d="M43.5 80.1626H41.25V82.3376H43.5V80.1626Z" fill="#101840"/>
<path d="M86.25 32.3125H84V34.4875H86.25V32.3125Z" fill="#101840"/>
<path d="M49.8 48.19H79.5C80.175 48.19 80.625 47.755 80.625 47.1025C80.625 30.79 67.575 17.305 50.7 16.2175H50.5875C50.025 16.2175 49.4625 16.2175 48.9 16.2175H48.675C48.1125 16.2175 47.55 16.2175 46.9875 16.2175H46.7625C29.775 17.1963 16.725 30.6813 16.725 46.9938C16.725 52.4313 18.1875 57.6513 21 62.3275C26.2875 71.3538 35.9625 77.1175 46.65 77.77H46.875C47.4375 77.77 48.1125 77.77 48.7875 77.77C49.4625 77.77 49.9125 77.335 49.9125 76.6825L49.8 48.19ZM35.4 63.0888H47.55V75.7038C42.7125 75.0513 38.2125 70.375 35.4 63.0888ZM47.55 60.9138H34.6125C33.375 56.7813 32.7 52.4313 32.5875 48.19H47.4375V60.9138H47.55ZM18.975 48.19H30.45C30.5625 52.54 31.125 56.7813 32.3625 60.9138H22.6875C20.4375 56.9988 19.2 52.6488 18.975 48.19ZM22.575 33.1825H32.25C31.0125 37.315 30.45 41.665 30.3375 45.9063H18.975C19.0875 41.5563 20.4375 37.0975 22.575 33.1825ZM49.8 18.3925C54.6375 19.045 59.1375 23.7213 61.95 31.1163H49.8V18.3925ZM47.55 18.3925V31.1163H35.4C38.1 23.7213 42.7125 19.045 47.55 18.3925ZM47.55 33.1825V45.9063H32.7C32.8125 41.5563 33.4875 37.315 34.725 33.1825H47.55ZM49.8 33.1825H62.625C63.8625 37.315 64.5375 41.665 64.65 45.9063H49.8V33.1825ZM78.375 46.015H66.9C66.7875 41.665 66.225 37.4238 64.9875 33.2913H74.6625C76.9125 37.0975 78.15 41.5563 78.375 46.015ZM73.3125 31.0075H64.3125C62.9625 26.6575 60.375 22.6338 57 19.48C63.6375 21.3288 69.4875 25.4613 73.3125 31.0075ZM40.35 19.48C36.8625 22.6338 34.3875 26.6575 32.925 31.1163H23.925C27.8625 25.4613 33.7125 21.3288 40.35 19.48ZM24.0375 63.0888H33.0375C34.3875 67.4388 36.975 71.4625 40.4625 74.6163C33.7125 72.7675 27.8625 68.635 24.0375 63.0888Z" fill="#101840"/>
</g>
<defs>
<clipPath id="clip0_305_2465">
<rect width="72" height="87" fill="white" transform="translate(16.5 16)"/>
</clipPath>
</defs>
</svg>
