<svg width="73" height="87" viewBox="0 0 73 87" fill="none" xmlns="http://www.w3.org/2000/svg">
<g clip-path="url(#clip0_804_1497)">
<path d="M72.1625 61.77L60.6875 50.5687L65.525 45.8925C65.975 45.4575 65.975 44.805 65.525 44.37C65.3 44.1525 65.075 44.0437 64.7375 44.0437H47.1875C46.5125 44.0437 46.0625 44.4787 46.0625 45.1312V61.9875C46.0625 62.64 46.625 63.075 47.1875 63.075C47.525 63.075 47.75 62.9662 47.975 62.7487L52.8125 58.0725L64.2875 69.165C64.7375 69.6 65.4125 69.6 65.8625 69.165L72.05 63.1837C72.275 62.9662 72.3875 62.7487 72.3875 62.4225C72.5 62.205 72.3875 61.9875 72.1625 61.77ZM65.1875 66.8812L53.7125 55.7887C53.4875 55.5712 53.2625 55.4625 52.925 55.4625C52.5875 55.4625 52.3625 55.5712 52.1375 55.7887L48.425 59.3775V46.2187H62.0375L58.325 49.8075C57.875 50.2425 57.875 50.895 58.325 51.33L69.8 62.4225L65.1875 66.8812Z" fill="#101840"/>
<path d="M44.9375 49.3725C43.475 48.72 42.575 47.3062 42.35 45.7837C42.35 45.5662 42.35 45.3488 42.35 45.0225C42.35 42.4125 44.6 40.2375 47.3 40.2375C49.1 40.2375 50.9 41.2163 51.6875 42.8475C51.9125 43.3913 52.5875 43.7175 53.15 43.3913C53.7125 43.1738 54.05 42.5212 53.7125 41.9775C53.7125 41.9775 53.7125 41.8688 53.6 41.8688C52.7 40.2375 51.2375 38.9325 49.4375 38.3887C48.7625 38.1712 47.975 38.0625 47.1875 38.0625C43.25 38.0625 39.9875 41.2163 39.9875 45.0225C39.9875 45.3488 39.9875 45.7838 40.1 46.11C40.4375 48.285 41.9 50.2425 43.925 51.2212C44.0375 51.33 44.2625 51.33 44.4875 51.33C45.1625 51.33 45.6125 50.7863 45.6125 50.2425C45.6125 49.9163 45.3875 49.59 44.9375 49.3725Z" fill="#101840"/>
<path d="M44.7125 54.1575C44.2625 54.0488 43.8125 53.94 43.475 53.7225C40.1 52.4175 37.85 49.3725 37.625 45.8925C37.625 45.675 37.625 45.3488 37.625 45.1313C37.7375 40.02 42.125 35.8875 47.4125 35.9963C51.6875 36.105 55.2875 38.8238 56.525 42.7388C56.6375 43.2825 57.3125 43.7175 57.875 43.5C58.4375 43.2825 58.8875 42.7388 58.6625 42.195C57.5375 38.0625 54.1625 34.9088 49.8875 33.93C48.9875 33.7125 48.0875 33.6038 47.1875 33.6038C40.6625 33.6038 35.375 38.8238 35.375 45.1313C35.375 45.4575 35.375 45.7838 35.375 46.11C35.7125 50.3513 38.525 54.0488 42.575 55.7888C43.1375 56.0063 43.5875 56.2238 44.15 56.3325C44.2625 56.3325 44.375 56.3325 44.375 56.3325C45.05 56.4413 45.6125 56.0063 45.6125 55.3538C45.6125 54.7013 45.3875 54.1575 44.7125 54.1575Z" fill="#101840"/>
<path d="M5 55.6799H2.75V57.8549H5V55.6799Z" fill="#101840"/>
<path d="M69.125 3.26245H66.875V5.43745H69.125V3.26245Z" fill="#101840"/>
<path d="M11.75 2.17505H9.5V4.35005H11.75V2.17505Z" fill="#101840"/>
<path d="M10.625 64.1626H8.375V66.3376H10.625V64.1626Z" fill="#101840"/>
<path d="M58.775 4.24121H56.525V6.41621H58.775V4.24121Z" fill="#101840"/>
<path d="M3.875 8.69995H1.625V10.875H3.875V8.69995Z" fill="#101840"/>
<path d="M27.5 64.1626H25.25V66.3376H27.5V64.1626Z" fill="#101840"/>
<path d="M70.25 16.3125H68V18.4875H70.25V16.3125Z" fill="#101840"/>
<path d="M33.8 32.19H63.5C64.175 32.19 64.625 31.755 64.625 31.1025C64.625 14.79 51.575 1.30503 34.7 0.217529H34.5875C34.025 0.217529 33.4625 0.217529 32.9 0.217529H32.675C32.1125 0.217529 31.55 0.217529 30.9875 0.217529H30.7625C13.775 1.19628 0.724976 14.6813 0.724976 30.9938C0.724976 36.4313 2.18748 41.6513 4.99998 46.3275C10.2875 55.3538 19.9625 61.1175 30.65 61.77H30.875C31.4375 61.77 32.1125 61.77 32.7875 61.77C33.4625 61.77 33.9125 61.335 33.9125 60.6825L33.8 32.19ZM19.4 47.0888H31.55V59.7038C26.7125 59.0513 22.2125 54.375 19.4 47.0888ZM31.55 44.9138H18.6125C17.375 40.7813 16.7 36.4313 16.5875 32.19H31.4375V44.9138H31.55ZM2.97498 32.19H14.45C14.5625 36.54 15.125 40.7813 16.3625 44.9138H6.68748C4.43748 40.9988 3.19998 36.6488 2.97498 32.19ZM6.57498 17.1825H16.25C15.0125 21.315 14.45 25.665 14.3375 29.9063H2.97498C3.08748 25.5563 4.43748 21.0975 6.57498 17.1825ZM33.8 2.39253C38.6375 3.04503 43.1375 7.72128 45.95 15.1163H33.8V2.39253ZM31.55 2.39253V15.1163H19.4C22.1 7.72128 26.7125 3.04503 31.55 2.39253ZM31.55 17.1825V29.9063H16.7C16.8125 25.5563 17.4875 21.315 18.725 17.1825H31.55ZM33.8 17.1825H46.625C47.8625 21.315 48.5375 25.665 48.65 29.9063H33.8V17.1825ZM62.375 30.015H50.9C50.7875 25.665 50.225 21.4238 48.9875 17.2913H58.6625C60.9125 21.0975 62.15 25.5563 62.375 30.015ZM57.3125 15.0075H48.3125C46.9625 10.6575 44.375 6.63378 41 3.48003C47.6375 5.32878 53.4875 9.46128 57.3125 15.0075ZM24.35 3.48003C20.8625 6.63378 18.3875 10.6575 16.925 15.1163H7.92498C11.8625 9.46128 17.7125 5.32878 24.35 3.48003ZM8.03748 47.0888H17.0375C18.3875 51.4388 20.975 55.4625 24.4625 58.6163C17.7125 56.7675 11.8625 52.635 8.03748 47.0888Z" fill="#101840"/>
</g>
<defs>
<clipPath id="clip0_804_1497">
<rect width="72" height="87" fill="white" transform="translate(0.5)"/>
</clipPath>
</defs>
</svg>
