<svg width="85" height="74" viewBox="0 0 85 74" fill="none" xmlns="http://www.w3.org/2000/svg">
<path d="M43.8607 56.0273H31.741V64.647H43.8607V56.0273Z" fill="#101840"/>
<path d="M48.2679 31.2461C48.2679 24.5659 44.5218 18.5322 38.6823 15.2998L40.2248 13.7914L41.6571 15.0843L43.1996 13.5759L38.7924 9.26611L37.2499 10.7745L38.6823 12.1752L36.5889 14.2224C26.893 10.4513 15.9852 15.0843 12.1289 24.4582C8.27265 33.832 13.0104 44.4988 22.596 48.2698C32.1817 52.0409 43.0895 47.5156 46.9457 38.1418C47.8272 35.8792 48.2679 33.6165 48.2679 31.2461ZM34.2751 15.7308C35.4871 16.0541 36.699 16.5928 37.8008 17.2392L36.699 19.0709C35.7074 18.5322 34.7158 18.1012 33.614 17.778L34.2751 15.7308ZM31.8511 15.2998L31.5206 17.4547C30.529 17.2393 29.5373 17.2392 28.5457 17.2392L28.4355 15.0843C29.5373 15.0843 30.7493 15.0843 31.8511 15.2998ZM26.0116 15.4076L26.4523 17.5625C25.3505 17.778 24.3589 18.1012 23.3673 18.6399L22.3757 16.7005C23.5876 16.1618 24.7996 15.7308 26.0116 15.4076ZM29.5373 47.4079C20.3924 47.4079 13.0104 40.189 13.0104 31.2461C13.0104 25.9666 15.6547 21.0103 20.0619 17.9935L21.2739 19.7174C14.7733 24.1349 13.2307 32.8623 17.7481 39.2192C22.2655 45.5762 31.19 47.0846 37.6906 42.6671C41.5469 40.0812 43.8607 35.8791 43.8607 31.2461C43.8607 27.906 42.6487 24.6737 40.5553 22.0878L25.1302 37.1721L19.9517 32.1081L21.4942 30.5996L25.1302 34.1552L40.5553 19.0709L41.3266 19.8251C44.4116 22.842 46.0643 26.9363 46.0643 31.2461C46.0643 40.189 38.6823 47.4079 29.5373 47.4079Z" fill="#101840"/>
<path d="M31.741 53.8726H43.8607V46.115C40.5553 49.2396 36.2583 51.0713 31.741 51.61V53.8726Z" fill="#101840"/>
<path d="M26.232 6.46472H32.8428C33.5039 6.46472 33.9446 6.03374 33.9446 5.38727C33.9446 4.74079 33.5039 4.30981 32.8428 4.30981H26.232C25.571 4.30981 25.1302 4.74079 25.1302 5.38727C25.1302 6.03374 25.571 6.46472 26.232 6.46472Z" fill="#101840"/>
<path d="M29.5375 10.7745C29.868 10.7745 30.3087 10.7745 30.6393 10.8823V8.61963H28.4357V10.8823C28.7662 10.7745 29.2069 10.7745 29.5375 10.7745Z" fill="#101840"/>
<path d="M58.1841 56.0273H46.0643V64.647H58.1841V56.0273Z" fill="#101840"/>
<path d="M17.4176 63.5695C17.4176 64.216 17.8583 64.647 18.5194 64.647H29.5374V56.0273H17.4176V63.5695Z" fill="#101840"/>
<path d="M17.4176 53.8725H29.5374V51.7176C25.2404 51.7176 20.9434 50.4247 17.4176 47.9465V53.8725Z" fill="#101840"/>
<path d="M50.4716 31.246C50.4716 31.5692 50.4716 32.0002 50.3614 32.3235H58.1842V23.7039H48.9291C49.9207 26.0742 50.4716 28.6601 50.4716 31.246Z" fill="#101840"/>
<path d="M72.5075 34.4785H60.3877V43.0981H72.5075V34.4785Z" fill="#101840"/>
<path d="M72.5075 45.2529H60.3877V53.8725H72.5075V45.2529Z" fill="#101840"/>
<path d="M72.5075 23.7039H60.3877V32.3235H72.5075V23.7039Z" fill="#101840"/>
<path d="M71.4058 17.2392H69.2022V12.9294H66.9986V17.2392H64.795V12.9294H62.5914V17.2392H53.6669H44.7423C45.9543 18.5322 47.0561 19.9329 47.9375 21.5491H72.5076V18.3167C72.5076 17.6702 72.0669 17.2392 71.4058 17.2392Z" fill="#101840"/>
<path d="M58.1841 45.2529H46.0643V53.8725H58.1841V45.2529Z" fill="#101840"/>
<path d="M46.6152 43.0981H58.1841V34.4785H50.141C49.7003 37.6031 48.4883 40.5122 46.6152 43.0981Z" fill="#101840"/>
<path d="M60.3877 64.647H71.4057C72.0667 64.647 72.5075 64.216 72.5075 63.5695V56.0273H60.3877V64.647Z" fill="#101840"/>
</svg>
