<svg width="430" height="261" viewBox="0 0 430 261" fill="none" xmlns="http://www.w3.org/2000/svg">
<path d="M417.4 60.4C416.737 60.4 416.2 59.8627 416.2 59.2C416.2 58.5373 416.737 58 417.4 58C418.063 58 418.6 58.5373 418.6 59.2C418.6 59.8627 418.063 60.4 417.4 60.4Z" fill="#101840"/>
<path d="M428.8 74.2C428.799 73.4046 428.483 72.6421 427.92 72.0797C427.358 71.5173 426.595 71.2009 425.8 71.2H425.548L422.121 77.2L420.921 79.3C420.868 79.3918 420.792 79.468 420.701 79.5211C420.61 79.5741 420.506 79.6021 420.4 79.6021C420.294 79.6021 420.19 79.5741 420.099 79.5211C420.008 79.468 419.932 79.3918 419.879 79.3L418.679 77.2L415.256 71.2102C414.615 71.2309 413.998 71.4557 413.494 71.8518C412.99 72.2478 412.625 72.7945 412.453 73.4122L409.579 83.9602C409.541 84.1007 409.453 84.2226 409.331 84.303C409.21 84.3835 409.064 84.417 408.919 84.3974C408.775 84.3778 408.643 84.3064 408.547 84.1965C408.452 84.0865 408.399 83.9456 408.4 83.8V78.4H406V83.878C406 84.4133 406.147 84.9382 406.425 85.3956C406.704 85.853 407.102 86.2252 407.577 86.4717C408.052 86.7181 408.586 86.8293 409.12 86.7931C409.654 86.757 410.168 86.5748 410.606 86.2666C411.099 85.9227 411.471 85.4317 411.669 84.8638L413.127 80.7838C412.983 80.7676 412.85 80.6992 412.753 80.5917C412.656 80.4842 412.602 80.3449 412.6 80.2V77.8C412.6 77.6409 412.663 77.4883 412.776 77.3757C412.888 77.2632 413.041 77.2 413.2 77.2H413.8V76H415V77.2H418C418.159 77.2 418.312 77.2632 418.424 77.3757C418.537 77.4883 418.6 77.6409 418.6 77.8V80.2C418.6 80.3591 418.537 80.5117 418.424 80.6243C418.312 80.7368 418.159 80.8 418 80.8H415V88H413.8V82.4686L412.8 85.2646C412.52 86.0681 411.993 86.7626 411.294 87.2494C410.677 87.6837 409.952 87.9401 409.199 87.9907C408.446 88.0413 407.693 87.8841 407.023 87.5363C406.353 87.1885 405.792 86.6635 405.4 86.0183C405.007 85.3732 404.8 84.6329 404.8 83.878V76H403C402.841 76 402.688 75.9368 402.576 75.8243C402.463 75.7117 402.4 75.5591 402.4 75.4V70.6C402.4 70.4409 402.463 70.2883 402.576 70.1757C402.688 70.0632 402.841 70 403 70H404.8V67H404.342L394.868 71.74C394.776 71.7858 394.675 71.8074 394.572 71.8026C394.47 71.7979 394.37 71.7669 394.283 71.7128C394.196 71.6586 394.124 71.583 394.075 71.4933C394.025 71.4035 393.999 71.3025 394 71.2V55C394 54.8977 394.026 54.7971 394.076 54.7078C394.126 54.6184 394.197 54.5432 394.284 54.4894C394.371 54.4356 394.471 54.405 394.573 54.4003C394.675 54.3957 394.777 54.4173 394.868 54.463L404.342 59.2H409C409.159 59.2 409.312 59.2632 409.424 59.3757C409.537 59.4883 409.6 59.6409 409.6 59.8V66.4C409.6 66.5591 409.537 66.7117 409.424 66.8243C409.312 66.9368 409.159 67 409 67H408.4V70H409C409.159 70 409.312 70.0632 409.424 70.1757C409.537 70.2883 409.6 70.4409 409.6 70.6V79.3156L411.296 73.0924C411.541 72.2055 412.07 71.4232 412.802 70.8649C413.534 70.3066 414.428 70.0029 415.348 70H416.8V67.6H415C414.523 67.6 414.065 67.4104 413.727 67.0728C413.39 66.7352 413.2 66.2774 413.2 65.8V63.4H411.4C411.304 63.4 411.208 63.3768 411.123 63.3323C411.037 63.2877 410.964 63.2232 410.908 63.1442C410.853 63.0652 410.818 62.974 410.805 62.8784C410.792 62.7827 410.803 62.6855 410.836 62.5948L412.973 56.7148C412.023 56.5227 411.168 56.0083 410.553 55.2585C409.939 54.5087 409.602 53.5695 409.6 52.6C409.6 52.4409 409.663 52.2883 409.776 52.1757C409.888 52.0632 410.041 52 410.2 52H419.8C420.914 52.0013 421.981 52.4442 422.768 53.2316C423.556 54.0189 423.999 55.0865 424 56.2V70H425.8C426.914 70.0013 427.981 70.4442 428.768 71.2315C429.556 72.0189 429.999 73.0865 430 74.2V88H428.8V74.2ZM413.8 79.6H417.4V78.4H413.8V79.6ZM403.6 60.1708L395.2 55.9708V70.2292L403.6 66.0292V60.1708ZM408.4 60.4H404.8V65.8H408.4V60.4ZM406 67V70H407.2V67H406ZM408.4 71.2H403.6V74.8H408.4V71.2ZM408.4 76H406V77.2H408.4V76ZM419.8 76.7404L420.4 77.7904L421 76.7404V71.2H419.8V76.7404ZM416.634 71.2L418.6 74.6404V71.2H416.634ZM419.8 53.2H410.86C410.999 53.8772 411.368 54.4857 411.903 54.9229C412.439 55.3601 413.109 55.5992 413.8 55.6H422.74C422.601 54.9228 422.232 54.3143 421.697 53.8771C421.161 53.4399 420.491 53.2008 419.8 53.2ZM422.8 56.8H420.441C420.537 57.5022 420.802 58.1707 421.213 58.7483C421.623 59.3258 422.168 59.7952 422.8 60.1162V56.8ZM422.8 61.42C421.837 61.0538 420.995 60.4284 420.366 59.613C419.737 58.7976 419.346 57.824 419.236 56.8H414.22L412.257 62.2H413.8C413.959 62.2 414.112 62.2632 414.224 62.3757C414.337 62.4883 414.4 62.6409 414.4 62.8V65.8C414.4 65.9591 414.463 66.1117 414.576 66.2243C414.688 66.3368 414.841 66.4 415 66.4H417.4C417.559 66.4 417.712 66.4632 417.824 66.5757C417.937 66.6883 418 66.8409 418 67V70H422.8V61.42ZM423.4 71.2H422.2V74.6404L424.166 71.2H423.4Z" fill="#101840"/>
<path d="M425.2 76H426.4V88H425.2V76Z" fill="#101840"/>
<path d="M397.244 58.6517L398.228 59.0896L397.741 60.1861L396.756 59.7482L397.244 58.6517Z" fill="#101840"/>
<path d="M399.23 59.5349L402.643 61.0518L402.156 62.1489L398.743 60.632L399.23 59.5349Z" fill="#101840"/>
<path d="M398.68 52.24L400.48 54.6396L399.521 55.3598L397.72 52.9602L398.68 52.24Z" fill="#101840"/>
<path d="M402.4 52H403.6V55H402.4V52Z" fill="#101840"/>
<path d="M407.32 52.24L408.28 52.96L406.48 55.36L405.52 54.64L407.32 52.24Z" fill="#101840"/>
<path d="M419.8 82H421V83.2H419.8V82Z" fill="#101840"/>
<path d="M419.8 85.6001H421V86.8001H419.8V85.6001Z" fill="#101840"/>
<path d="M145.4 53H115C113.515 52.9983 112.092 52.4078 111.042 51.3579C109.992 50.3081 109.402 48.8847 109.4 47.4V46.6C109.399 45.2029 109.539 43.8093 109.816 42.44C110.222 40.4382 110.923 38.5078 111.896 36.712L113.302 37.4736C112.558 38.8551 111.988 40.3233 111.604 41.8448C112.812 41.9905 113.943 42.5129 114.836 43.3377C115.73 44.1626 116.342 45.248 116.584 46.44L115.016 46.7536C114.835 45.8679 114.371 45.0649 113.695 44.4651C113.018 43.8653 112.166 43.5011 111.265 43.4272C111.09 44.4757 111.001 45.5369 111 46.6V47.4C111.001 48.4605 111.423 49.4771 112.173 50.227C112.923 50.9769 113.94 51.3987 115 51.4H122.264C122.456 50.0683 123.121 48.8504 124.138 47.9689C125.155 47.0875 126.455 46.6016 127.8 46.6V48.2C126.878 48.2012 125.985 48.5201 125.271 49.103C124.557 49.6859 124.066 50.4971 123.88 51.4H130.2C131.261 51.4 132.278 50.9786 133.028 50.2284C133.779 49.4783 134.2 48.4609 134.2 47.4C134.2 46.3391 133.779 45.3217 133.028 44.5716C132.278 43.8214 131.261 43.4 130.2 43.4H122.968C122.864 44.4111 122.518 45.3824 121.96 46.232L120.614 45.368C121.084 44.7405 121.355 43.9853 121.389 43.2016C121.423 42.4178 121.219 41.6421 120.805 40.976L122.122 40.0672C122.481 40.5911 122.735 41.1795 122.87 41.8H127.064C127.256 40.4683 127.921 39.2504 128.938 38.3689C129.955 37.4875 131.255 37.0016 132.6 37V38.6C131.678 38.6012 130.785 38.9201 130.071 39.503C129.357 40.0859 128.866 40.8971 128.68 41.8H130.2C131.126 41.8008 132.038 42.0312 132.853 42.4707C133.668 42.9102 134.362 43.5451 134.871 44.3184C135.654 44.2225 136.407 43.9583 137.078 43.544C137.749 43.1297 138.322 42.5752 138.758 41.9184L139.134 41.3536L140.466 42.2416L140.09 42.8016C139.572 43.5766 138.906 44.2413 138.13 44.7573C137.354 45.2733 136.483 45.6304 135.568 45.808C135.86 46.7841 135.879 47.8216 135.622 48.8076C135.365 49.7935 134.843 50.6902 134.112 51.4H145.4C146.331 51.3986 147.233 51.0724 147.949 50.4776C148.666 49.8828 149.152 49.0566 149.325 48.1416C147.976 47.9996 146.683 47.527 145.56 46.7656C144.083 48.2065 142.099 49.009 140.035 49C139.949 49 139.862 49 139.774 48.996L139.826 47.396C140.649 47.4289 141.47 47.2983 142.242 47.0118C143.015 46.7252 143.722 46.2883 144.325 45.7264C143.951 45.3543 143.613 44.9474 143.316 44.5112L142.867 43.8392L144.2 42.952L144.648 43.624C145.181 44.426 145.882 45.1027 146.703 45.6073C147.523 46.1118 148.444 46.4323 149.4 46.5464C149.391 43.4539 148.634 40.4095 147.192 37.6736C146.535 37.5131 145.844 37.5585 145.214 37.8036C144.583 38.0488 144.043 38.4818 143.667 39.044L142.336 38.156C142.764 37.5178 143.336 36.9891 144.006 36.6126C144.676 36.2362 145.425 36.0225 146.193 35.9888C145.054 34.2731 143.647 32.7509 142.026 31.48C141.558 33.7664 140.166 35.5464 138.418 36.052C138.801 37.065 138.999 38.1391 139 39.2224H137.4C137.403 38.2511 137.213 37.2888 136.841 36.3914C136.469 35.494 135.923 34.6793 135.234 33.9944L134.806 33.5656L135.937 32.4344L136.366 32.8632C136.877 33.3786 137.325 33.954 137.698 34.5768C139.155 34.3632 140.36 32.6112 140.566 30.4512C139.022 29.4516 137.342 28.6811 135.577 28.164L136.023 26.6272C138.093 27.2289 140.056 28.1513 141.84 29.3608C144.66 31.2662 146.97 33.8342 148.567 36.8397C150.164 39.8452 150.999 43.1966 151 46.6V47.4C150.998 48.8847 150.408 50.3081 149.358 51.3579C148.308 52.4078 146.885 52.9983 145.4 53Z" fill="#101840"/>
<path d="M135 25.8H131.949C131.751 26.4058 131.508 26.9957 131.221 27.5648L133.376 29.72C133.525 29.8686 133.643 30.045 133.723 30.2392C133.803 30.4333 133.845 30.6414 133.845 30.8516C133.845 31.0618 133.803 31.2699 133.723 31.464C133.643 31.6582 133.525 31.8346 133.376 31.9832L129.982 35.3768C129.834 35.5254 129.657 35.6434 129.463 35.7238C129.269 35.8042 129.061 35.8457 128.851 35.8457C128.641 35.8457 128.432 35.8042 128.238 35.7238C128.044 35.6434 127.868 35.5254 127.719 35.3768L125.565 33.2216C125.353 33.3288 125.137 33.4296 124.919 33.5248C124.556 33.6848 124.182 33.8248 123.799 33.9504V37C123.799 37.4243 123.631 37.8313 123.331 38.1314C123.03 38.4314 122.624 38.6 122.199 38.6H117.399C116.975 38.6 116.568 38.4314 116.268 38.1314C115.968 37.8313 115.799 37.4243 115.799 37V33.9488C115.193 33.751 114.603 33.5076 114.034 33.2208L111.88 35.376C111.731 35.5246 111.555 35.6426 111.361 35.723C111.167 35.8035 110.959 35.8449 110.748 35.8449C110.538 35.8449 110.33 35.8035 110.136 35.723C109.942 35.6426 109.765 35.5246 109.617 35.376L106.222 31.9824C106.074 31.8338 105.956 31.6574 105.875 31.4632C105.795 31.2691 105.754 31.061 105.754 30.8508C105.754 30.6406 105.795 30.4325 105.875 30.2384C105.956 30.0442 106.074 29.8678 106.222 29.7192L108.378 27.5648C108.092 26.9957 107.849 26.4057 107.651 25.8H104.6C104.176 25.8 103.769 25.6314 103.469 25.3314C103.169 25.0313 103 24.6243 103 24.2V19.4C103 18.9757 103.169 18.5687 103.469 18.2686C103.769 17.9686 104.176 17.8 104.6 17.8H107.651C107.849 17.1942 108.092 16.6043 108.379 16.0352L106.223 13.88C105.923 13.58 105.755 13.1731 105.755 12.7488C105.755 12.3245 105.923 11.9176 106.223 11.6176L109.618 8.2232C109.766 8.07456 109.943 7.95664 110.137 7.8762C110.331 7.79575 110.539 7.75434 110.749 7.75434C110.959 7.75434 111.167 7.79575 111.362 7.8762C111.556 7.95664 111.732 8.07456 111.881 8.2232L114.035 10.3832C114.604 10.095 115.194 9.85034 115.8 9.6512V6.6C115.8 6.17565 115.969 5.76869 116.269 5.46863C116.569 5.16857 116.976 5 117.4 5H122.2C122.624 5 123.031 5.16857 123.331 5.46863C123.631 5.76869 123.8 6.17565 123.8 6.6V9.6512C124.182 9.776 124.556 9.9184 124.92 10.076C125.138 10.1712 125.354 10.272 125.566 10.3792L127.72 8.2232C128.02 7.92325 128.427 7.75474 128.851 7.75474C129.275 7.75474 129.682 7.92325 129.982 8.2232L133.376 11.6176C133.525 11.7662 133.643 11.9426 133.723 12.1368C133.803 12.3309 133.845 12.539 133.845 12.7492C133.845 12.9594 133.803 13.1675 133.723 13.3616C133.643 13.5558 133.525 13.7322 133.376 13.8808L131.221 16.0352C131.328 16.2472 131.429 16.4632 131.524 16.6808C131.684 17.044 131.824 17.4184 131.95 17.8008H135C135.424 17.8008 135.831 17.9694 136.131 18.2694C136.431 18.5695 136.6 18.9765 136.6 19.4008V24.2008C136.6 24.625 136.431 25.0318 136.131 25.3317C135.831 25.6315 135.424 25.8 135 25.8ZM135 19.4H131.355C131.18 19.4 131.01 19.3426 130.871 19.2365C130.731 19.1304 130.631 18.9816 130.584 18.8128C130.443 18.3032 130.267 17.8041 130.057 17.3192C129.903 16.9653 129.73 16.6198 129.54 16.284C129.454 16.1317 129.42 15.9554 129.443 15.782C129.467 15.6086 129.547 15.4477 129.67 15.324L132.245 12.7488L128.85 9.3544L126.276 11.9296C126.152 12.0533 125.991 12.1331 125.818 12.1566C125.645 12.1802 125.468 12.1462 125.316 12.06C124.98 11.8698 124.635 11.6973 124.281 11.5432C123.796 11.3327 123.297 11.1565 122.787 11.016C122.618 10.9694 122.47 10.8688 122.363 10.7295C122.257 10.5901 122.2 10.4199 122.2 10.2448V6.6H117.4V10.2448C117.4 10.4198 117.343 10.59 117.237 10.7293C117.131 10.8686 116.982 10.9693 116.814 11.016C115.931 11.2576 115.081 11.6069 114.284 12.056C114.132 12.1422 113.955 12.1762 113.782 12.1526C113.609 12.1291 113.448 12.0493 113.324 11.9256L110.749 9.3504L107.354 12.7456L109.93 15.32C110.053 15.4437 110.133 15.6046 110.157 15.778C110.18 15.9514 110.146 16.1277 110.06 16.28C109.611 17.0774 109.262 17.9269 109.02 18.8096C108.973 18.9782 108.873 19.1269 108.733 19.2328C108.594 19.3387 108.424 19.3961 108.249 19.396H104.6V24.196H108.245C108.42 24.1959 108.59 24.2533 108.729 24.3592C108.869 24.4651 108.969 24.6138 109.016 24.7824C109.258 25.6651 109.607 26.5146 110.056 27.312C110.142 27.4643 110.176 27.6406 110.153 27.814C110.129 27.9874 110.049 28.1483 109.926 28.272L107.35 30.8472L110.746 34.2408L113.32 31.6704C113.444 31.5467 113.605 31.4669 113.778 31.4434C113.951 31.4198 114.128 31.4537 114.28 31.54C115.077 31.9891 115.927 32.3384 116.81 32.58C116.978 32.6267 117.127 32.7274 117.233 32.8667C117.339 33.006 117.396 33.1762 117.396 33.3512V37H122.2V33.3552C122.2 33.1801 122.257 33.0098 122.363 32.8705C122.47 32.7312 122.618 32.6306 122.787 32.584C123.297 32.4434 123.796 32.2672 124.281 32.0568C124.635 31.9027 124.98 31.7302 125.316 31.54C125.436 31.4715 125.572 31.4357 125.71 31.436C125.923 31.436 126.126 31.5204 126.276 31.6704L128.851 34.2448L132.245 30.8504L129.67 28.28C129.547 28.1563 129.467 27.9954 129.443 27.822C129.42 27.6486 129.454 27.4723 129.54 27.32C129.989 26.5226 130.338 25.6731 130.58 24.7904C130.626 24.6204 130.727 24.4703 130.867 24.3636C131.007 24.2568 131.179 24.1993 131.355 24.2H135V19.4Z" fill="#101840"/>
<path d="M119.8 30.6C118.059 30.6 116.358 30.0839 114.911 29.1169C113.464 28.15 112.336 26.7756 111.67 25.1676C111.004 23.5596 110.83 21.7902 111.169 20.0832C111.509 18.3762 112.347 16.8082 113.577 15.5775C114.808 14.3468 116.376 13.5086 118.083 13.1691C119.79 12.8295 121.56 13.0038 123.168 13.6699C124.776 14.3359 126.15 15.4638 127.117 16.911C128.084 18.3581 128.6 20.0595 128.6 21.8C128.597 24.1331 127.669 26.3698 126.019 28.0195C124.37 29.6692 122.133 30.5973 119.8 30.6ZM119.8 14.6C118.376 14.6 116.984 15.0223 115.8 15.8134C114.616 16.6046 113.693 17.7291 113.148 19.0447C112.603 20.3603 112.461 21.808 112.738 23.2047C113.016 24.6013 113.702 25.8842 114.709 26.8912C115.716 27.8981 116.999 28.5838 118.395 28.8617C119.792 29.1395 121.24 28.9969 122.555 28.4519C123.871 27.907 124.995 26.9841 125.787 25.8001C126.578 24.6161 127 23.224 127 21.8C126.998 19.8912 126.238 18.0612 124.889 16.7114C123.539 15.3616 121.709 14.6023 119.8 14.6Z" fill="#101840"/>
<path d="M119.8 25.8001C119.009 25.8001 118.236 25.5655 117.578 25.1259C116.92 24.6864 116.407 24.0617 116.105 23.3308C115.802 22.5999 115.723 21.7956 115.877 21.0197C116.031 20.2438 116.412 19.531 116.972 18.9716C117.531 18.4122 118.244 18.0313 119.02 17.8769C119.796 17.7226 120.6 17.8018 121.331 18.1045C122.062 18.4073 122.686 18.92 123.126 19.5778C123.565 20.2356 123.8 21.0089 123.8 21.8001C123.799 22.8605 123.377 23.8772 122.627 24.6271C121.877 25.3769 120.861 25.7988 119.8 25.8001ZM119.8 19.4001C119.325 19.4001 118.861 19.5408 118.467 19.8045C118.072 20.0682 117.764 20.4431 117.583 20.8816C117.401 21.3202 117.354 21.8027 117.446 22.2683C117.539 22.7338 117.767 23.1615 118.103 23.4971C118.439 23.8328 118.866 24.0613 119.332 24.1539C119.797 24.2465 120.28 24.199 120.718 24.0174C121.157 23.8357 121.532 23.5281 121.796 23.1334C122.059 22.7387 122.2 22.2747 122.2 21.8001C122.2 21.1635 121.947 20.5531 121.497 20.103C121.047 19.6529 120.437 19.4001 119.8 19.4001Z" fill="#101840"/>
<path d="M94.4128 124.2L93.3536 125.4C92.9281 125.025 92.5874 124.563 92.354 124.046C92.1206 123.528 92 122.968 92 122.4V96.8C92 96.2326 92.1206 95.6716 92.354 95.1544C92.5874 94.6371 92.9281 94.1755 93.3536 93.8L94.4128 95C94.1574 95.2252 93.9528 95.5022 93.8127 95.8126C93.6726 96.1229 93.6001 96.4595 93.6 96.8V122.4C93.6001 122.741 93.6726 123.077 93.8127 123.388C93.9528 123.698 94.1574 123.975 94.4128 124.2Z" fill="#101840"/>
<path d="M136.8 122.32V122.4C136.799 123.46 136.377 124.477 135.627 125.227C134.877 125.977 133.86 126.399 132.8 126.4H111.2V124.8H132.8C133.437 124.8 134.047 124.547 134.497 124.097C134.947 123.647 135.2 123.037 135.2 122.4H111.2V120.8H136C136.637 120.8 137.247 120.547 137.697 120.097C138.147 119.647 138.4 119.037 138.4 118.4V92C138.4 91.3635 138.147 90.753 137.697 90.3029C137.247 89.8529 136.637 89.6 136 89.6H99.2C98.5635 89.6 97.953 89.8529 97.5029 90.3029C97.0529 90.753 96.8 91.3635 96.8 92V118.4C96.8 119.037 97.0529 119.647 97.5029 120.097C97.953 120.547 98.5635 120.8 99.2 120.8H103.2V122.4H99.2C98.1395 122.399 97.1228 121.977 96.373 121.227C95.6231 120.477 95.2013 119.46 95.2 118.4V92C95.2013 90.9395 95.6231 89.9228 96.373 89.173C97.1228 88.4231 98.1395 88.0013 99.2 88H136C137.06 88.0013 138.077 88.4231 138.827 89.173C139.577 89.9228 139.999 90.9395 140 92V118.4C139.999 119.322 139.68 120.215 139.097 120.929C138.514 121.643 137.703 122.134 136.8 122.32Z" fill="#101840"/>
<path d="M134.4 91.2H136V92.8H134.4V91.2Z" fill="#101840"/>
<path d="M131.2 91.2H132.8V92.8H131.2V91.2Z" fill="#101840"/>
<path d="M128 91.2H129.6V92.8H128V91.2Z" fill="#101840"/>
<path d="M123.143 96.7433C124.452 95.4345 126.174 94.6201 128.016 94.4387C129.858 94.2573 131.706 94.7202 133.245 95.7484C134.784 96.7767 135.918 98.3068 136.456 100.078C136.993 101.849 136.899 103.752 136.191 105.462C135.483 107.172 134.203 108.583 132.571 109.456C130.939 110.328 129.055 110.608 127.239 110.246C125.424 109.885 123.79 108.906 122.616 107.475C121.442 106.044 120.8 104.251 120.8 102.4C120.797 101.349 121.003 100.308 121.405 99.3369C121.807 98.3659 122.398 97.4843 123.143 96.7433ZM133.326 97.8745C132.223 96.772 130.757 96.1098 129.201 96.0121C127.645 95.9145 126.107 96.3881 124.875 97.3441L129.131 101.6H135.15C134.977 100.189 134.334 98.8769 133.326 97.8745ZM135.15 103.2H130.731L133.856 106.325C134.563 105.42 135.011 104.34 135.15 103.2ZM128.8 108.8C130.222 108.804 131.604 108.331 132.725 107.456L128.8 103.531L124.875 107.456C125.996 108.331 127.378 108.804 128.8 108.8ZM123.744 106.325L127.669 102.4L123.744 98.4753C122.872 99.5979 122.399 100.979 122.399 102.4C122.399 103.821 122.872 105.202 123.744 106.325Z" fill="#101840"/>
<path d="M119.2 116C119.2 116.212 119.116 116.416 118.966 116.566C118.816 116.716 118.612 116.8 118.4 116.8H99.2V115.2H117.6V113.294L115.2 112.094L112.358 113.52C112.246 113.574 112.124 113.601 112 113.6C111.788 113.6 111.584 113.516 111.434 113.366L108.8 110.731L106.166 113.366C106.082 113.45 105.981 113.515 105.87 113.555C105.758 113.595 105.639 113.609 105.521 113.596C105.403 113.584 105.289 113.547 105.188 113.486C105.087 113.425 105 113.342 104.934 113.244L102.4 109.44L99.8656 113.242L98.5344 112.354L101.734 107.554C101.812 107.45 101.912 107.366 102.028 107.308C102.143 107.25 102.271 107.22 102.4 107.22C102.529 107.22 102.657 107.25 102.772 107.308C102.888 107.366 102.988 107.45 103.066 107.554L105.724 111.544L108.234 109.034C108.384 108.884 108.588 108.8 108.8 108.8C109.012 108.8 109.216 108.884 109.366 109.034L112.158 111.826L114.842 110.484C114.953 110.428 115.076 110.4 115.2 110.4C115.324 110.4 115.447 110.428 115.558 110.484L117.6 111.506V108H119.2V116Z" fill="#101840"/>
<path d="M119.2 95.1999V103.2C119.2 103.412 119.116 103.616 118.966 103.766C118.816 103.916 118.612 104 118.4 104H99.2V102.4H117.6V100.494L115.2 99.2943L112.358 100.72C112.183 100.807 111.983 100.828 111.795 100.777C111.606 100.727 111.442 100.61 111.334 100.448L108.8 96.6399L106.266 100.442C106.201 100.541 106.114 100.625 106.013 100.687C105.912 100.749 105.798 100.787 105.68 100.8C105.562 100.813 105.443 100.798 105.331 100.759C105.22 100.719 105.118 100.654 105.035 100.57L102.4 97.9311L99.7656 100.566L98.6344 99.4343L101.834 96.2343C101.984 96.0844 102.188 96.0001 102.4 96.0001C102.612 96.0001 102.816 96.0844 102.966 96.2343L105.476 98.7439L108.134 94.7559C108.212 94.6525 108.312 94.5685 108.428 94.5106C108.543 94.4527 108.671 94.4226 108.8 94.4226C108.929 94.4226 109.057 94.4527 109.172 94.5106C109.288 94.5685 109.388 94.6525 109.466 94.7559L112.274 98.9687L114.842 97.6839C114.953 97.6285 115.076 97.5996 115.2 97.5996C115.324 97.5996 115.447 97.6285 115.558 97.6839L117.6 98.7055V95.1999H119.2Z" fill="#101840"/>
<path d="M132 112H136V113.6H132V112Z" fill="#101840"/>
<path d="M121.6 112H130.4V113.6H121.6V112Z" fill="#101840"/>
<path d="M128.8 115.2H136V116.8H128.8V115.2Z" fill="#101840"/>
<path d="M121.6 115.2H127.2V116.8H121.6V115.2Z" fill="#101840"/>
<path d="M95.2001 135.2V126.486C95.1927 125.907 95.389 125.344 95.7547 124.896C96.1203 124.448 96.632 124.142 97.2001 124.033C97.545 123.975 97.8982 123.993 98.2353 124.086C98.5723 124.179 98.885 124.345 99.1513 124.571L99.2001 124.612C99.6397 124.218 100.209 123.999 100.8 123.999C101.391 123.999 101.961 124.218 102.4 124.612C102.726 124.333 103.117 124.143 103.538 124.059C103.958 123.976 104.393 124.002 104.8 124.136V120.8C104.793 120.222 104.989 119.659 105.354 119.21C105.72 118.762 106.232 118.456 106.8 118.347C107.144 118.289 107.497 118.307 107.834 118.399C108.171 118.491 108.483 118.656 108.75 118.881C109.016 119.106 109.23 119.387 109.377 119.704C109.524 120.02 109.6 120.365 109.6 120.714V129.787L111.723 128.513C112.042 128.321 112.405 128.213 112.777 128.199C113.149 128.185 113.519 128.265 113.851 128.433L113.977 128.495C114.318 128.666 114.61 128.922 114.823 129.238C115.036 129.555 115.164 129.921 115.194 130.301C115.224 130.682 115.155 131.063 114.993 131.409C114.832 131.755 114.584 132.054 114.274 132.275L109.265 135.853C109.129 135.949 108.967 136.001 108.8 136H96.0001C95.788 136 95.5845 135.916 95.4345 135.766C95.2844 135.616 95.2001 135.412 95.2001 135.2ZM96.8001 134.4H108.544L113.344 130.972C113.423 130.915 113.488 130.84 113.532 130.753C113.577 130.667 113.6 130.57 113.6 130.473C113.601 130.359 113.569 130.247 113.509 130.15C113.449 130.053 113.363 129.975 113.261 129.925L113.136 129.862C113.044 129.816 112.942 129.794 112.839 129.797C112.736 129.801 112.636 129.831 112.547 129.885L109.212 131.885C109.091 131.958 108.952 131.997 108.811 131.999C108.669 132.001 108.53 131.965 108.407 131.896C108.283 131.826 108.181 131.725 108.109 131.603C108.038 131.481 108 131.342 108 131.2V120.714C108 120.597 107.975 120.482 107.925 120.376C107.876 120.27 107.804 120.176 107.714 120.101C107.624 120.026 107.519 119.971 107.406 119.941C107.293 119.911 107.175 119.906 107.059 119.926C106.866 119.974 106.694 120.087 106.574 120.246C106.454 120.405 106.393 120.601 106.4 120.8V126.4C106.4 126.612 106.316 126.816 106.166 126.966C106.016 127.116 105.812 127.2 105.6 127.2C105.388 127.2 105.184 127.116 105.034 126.966C104.884 126.816 104.8 126.612 104.8 126.4C104.8 126.188 104.716 125.984 104.566 125.834C104.416 125.684 104.212 125.6 104 125.6C103.788 125.6 103.584 125.684 103.434 125.834C103.284 125.984 103.2 126.188 103.2 126.4C103.2 126.612 103.116 126.816 102.966 126.966C102.816 127.116 102.612 127.2 102.4 127.2C102.188 127.2 101.984 127.116 101.834 126.966C101.684 126.816 101.6 126.612 101.6 126.4C101.6 126.188 101.516 125.984 101.366 125.834C101.216 125.684 101.012 125.6 100.8 125.6C100.588 125.6 100.384 125.684 100.234 125.834C100.084 125.984 100 126.188 100 126.4C100 126.612 99.9159 126.816 99.7658 126.966C99.6158 127.116 99.4123 127.2 99.2001 127.2C98.988 127.2 98.7845 127.116 98.6345 126.966C98.4844 126.816 98.4001 126.612 98.4001 126.4C98.4003 126.283 98.3748 126.167 98.3254 126.061C98.276 125.955 98.2039 125.861 98.1141 125.786C98.0244 125.711 97.9193 125.656 97.8061 125.626C97.693 125.596 97.5746 125.591 97.4593 125.611C97.2658 125.659 97.0947 125.772 96.9746 125.932C96.8546 126.091 96.793 126.286 96.8001 126.486V134.4Z" fill="#101840"/>
<path d="M297.413 201.2L296.354 202.4C295.928 202.025 295.587 201.563 295.354 201.046C295.121 200.528 295 199.968 295 199.4V173.8C295 173.233 295.121 172.672 295.354 172.154C295.587 171.637 295.928 171.175 296.354 170.8L297.413 172C297.157 172.225 296.953 172.502 296.813 172.813C296.673 173.123 296.6 173.46 296.6 173.8V199.4C296.6 199.741 296.673 200.077 296.813 200.388C296.953 200.698 297.157 200.975 297.413 201.2Z" fill="#101840"/>
<path d="M339.8 199.32V199.4C339.799 200.46 339.377 201.477 338.627 202.227C337.877 202.977 336.86 203.399 335.8 203.4H314.2V201.8H335.8C336.437 201.8 337.047 201.547 337.497 201.097C337.947 200.647 338.2 200.037 338.2 199.4H314.2V197.8H339C339.637 197.8 340.247 197.547 340.697 197.097C341.147 196.647 341.4 196.037 341.4 195.4V169C341.4 168.363 341.147 167.753 340.697 167.303C340.247 166.853 339.637 166.6 339 166.6H302.2C301.563 166.6 300.953 166.853 300.503 167.303C300.053 167.753 299.8 168.363 299.8 169V195.4C299.8 196.037 300.053 196.647 300.503 197.097C300.953 197.547 301.563 197.8 302.2 197.8H306.2V199.4H302.2C301.14 199.399 300.123 198.977 299.373 198.227C298.623 197.477 298.201 196.46 298.2 195.4V169C298.201 167.94 298.623 166.923 299.373 166.173C300.123 165.423 301.14 165.001 302.2 165H339C340.06 165.001 341.077 165.423 341.827 166.173C342.577 166.923 342.999 167.94 343 169V195.4C342.999 196.322 342.68 197.215 342.097 197.929C341.514 198.643 340.703 199.134 339.8 199.32Z" fill="#101840"/>
<path d="M337.4 168.2H339V169.8H337.4V168.2Z" fill="#101840"/>
<path d="M334.2 168.2H335.8V169.8H334.2V168.2Z" fill="#101840"/>
<path d="M331 168.2H332.6V169.8H331V168.2Z" fill="#101840"/>
<path d="M326.143 173.743C327.452 172.435 329.174 171.62 331.016 171.439C332.858 171.257 334.706 171.72 336.245 172.748C337.784 173.777 338.918 175.307 339.456 177.078C339.993 178.849 339.899 180.752 339.191 182.462C338.483 184.172 337.203 185.583 335.571 186.456C333.939 187.328 332.055 187.608 330.239 187.246C328.424 186.885 326.79 185.906 325.616 184.475C324.442 183.044 323.8 181.251 323.8 179.4C323.797 178.349 324.003 177.308 324.405 176.337C324.807 175.366 325.398 174.484 326.143 173.743ZM336.326 174.874C335.223 173.772 333.757 173.11 332.201 173.012C330.645 172.914 329.107 173.388 327.875 174.344L332.131 178.6H338.15C337.977 177.189 337.334 175.877 336.326 174.874ZM338.15 180.2H333.731L336.856 183.325C337.563 182.42 338.011 181.34 338.15 180.2ZM331.8 185.8C333.222 185.804 334.604 185.331 335.725 184.456L331.8 180.531L327.875 184.456C328.996 185.331 330.378 185.804 331.8 185.8ZM326.744 183.325L330.669 179.4L326.744 175.475C325.872 176.598 325.399 177.979 325.399 179.4C325.399 180.821 325.872 182.202 326.744 183.325Z" fill="#101840"/>
<path d="M322.2 193C322.2 193.212 322.116 193.416 321.966 193.566C321.816 193.716 321.612 193.8 321.4 193.8H302.2V192.2H320.6V190.294L318.2 189.094L315.358 190.52C315.246 190.574 315.124 190.601 315 190.6C314.788 190.6 314.584 190.516 314.434 190.366L311.8 187.731L309.166 190.366C309.082 190.45 308.981 190.515 308.87 190.555C308.758 190.595 308.639 190.609 308.521 190.596C308.403 190.584 308.289 190.547 308.188 190.486C308.087 190.425 308 190.342 307.934 190.244L305.4 186.44L302.866 190.242L301.534 189.354L304.734 184.554C304.812 184.45 304.912 184.366 305.028 184.308C305.143 184.25 305.271 184.22 305.4 184.22C305.529 184.22 305.657 184.25 305.772 184.308C305.888 184.366 305.988 184.45 306.066 184.554L308.724 188.544L311.234 186.034C311.384 185.884 311.588 185.8 311.8 185.8C312.012 185.8 312.216 185.884 312.366 186.034L315.158 188.826L317.842 187.484C317.953 187.428 318.076 187.4 318.2 187.4C318.324 187.4 318.447 187.428 318.558 187.484L320.6 188.506V185H322.2V193Z" fill="#101840"/>
<path d="M322.2 172.2V180.2C322.2 180.412 322.116 180.616 321.966 180.766C321.816 180.916 321.612 181 321.4 181H302.2V179.4H320.6V177.494L318.2 176.294L315.358 177.72C315.183 177.807 314.983 177.828 314.795 177.777C314.606 177.727 314.442 177.61 314.334 177.448L311.8 173.64L309.266 177.442C309.201 177.541 309.114 177.625 309.013 177.687C308.912 177.749 308.798 177.787 308.68 177.8C308.562 177.813 308.443 177.798 308.331 177.759C308.22 177.719 308.118 177.654 308.035 177.57L305.4 174.931L302.766 177.566L301.634 176.434L304.834 173.234C304.984 173.084 305.188 173 305.4 173C305.612 173 305.816 173.084 305.966 173.234L308.476 175.744L311.134 171.756C311.212 171.652 311.312 171.568 311.428 171.511C311.543 171.453 311.671 171.423 311.8 171.423C311.929 171.423 312.057 171.453 312.172 171.511C312.288 171.568 312.388 171.652 312.466 171.756L315.274 175.969L317.842 174.684C317.953 174.628 318.076 174.6 318.2 174.6C318.324 174.6 318.447 174.628 318.558 174.684L320.6 175.706V172.2H322.2Z" fill="#101840"/>
<path d="M335 189H339V190.6H335V189Z" fill="#101840"/>
<path d="M324.6 189H333.4V190.6H324.6V189Z" fill="#101840"/>
<path d="M331.8 192.2H339V193.8H331.8V192.2Z" fill="#101840"/>
<path d="M324.6 192.2H330.2V193.8H324.6V192.2Z" fill="#101840"/>
<path d="M298.2 212.2V203.486C298.193 202.907 298.389 202.344 298.755 201.896C299.12 201.448 299.632 201.142 300.2 201.033C300.545 200.975 300.898 200.993 301.235 201.086C301.572 201.179 301.885 201.345 302.151 201.571L302.2 201.612C302.64 201.218 303.209 200.999 303.8 200.999C304.391 200.999 304.961 201.218 305.4 201.612C305.726 201.333 306.117 201.143 306.538 201.059C306.958 200.976 307.393 201.002 307.8 201.136V197.8C307.793 197.222 307.989 196.659 308.354 196.21C308.72 195.762 309.232 195.456 309.8 195.347C310.144 195.289 310.497 195.307 310.834 195.399C311.171 195.491 311.483 195.656 311.75 195.881C312.016 196.106 312.23 196.387 312.377 196.704C312.524 197.02 312.6 197.365 312.6 197.714V206.787L314.723 205.513C315.042 205.321 315.405 205.213 315.777 205.199C316.149 205.185 316.519 205.265 316.851 205.433L316.977 205.495C317.318 205.666 317.61 205.922 317.823 206.238C318.036 206.555 318.164 206.921 318.194 207.301C318.224 207.682 318.155 208.063 317.993 208.409C317.832 208.755 317.584 209.054 317.274 209.275L312.265 212.853C312.129 212.949 311.967 213.001 311.8 213H299C298.788 213 298.584 212.916 298.434 212.766C298.284 212.616 298.2 212.412 298.2 212.2ZM299.8 211.4H311.544L316.344 207.972C316.423 207.915 316.488 207.84 316.532 207.753C316.577 207.667 316.6 207.57 316.6 207.473C316.601 207.359 316.569 207.247 316.509 207.15C316.449 207.053 316.363 206.975 316.261 206.925L316.136 206.862C316.044 206.816 315.942 206.794 315.839 206.797C315.736 206.801 315.636 206.831 315.547 206.885L312.212 208.885C312.091 208.958 311.952 208.997 311.811 208.999C311.669 209.001 311.53 208.965 311.407 208.896C311.283 208.826 311.181 208.725 311.109 208.603C311.038 208.481 311 208.342 311 208.2V197.714C311 197.597 310.975 197.482 310.925 197.376C310.876 197.27 310.804 197.176 310.714 197.101C310.624 197.026 310.519 196.971 310.406 196.941C310.293 196.911 310.175 196.906 310.059 196.926C309.866 196.974 309.694 197.087 309.574 197.246C309.454 197.405 309.393 197.601 309.4 197.8V203.4C309.4 203.612 309.316 203.816 309.166 203.966C309.016 204.116 308.812 204.2 308.6 204.2C308.388 204.2 308.184 204.116 308.034 203.966C307.884 203.816 307.8 203.612 307.8 203.4C307.8 203.188 307.716 202.984 307.566 202.834C307.416 202.684 307.212 202.6 307 202.6C306.788 202.6 306.584 202.684 306.434 202.834C306.284 202.984 306.2 203.188 306.2 203.4C306.2 203.612 306.116 203.816 305.966 203.966C305.816 204.116 305.612 204.2 305.4 204.2C305.188 204.2 304.984 204.116 304.834 203.966C304.684 203.816 304.6 203.612 304.6 203.4C304.6 203.188 304.516 202.984 304.366 202.834C304.216 202.684 304.012 202.6 303.8 202.6C303.588 202.6 303.384 202.684 303.234 202.834C303.084 202.984 303 203.188 303 203.4C303 203.612 302.916 203.816 302.766 203.966C302.616 204.116 302.412 204.2 302.2 204.2C301.988 204.2 301.784 204.116 301.634 203.966C301.484 203.816 301.4 203.612 301.4 203.4C301.4 203.283 301.375 203.167 301.325 203.061C301.276 202.955 301.204 202.861 301.114 202.786C301.024 202.711 300.919 202.656 300.806 202.626C300.693 202.596 300.575 202.591 300.459 202.611C300.266 202.659 300.095 202.772 299.975 202.932C299.855 203.091 299.793 203.286 299.8 203.486V211.4Z" fill="#101840"/>
<path d="M188.798 205.151C189.081 205.155 189.362 205.199 189.633 205.281C190.045 204.217 190.769 203.302 191.709 202.657C192.65 202.011 193.764 201.664 194.905 201.661C195.352 201.666 195.794 201.747 196.213 201.902V200.789H186.2C185.621 200.788 185.067 200.558 184.658 200.149C184.249 199.74 184.019 199.186 184.019 198.608V189.884C184.019 189.306 184.249 188.751 184.658 188.342C185.067 187.933 185.621 187.703 186.2 187.703H214.116C214.694 187.703 215.249 187.933 215.658 188.342C216.067 188.751 216.296 189.306 216.297 189.884V198.608C216.296 199.186 216.067 199.74 215.658 200.149C215.249 200.558 214.694 200.788 214.116 200.789H205.81V207.626C206.588 206.649 207.709 206.005 208.944 205.825C210.18 205.645 211.438 205.941 212.463 206.655C213.488 207.369 214.203 208.446 214.462 209.667C214.722 210.889 214.507 212.163 213.86 213.232C213.797 213.337 213.719 213.433 213.629 213.516L208.935 217.853L208.212 218.575C207.768 219.022 207.239 219.377 206.657 219.618C206.074 219.859 205.45 219.983 204.82 219.981H188.798C187.526 219.98 186.306 219.474 185.407 218.574C184.507 217.675 184.001 216.455 184 215.183V209.949C184.001 208.677 184.507 207.457 185.407 206.557C186.306 205.658 187.526 205.152 188.798 205.151ZM213.68 198.172V190.32H186.636V198.172H196.213V197.735C196.213 196.463 196.719 195.242 197.619 194.343C198.519 193.443 199.739 192.937 201.011 192.937C202.284 192.937 203.504 193.443 204.404 194.343C205.304 195.242 205.81 196.463 205.81 197.735V198.172H213.68ZM186.617 215.183C186.618 215.761 186.848 216.316 187.256 216.725C187.665 217.134 188.22 217.363 188.798 217.364H204.82C205.398 217.363 205.952 217.133 206.362 216.725L211.702 211.734C211.966 211.215 212.024 210.616 211.864 210.056C211.703 209.497 211.337 209.019 210.838 208.719C210.339 208.419 209.745 208.32 209.176 208.441C208.607 208.562 208.104 208.894 207.771 209.371C207.702 209.47 207.62 209.558 207.527 209.634L205.9 210.963C205.666 211.153 205.374 211.258 205.072 211.257H204.501C204.154 211.257 203.821 211.119 203.576 210.874C203.33 210.629 203.193 210.296 203.192 209.949V197.735C203.192 197.157 202.963 196.602 202.554 196.193C202.145 195.784 201.59 195.554 201.011 195.554C200.433 195.554 199.878 195.784 199.469 196.193C199.06 196.602 198.831 197.157 198.831 197.735V199.472L198.832 199.48L198.83 199.489V211.694C198.83 212.041 198.693 212.373 198.447 212.619C198.202 212.864 197.869 213.002 197.522 213.002C197.175 213.002 196.842 212.864 196.597 212.619C196.351 212.373 196.213 212.041 196.213 211.694V205.587C196.213 205.24 196.075 204.907 195.829 204.662C195.584 204.417 195.252 204.279 194.905 204.278C194.095 204.279 193.319 204.601 192.747 205.174C192.174 205.746 191.852 206.522 191.851 207.332V211.694C191.851 212.041 191.714 212.373 191.468 212.619C191.223 212.864 190.89 213.002 190.543 213.002C190.196 213.002 189.863 212.864 189.617 212.619C189.372 212.373 189.234 212.041 189.234 211.694V208.204C189.234 208.088 189.188 207.978 189.106 207.896C189.024 207.814 188.914 207.768 188.798 207.768C188.22 207.768 187.665 207.998 187.256 208.407C186.848 208.816 186.618 209.37 186.617 209.949L186.617 215.183Z" fill="#101840"/>
<path d="M221.095 172H229.819C230.397 172.001 230.952 172.23 231.361 172.639C231.77 173.048 231.999 173.603 232 174.181V182.905C231.999 183.483 231.77 184.038 231.361 184.446C230.952 184.855 230.397 185.085 229.819 185.086H221.095C220.517 185.085 219.962 184.855 219.554 184.446C219.145 184.038 218.915 183.483 218.914 182.905V174.181C218.915 173.603 219.145 173.048 219.554 172.639C219.962 172.23 220.517 172.001 221.095 172ZM221.531 182.469H229.383V174.617H221.531V182.469Z" fill="#101840"/>
<path d="M214.116 185.086H186.2C185.621 185.085 185.067 184.855 184.658 184.446C184.249 184.038 184.019 183.483 184.019 182.905V174.181C184.019 173.603 184.249 173.048 184.658 172.639C185.067 172.23 185.621 172.001 186.2 172H214.116C214.694 172.001 215.249 172.23 215.658 172.639C216.067 173.048 216.296 173.603 216.297 174.181V182.905C216.296 183.483 216.067 184.038 215.658 184.446C215.249 184.855 214.694 185.085 214.116 185.086ZM213.68 174.617H186.636V182.469H213.68V174.617Z" fill="#101840"/>
<path d="M221.095 187.703H229.819C230.397 187.703 230.952 187.933 231.361 188.342C231.77 188.751 231.999 189.306 232 189.884V198.608C231.999 199.186 231.77 199.74 231.361 200.149C230.952 200.558 230.397 200.788 229.819 200.789H221.095C220.517 200.788 219.962 200.558 219.554 200.149C219.145 199.74 218.915 199.186 218.914 198.608V189.884C218.915 189.306 219.145 188.751 219.554 188.342C219.962 187.933 220.517 187.703 221.095 187.703ZM221.531 198.172H229.383V190.32H221.531V198.172Z" fill="#101840"/>
<path d="M221.095 203.406H229.819C230.397 203.407 230.952 203.636 231.361 204.045C231.77 204.454 231.999 205.009 232 205.587V214.311C231.999 214.889 231.77 215.444 231.361 215.852C230.952 216.261 230.397 216.491 229.819 216.492H221.095C220.517 216.491 219.962 216.261 219.554 215.852C219.145 215.444 218.915 214.889 218.914 214.311V205.587C218.915 205.009 219.145 204.454 219.554 204.045C219.962 203.636 220.517 203.407 221.095 203.406ZM221.531 213.875H229.383V206.023H221.531V213.875Z" fill="#101840"/>
<path d="M190.562 177.234H202.775C203.122 177.234 203.455 177.372 203.7 177.618C203.946 177.863 204.084 178.196 204.084 178.543C204.084 178.89 203.946 179.223 203.7 179.468C203.455 179.714 203.122 179.852 202.775 179.852H190.562C190.215 179.852 189.882 179.714 189.636 179.468C189.391 179.223 189.253 178.89 189.253 178.543C189.253 178.196 189.391 177.863 189.636 177.618C189.882 177.372 190.215 177.234 190.562 177.234Z" fill="#101840"/>
<path d="M208.882 181.16C207.436 181.16 206.265 179.988 206.265 178.543C206.265 177.098 207.436 175.926 208.882 175.926C210.327 175.926 211.499 177.098 211.499 178.543C211.499 179.988 210.327 181.16 208.882 181.16Z" fill="#101840"/>
<path d="M194.051 195.554H190.562C190.215 195.554 189.882 195.417 189.636 195.171C189.391 194.926 189.253 194.593 189.253 194.246C189.253 193.899 189.391 193.566 189.636 193.321C189.882 193.075 190.215 192.937 190.562 192.937H194.051C194.398 192.937 194.731 193.075 194.976 193.321C195.222 193.566 195.36 193.899 195.36 194.246C195.36 194.593 195.222 194.926 194.976 195.171C194.731 195.417 194.398 195.554 194.051 195.554Z" fill="#101840"/>
<path d="M208.882 196.863C207.436 196.863 206.265 195.691 206.265 194.246C206.265 192.8 207.436 191.629 208.882 191.629C210.327 191.629 211.499 192.8 211.499 194.246C211.499 195.691 210.327 196.863 208.882 196.863Z" fill="#101840"/>
<path d="M89.2862 250.62H93.5756V224.254C93.5756 223.913 93.7111 223.586 93.9523 223.344C94.1935 223.103 94.5206 222.968 94.8617 222.968H98.3923V219.752C98.3899 218.325 98.9222 216.948 99.8842 215.894L111.254 203.431C111.368 203.304 111.505 203.201 111.658 203.127C111.812 203.054 111.978 203.011 112.148 203.002C112.318 202.993 112.488 203.017 112.649 203.073C112.809 203.13 112.957 203.217 113.084 203.331C113.21 203.445 113.313 203.582 113.387 203.735C113.46 203.889 113.503 204.055 113.512 204.225C113.522 204.395 113.497 204.565 113.441 204.726C113.384 204.886 113.297 205.034 113.183 205.161L101.788 217.662C101.265 218.233 100.972 218.978 100.965 219.752V222.968H118.283L119.453 220.653C119.526 220.496 119.63 220.357 119.757 220.241C119.885 220.126 120.035 220.037 120.198 219.981C120.36 219.924 120.533 219.901 120.705 219.913C120.877 219.924 121.044 219.97 121.198 220.048C121.352 220.125 121.489 220.233 121.6 220.364C121.711 220.495 121.795 220.648 121.847 220.812C121.898 220.977 121.916 221.15 121.899 221.321C121.882 221.492 121.831 221.659 121.749 221.81L114.527 236.138C114.241 236.707 114.134 237.349 114.22 237.98C114.306 238.611 114.582 239.201 115.01 239.673C115.438 240.144 115.999 240.475 116.619 240.621C117.239 240.767 117.889 240.722 118.482 240.492L118.695 240.408C119.359 240.145 119.914 239.664 120.27 239.045L125.068 230.845C125.243 230.545 125.445 230.26 125.672 229.997L131.402 223.328C132.222 222.373 132.677 221.159 132.688 219.9L132.804 204.563C132.804 204.221 132.939 203.894 133.181 203.653C133.422 203.412 133.749 203.276 134.09 203.276C134.431 203.276 134.758 203.412 134.999 203.653C135.241 203.894 135.376 204.221 135.376 204.563L135.26 219.9C135.239 221.771 134.555 223.573 133.331 224.987L130.244 228.582C130.25 228.65 130.25 228.719 130.244 228.788V250.62H134.714C135.055 250.62 135.382 250.756 135.623 250.997C135.864 251.238 136 251.565 136 251.907C136 252.248 135.864 252.575 135.623 252.816C135.382 253.057 135.055 253.193 134.714 253.193H89.2862C88.9451 253.193 88.6179 253.057 88.3767 252.816C88.1355 252.575 88 252.248 88 251.907C88 251.565 88.1355 251.238 88.3767 250.997C88.6179 250.756 88.9451 250.62 89.2862 250.62ZM127.717 231.566L127.627 231.669C127.502 231.812 127.39 231.967 127.293 232.132L122.495 240.331C121.842 241.447 120.832 242.311 119.627 242.781L119.415 242.865C118.748 243.123 118.04 243.256 117.325 243.257C116.349 243.253 115.389 243 114.539 242.521C113.688 242.042 112.973 241.354 112.463 240.522C111.953 239.689 111.664 238.741 111.623 237.765C111.583 236.79 111.792 235.82 112.232 234.948L116.99 225.54H96.1479V250.62H127.717V231.566Z" fill="#101840"/>
<path fill-rule="evenodd" clip-rule="evenodd" d="M27.13 41.2444C27.9547 41.2444 27.9547 42.4957 27.13 42.4957H10.4368C9.61209 42.4957 9.61209 41.2444 10.4368 41.2444H27.13ZM11.2757 32.8267H14.6172V36.1682H11.2757V32.8267ZM21.5703 32.8267H24.9118V36.1682H21.5703V32.8267ZM31.8791 32.8267H35.2206V36.1682H31.8791V32.8267ZM11.2757 23.2999H14.6172V26.6414H11.2757V23.2999ZM21.5703 23.2999H24.9118V26.6414H21.5703V23.2999ZM31.8791 23.2999H35.2206V26.6414H31.8791V23.2999ZM51.0607 15.3373H6.55499V11.2137C6.55499 10.0904 7.46501 9.1804 8.58831 9.1804H13.2379C13.2379 10.062 13.1526 10.8014 13.8778 11.4981C14.2759 11.8962 14.8163 12.138 15.3992 12.138H18.5417C19.1246 12.138 19.6934 11.8962 20.0773 11.4981C20.7883 10.7872 20.7172 10.0762 20.7172 9.1804H25.0682C25.0682 10.062 24.9829 10.8014 25.7081 11.4981C26.092 11.8962 26.6323 12.138 27.2295 12.138H30.3719C30.9549 12.138 31.5237 11.8962 31.8934 11.4981C32.6043 10.7872 32.5332 10.0762 32.5332 9.1804H36.8842C36.8842 10.062 36.8132 10.8725 37.5668 11.555C37.9507 11.9247 38.4768 12.138 39.0455 12.138H42.188C42.7709 12.138 43.3397 11.8962 43.7094 11.4981C44.4204 10.7872 44.3493 10.0762 44.3493 9.1804H48.9989C50.1222 9.1804 51.0322 10.0904 51.0322 11.2137V15.3373H51.0607ZM49.2264 30.6085L46.8234 32.002C45.8849 32.5423 46.7096 33.9784 47.6481 33.4381L50.0511 32.0447C51.8 33.6372 54.6154 32.3859 54.6154 30.0255C54.6154 27.6083 51.6721 26.3855 49.9658 28.106C49.3117 28.7458 49.0273 29.6843 49.2264 30.6085ZM51.1317 29.2719C51.8 28.6036 52.9518 29.0729 52.9518 30.0255C52.9518 30.964 51.8 31.4475 51.1317 30.7792C50.7194 30.3526 50.7194 29.6843 51.1317 29.2719ZM43.1691 29.2008C42.0742 29.2008 42.0742 30.8645 43.1691 30.8645H44.2071C45.3019 30.8645 45.3019 29.2008 44.2071 29.2008H43.1691ZM52.7101 21.3093C52.7101 20.2144 51.0464 20.2144 51.0464 21.3093V22.3473C51.0464 23.4421 52.7101 23.4421 52.7101 22.3473V21.3093ZM60.6016 30.8503C61.6965 30.8503 61.6965 29.1866 60.6016 29.1866H59.5637C58.4688 29.1866 58.4688 30.8503 59.5637 30.8503H60.6016ZM51.0607 38.7418C51.0607 39.8367 52.7243 39.8367 52.7243 38.7418V37.7038C52.7243 36.609 51.0607 36.609 51.0607 37.7038V38.7418ZM52.7101 42.1118C59.0375 41.6852 64 36.4099 64 30.0255C64 23.6412 59.0375 18.3659 52.7101 17.9393V11.2137C52.7101 9.1804 51.0464 7.51677 49.0131 7.51677H44.3777C44.3777 6.77738 44.3066 6.23706 43.7378 5.6683C43.3539 5.28438 42.7994 5.02844 42.2022 5.02844H39.0598C37.8654 5.02844 36.8985 6.00955 36.8985 7.18974V7.50255H32.5474C32.5474 6.76316 32.4763 6.22284 31.9076 5.65408C31.5094 5.27016 30.9691 5.01422 30.3719 5.01422H27.2295C26.0351 5.01422 25.054 5.99533 25.054 7.17552V7.48834H20.703C20.703 6.74894 20.6319 6.20862 20.0631 5.63986C19.6792 5.25594 19.1246 5 18.5274 5H15.385C14.1906 5 13.2237 5.98112 13.2237 7.1613V7.47412H8.5741C6.54077 7.47412 4.87714 9.13775 4.87714 11.1711V43.5479H4.27994C1.91958 43.5479 9.33688e-07 45.4674 9.33688e-07 47.8278V51.283C9.33688e-07 51.7381 0.369699 52.1078 0.824709 52.1078H56.7625C57.2175 52.1078 57.5872 51.7381 57.5872 51.283V47.8278C57.5872 45.4674 55.6676 43.5479 53.3073 43.5479H52.7101V42.1118ZM44.4914 22.6316C48.5723 18.5508 55.1984 18.5508 59.2793 22.6316C63.3601 26.7125 63.3601 33.3386 59.2793 37.4195C55.1984 41.5003 48.5723 41.5003 44.4914 37.4195C40.4106 33.3386 40.4106 26.7125 44.4914 22.6316ZM39.0598 6.69207H42.2022C42.4866 6.69207 42.6998 6.91957 42.6998 7.18974V9.96245C42.6998 10.1046 42.643 10.2326 42.5577 10.3179C42.4581 10.4175 42.3444 10.4601 42.2022 10.4601H39.0598C38.7754 10.4601 38.5621 10.2326 38.5621 9.94823V7.18974C38.5479 6.91957 38.7754 6.69207 39.0598 6.69207ZM15.3992 6.69207H18.5417C18.826 6.69207 19.0393 6.91957 19.0393 7.18974V9.96245C19.0393 10.1046 18.9824 10.2326 18.8971 10.3179C18.7976 10.4175 18.6838 10.4601 18.5417 10.4601H15.3992C15.1149 10.4601 14.9016 10.2326 14.9016 9.94823V7.18974C14.9016 6.91957 15.1149 6.69207 15.3992 6.69207ZM27.2295 6.69207H30.3719C30.6421 6.69207 30.8696 6.91957 30.8696 7.18974V9.96245C30.8696 10.1046 30.8127 10.2326 30.7274 10.3179C30.6421 10.4175 30.5141 10.4601 30.3719 10.4601H27.2295C26.9451 10.4601 26.7318 10.2326 26.7318 9.94823V7.18974C26.7318 6.91957 26.9593 6.69207 27.2295 6.69207ZM4.9198 45.2542C5.1473 47.0742 6.7114 48.4819 8.5741 48.4819H49.0273C50.89 48.4819 52.4541 47.0884 52.6958 45.2542C53.6485 45.2542 54.3879 45.2399 55.17 46.022C55.6392 46.4912 55.9378 47.1453 55.9378 47.8705V50.4868H1.67785V47.8705C1.67785 46.4343 2.85803 45.2542 4.29416 45.2542H4.9198Z" fill="#101840"/>
<path d="M0.201888 137.237L6.99895 122.498C7.20084 122.027 7.67192 121.758 8.2103 121.758H15.613V124.383H9.01788L3.43217 136.496H60.6351L55.0494 124.383H48.4543V121.758H55.857C56.3954 121.758 56.7992 122.027 57.0683 122.498L63.8654 137.237C63.9327 137.371 64 137.573 64 137.775V148.273C64 149.014 63.3943 149.619 62.654 149.619H1.34595C0.605677 149.619 -1.18445e-06 149.014 -1.18445e-06 148.273V137.775C0.0672964 137.573 0.134591 137.371 0.201888 137.237Z" fill="#101840"/>
<path d="M32.101 115.97C31.6299 116.576 31.3607 117.249 31.2261 117.989C30.9569 119.47 31.3607 120.883 32.3702 122.027C33.0431 122.768 33.9853 123.171 34.9275 123.171C35.4658 123.171 35.9369 123.037 36.408 122.835C39.0999 121.556 42.8686 119.739 46.0989 117.989V129.093H49.2619C49.9348 129.093 50.5405 129.565 50.6078 130.17C50.7424 130.978 50.1367 131.718 49.3292 131.718H14.7382C14.0652 131.718 13.4595 131.247 13.3922 130.641C13.2576 129.834 13.8633 129.093 14.6709 129.093H17.9012V116.643C17.9012 116.24 18.1704 115.97 18.5742 115.97H32.101Z" fill="#101840"/>
<path d="M50.8769 112.404C48.5888 114.49 38.4269 119.335 35.4658 120.749C34.9947 120.951 34.4563 120.816 34.0525 120.479C33.5814 120.008 33.3795 119.403 33.3795 118.864C33.3795 117.989 33.8506 117.115 34.7255 116.711C37.7539 115.163 41.6571 112.875 40.8496 111.125C40.1766 109.779 37.2155 110.048 30.2166 113.682H22.0062C24.9 110.789 32.0336 103.79 34.5236 102.713C37.2828 101.502 43.4742 102.578 45.5604 102.242C47.1082 101.973 49.3291 99.6172 51.0788 98.2713C51.5499 97.8675 52.2902 97.9348 52.7612 98.3386L58.5488 103.79C59.0872 104.328 59.0872 105.203 58.4815 105.674C56.4626 107.356 53.3669 110.116 50.8769 112.404Z" fill="#101840"/>
<path d="M284.99 93H285.99V95H284.99C284.194 95 283.431 95.3161 282.869 95.8787C282.306 96.4413 281.99 97.2044 281.99 98V125H284V127H281.99V129C281.992 129.528 282.132 130.046 282.397 130.502C282.662 130.958 283.043 131.337 283.5 131.6L282.5 133.334C281.739 132.895 281.106 132.263 280.665 131.503C280.225 130.742 279.992 129.879 279.99 129V98C279.992 96.6744 280.519 95.4036 281.456 94.4662C282.394 93.5289 283.664 93.0016 284.99 93Z" fill="#101840"/>
<path d="M339.99 129C339.988 130.326 339.461 131.596 338.524 132.534C337.586 133.471 336.316 133.998 334.99 134H316.418L319.691 143H322.991V145H296.991V143H300.291L301.506 139.658L303.386 140.342L302.418 143H317.563L314.05 133.342C313.995 133.191 313.977 133.029 313.998 132.869C314.019 132.71 314.078 132.558 314.171 132.426C314.263 132.295 314.386 132.187 314.528 132.113C314.671 132.039 314.829 132 314.99 132H334.99C335.786 132 336.549 131.684 337.111 131.121C337.674 130.559 337.99 129.796 337.99 129L338 127H318.99V125H338L337.99 98C337.99 97.2044 337.674 96.4413 337.111 95.8787C336.549 95.3161 335.786 95 334.99 95H333.99V93H334.99C336.316 93.0016 337.586 93.5289 338.524 94.4662C339.461 95.4036 339.988 96.6744 339.99 98L340 126L339.99 129Z" fill="#101840"/>
<path d="M287.99 108V90C287.992 88.6744 288.519 87.4036 289.456 86.4662C290.394 85.5289 291.664 85.0016 292.99 85H326.99C328.316 85.0016 329.586 85.5289 330.524 86.4662C331.461 87.4036 331.988 88.6744 331.99 90V123H329.99V90C329.99 89.2044 329.674 88.4413 329.111 87.8787C328.549 87.3161 327.786 87 326.99 87H292.99C292.194 87 291.431 87.3161 290.869 87.8787C290.306 88.4413 289.99 89.2044 289.99 90V108H287.99Z" fill="#101840"/>
<path d="M324.99 89H326.99V91H324.99V89Z" fill="#101840"/>
<path d="M320.99 89H322.99V91H320.99V89Z" fill="#101840"/>
<path d="M316.99 89H318.99V91H316.99V89Z" fill="#101840"/>
<path d="M318.99 117V109C318.99 108.735 319.095 108.48 319.283 108.293C319.47 108.105 319.725 108 319.99 108H323.99C324.255 108 324.51 108.105 324.697 108.293C324.885 108.48 324.99 108.735 324.99 109V116H326.99V118H318.99V117ZM320.99 116H322.99V110H320.99V116Z" fill="#101840"/>
<path d="M310.99 107V102C310.99 101.735 311.095 101.48 311.283 101.293C311.47 101.105 311.725 101 311.99 101H315.99C316.255 101 316.51 101.105 316.697 101.293C316.885 101.48 316.99 101.735 316.99 102V111H314.99V103H312.99V107H310.99Z" fill="#101840"/>
<path d="M302.99 104V101C302.99 100.735 303.095 100.48 303.283 100.293C303.47 100.105 303.725 100 303.99 100H307.99C308.255 100 308.51 100.105 308.697 100.293C308.885 100.48 308.99 100.735 308.99 101V105H306.99V102H304.99V104H302.99Z" fill="#101840"/>
<path d="M294.99 104V98C294.99 97.7348 295.095 97.4804 295.283 97.2929C295.47 97.1054 295.725 97 295.99 97H299.99C300.255 97 300.51 97.1054 300.697 97.2929C300.885 97.4804 300.99 97.7348 300.99 98V104H298.99V99H296.99V104H294.99Z" fill="#101840"/>
<path d="M288.116 131.46C285.79 128.3 284.701 124.397 285.056 120.489C285.41 116.581 287.183 112.938 290.04 110.248C292.897 107.558 296.64 106.007 300.562 105.888C304.485 105.768 308.315 107.089 311.33 109.601C314.345 112.113 316.336 115.641 316.927 119.521C317.518 123.4 316.669 127.361 314.539 130.657C312.409 133.953 309.146 136.355 305.366 137.409C301.587 138.464 297.551 138.098 294.023 136.381L286.523 143.881C285.804 144.595 284.833 144.997 283.82 145C282.805 144.999 281.831 144.595 281.113 143.877C280.395 143.159 279.991 142.186 279.99 141.17C279.993 140.155 280.397 139.182 281.113 138.463L288.116 131.46ZM300.99 136C303.759 136 306.466 135.179 308.768 133.641C311.07 132.102 312.865 129.916 313.924 127.358C314.984 124.8 315.261 121.985 314.721 119.269C314.181 116.553 312.847 114.059 310.889 112.101C308.932 110.143 306.437 108.809 303.721 108.269C301.006 107.729 298.191 108.006 295.632 109.066C293.074 110.125 290.888 111.92 289.349 114.222C287.811 116.524 286.99 119.231 286.99 122C286.994 125.712 288.47 129.271 291.095 131.895C293.72 134.52 297.278 135.996 300.99 136ZM282.526 142.463C282.875 142.794 283.338 142.979 283.819 142.979C284.301 142.979 284.764 142.794 285.113 142.463L292.213 135.363C291.188 134.685 290.244 133.893 289.4 133L282.524 139.876C282.182 140.22 281.989 140.684 281.987 141.169C281.987 141.41 282.035 141.648 282.127 141.87C282.22 142.092 282.355 142.294 282.526 142.463Z" fill="#101840"/>
<path d="M300.99 110C303.363 110 305.683 110.704 307.657 112.022C309.63 113.341 311.168 115.215 312.077 117.408C312.985 119.601 313.222 122.013 312.759 124.341C312.296 126.669 311.153 128.807 309.475 130.485C307.797 132.164 305.659 133.306 303.331 133.769C301.003 134.232 298.59 133.995 296.398 133.087C294.205 132.178 292.331 130.64 291.012 128.667C289.694 126.693 288.99 124.373 288.99 122C288.993 118.818 290.259 115.768 292.509 113.519C294.758 111.269 297.808 110.003 300.99 110ZM300.99 132C302.968 132 304.901 131.414 306.546 130.315C308.19 129.216 309.472 127.654 310.229 125.827C310.986 124 311.184 121.989 310.798 120.049C310.412 118.109 309.46 116.327 308.061 114.929C306.663 113.53 304.881 112.578 302.941 112.192C301.001 111.806 298.99 112.004 297.163 112.761C295.336 113.518 293.774 114.8 292.675 116.444C291.576 118.089 290.99 120.022 290.99 122C290.993 124.651 292.047 127.193 293.922 129.068C295.797 130.943 298.339 131.997 300.99 132Z" fill="#101840"/>
<path d="M302.7 116.249C302.145 116.084 301.569 116 300.99 116V114C301.764 113.999 302.533 114.111 303.275 114.331L302.7 116.249Z" fill="#101840"/>
<path d="M308.99 122H306.99C306.99 121.033 306.755 120.08 306.308 119.222C305.86 118.365 305.212 117.628 304.418 117.075L305.562 115.435C306.62 116.173 307.484 117.154 308.081 118.297C308.677 119.44 308.989 120.711 308.99 122Z" fill="#101840"/>
<path d="M322.99 120H326.99V122H322.99V120Z" fill="#101840"/>
<path d="M318.99 120H320.99V122H318.99V120Z" fill="#101840"/>
<path d="M292.99 93H326.99V95H292.99V93Z" fill="#101840"/>
<path d="M322.99 97H326.99V99H322.99V97Z" fill="#101840"/>
<path d="M294.752 23.0191V19.7503C294.752 19.2271 295.174 18.8047 295.698 18.8047C296.221 18.8047 296.643 19.2271 296.643 19.7503V23.0191C296.643 23.5423 296.221 23.9647 295.698 23.9647C295.174 23.9647 294.752 23.5375 294.752 23.0191Z" fill="#101840"/>
<path d="M304.189 25.3856C304.016 25.688 303.694 25.8608 303.368 25.8608C303.21 25.8608 303.046 25.8224 302.898 25.736C302.446 25.4768 302.293 24.896 302.552 24.4448L303.91 22.0928C304.17 21.6416 304.746 21.4832 305.202 21.7472C305.653 22.0064 305.806 22.5872 305.547 23.0384L304.189 25.3856Z" fill="#101840"/>
<path d="M308.59 29.5665L310.942 28.2081C311.394 27.9441 311.974 28.1025 312.234 28.5537C312.493 29.0049 312.339 29.5857 311.888 29.8449L309.536 31.2033C309.387 31.2897 309.224 31.3281 309.066 31.3281C308.739 31.3281 308.422 31.1601 308.245 30.8529C307.986 30.4065 308.139 29.8257 308.59 29.5665Z" fill="#101840"/>
<path d="M310.314 37.9761C310.314 37.4529 310.736 37.0305 311.259 37.0305H313.976C314.499 37.0305 314.922 37.4529 314.922 37.9761C314.922 38.4993 314.499 38.9217 313.976 38.9217H311.259C310.736 38.9217 310.314 38.4945 310.314 37.9761Z" fill="#101840"/>
<path d="M309.838 44.8256L312.19 46.184C312.642 46.4432 312.795 47.024 312.536 47.4752C312.363 47.7776 312.042 47.9504 311.715 47.9504C311.557 47.9504 311.394 47.912 311.245 47.8256L308.893 46.4672C308.442 46.208 308.288 45.6272 308.547 45.176C308.811 44.72 309.387 44.5616 309.838 44.8256Z" fill="#101840"/>
<path d="M303.421 50.5233C303.877 50.2593 304.453 50.4177 304.712 50.8689L306.07 53.2209C306.33 53.6721 306.176 54.2529 305.725 54.5121C305.576 54.5985 305.413 54.6369 305.254 54.6369C304.928 54.6369 304.611 54.4689 304.434 54.1617L303.075 51.8097C302.811 51.3633 302.97 50.7825 303.421 50.5233Z" fill="#101840"/>
<path d="M296.302 52.592C296.826 52.592 297.248 53.0144 297.248 53.5376V56.2544C297.248 56.7776 296.826 57.2 296.302 57.2C295.779 57.2 295.357 56.7776 295.357 56.2544V53.5376C295.357 53.0144 295.779 52.592 296.302 52.592Z" fill="#101840"/>
<path d="M287.811 51.1711C288.07 50.7199 288.646 50.5615 289.102 50.8255C289.554 51.0847 289.707 51.6655 289.448 52.1167L288.09 54.4687C287.917 54.7711 287.595 54.9439 287.269 54.9439C287.11 54.9439 286.947 54.9055 286.798 54.8191C286.347 54.5599 286.194 53.9791 286.453 53.5279L287.811 51.1711Z" fill="#101840"/>
<path d="M280.112 46.7071L282.464 45.3487C282.915 45.0847 283.496 45.2431 283.755 45.6943C284.014 46.1455 283.861 46.7263 283.41 46.9855L281.058 48.3439C280.909 48.4303 280.746 48.4687 280.587 48.4687C280.261 48.4687 279.944 48.3007 279.766 47.9935C279.502 47.5471 279.656 46.9711 280.112 46.7071Z" fill="#101840"/>
<path d="M278.024 37.6353H280.741C281.264 37.6353 281.686 38.0577 281.686 38.5809C281.686 39.1041 281.264 39.5265 280.741 39.5265H278.024C277.501 39.5265 277.078 39.1041 277.078 38.5809C277.078 38.0577 277.501 37.6353 278.024 37.6353Z" fill="#101840"/>
<path d="M282.632 31.8559C282.474 31.8559 282.31 31.8175 282.162 31.7311L279.81 30.3727C279.358 30.1135 279.205 29.5327 279.464 29.0815C279.723 28.6303 280.299 28.4719 280.755 28.7359L283.107 30.0943C283.558 30.3535 283.712 30.9343 283.453 31.3855C283.275 31.6879 282.958 31.8559 282.632 31.8559Z" fill="#101840"/>
<path d="M288.109 26.1583C287.782 26.1583 287.466 25.9903 287.288 25.6831L285.93 23.3311C285.67 22.8799 285.824 22.2991 286.275 22.0399C286.726 21.7759 287.307 21.9343 287.566 22.3855L288.925 24.7375C289.184 25.1887 289.03 25.7695 288.579 26.0287C288.43 26.1199 288.267 26.1583 288.109 26.1583Z" fill="#101840"/>
<path d="M297.752 38.5039L298.861 39.4255C299.25 39.7663 299.317 40.3567 298.976 40.7599C298.789 40.9855 298.52 41.1007 298.256 41.1007C298.04 41.1007 297.829 41.0239 297.651 40.8847L295.861 39.3823L297.752 38.5039Z" fill="#101840"/>
<path d="M286.366 29.0095L296.149 37.1647L305.206 32.9263C305.682 32.7055 306.243 32.9119 306.464 33.3823C306.685 33.8575 306.483 34.4191 306.008 34.6399L292.952 40.7455C292.822 40.8079 292.688 40.8319 292.554 40.8319C292.198 40.8319 291.858 40.6303 291.694 40.2847C291.474 39.8095 291.675 39.2479 292.15 39.0271L294.258 38.0383L285.152 30.4591C284.749 30.1327 284.696 29.5279 285.027 29.1343C285.368 28.7311 285.963 28.6783 286.366 29.0095Z" fill="#101840"/>
<path d="M6.75198 224.493L11.3408 223.014C11.7312 221.376 12.3136 219.802 13.0752 218.317L10.656 213.626C10.5536 213.427 10.5984 213.197 10.7456 213.043L16.0384 207.744C16.192 207.59 16.4288 207.565 16.6208 207.654L20.9152 209.862C22.2976 208.998 23.8336 208.288 25.4656 207.757L27.0848 202.758C27.1424 202.547 27.3472 202.406 27.5584 202.406H35.0464C35.2576 202.406 35.456 202.547 35.52 202.758L36.9984 207.328C38.6368 207.718 40.2112 208.314 41.696 209.062L46.3872 206.662C46.5856 206.56 46.816 206.605 46.9696 206.752L52.2624 212.045C52.4224 212.205 52.4608 212.435 52.3648 212.627L50.1568 216.902C51.0208 218.31 51.7312 219.834 52.2624 221.453L57.2608 223.072C57.4592 223.136 57.6 223.328 57.6 223.546V231.027C57.6 231.251 57.4592 231.437 57.248 231.507L52.6784 232.973C52.288 234.611 51.7056 236.186 50.944 237.67L53.344 242.368C53.4464 242.56 53.4016 242.797 53.2544 242.95L47.9616 248.243C47.8016 248.397 47.5712 248.435 47.3792 248.333L43.104 246.144C41.696 247.008 40.1728 247.712 38.5472 248.23L36.9408 253.242C36.8704 253.453 36.6784 253.594 36.4608 253.594H28.9792C28.7552 253.594 28.5696 253.453 28.4992 253.242L27.0336 248.672C25.3952 248.269 23.8208 247.686 22.336 246.925L17.6384 249.331C17.4464 249.434 17.2096 249.389 17.056 249.229L11.7632 243.936C11.6096 243.782 11.5712 243.546 11.6736 243.354L13.8624 239.078C12.9984 237.651 12.2944 236.128 11.7824 234.528L6.75198 232.909C6.54078 232.864 6.39998 232.666 6.39998 232.454V224.966C6.39998 224.742 6.54078 224.55 6.75198 224.493ZM32 243.418C40.5056 243.418 47.4112 236.499 47.4112 228C47.4112 219.507 40.5056 212.589 32 212.589C23.4944 212.589 16.5888 219.507 16.5888 228C16.5888 236.499 23.4944 243.418 32 243.418Z" fill="#101840"/>
<path d="M21.8496 221.92L19.9744 220.838C19.8336 220.749 19.6608 220.755 19.52 220.826C20.7168 218.758 22.3936 217.018 24.4096 215.763C24.3584 215.904 24.3584 216.051 24.4416 216.192L25.5232 218.061C25.6128 218.221 25.7856 218.31 25.952 218.31C26.0416 218.31 26.1248 218.291 26.2016 218.253C26.4448 218.112 26.5216 217.798 26.3936 217.562L25.312 215.693C25.2224 215.539 25.0816 215.469 24.928 215.45C26.8736 214.342 29.1136 213.69 31.4944 213.6V216.058C31.4944 216.339 31.7184 216.557 31.9936 216.557C32.2688 216.557 32.4928 216.333 32.4928 216.058V213.6C34.7904 213.683 36.9472 214.285 38.8608 215.315C38.8224 215.354 38.7776 215.398 38.752 215.443L37.6704 217.312C37.5296 217.555 37.6128 217.862 37.8496 218.003C37.9328 218.042 38.0224 218.061 38.0992 218.061C38.272 218.061 38.4384 217.971 38.528 217.811L39.6096 215.942C39.6416 215.891 39.648 215.853 39.6608 215.802C41.5104 216.979 43.072 218.554 44.2304 220.422L42.3808 221.485C42.1376 221.626 42.0608 221.939 42.2016 222.17C42.2912 222.33 42.464 222.419 42.6304 222.419C42.7136 222.419 42.8032 222.4 42.88 222.362L44.736 221.286C45.7088 223.142 46.2912 225.242 46.3744 227.462H44.3776C44.096 227.462 43.8784 227.693 43.8784 227.962C43.8784 228.243 44.1024 228.461 44.3776 228.461H46.3744C46.304 230.669 45.7408 232.749 44.7808 234.592L43.1232 233.626C42.88 233.485 42.5728 233.568 42.4384 233.805C42.2976 234.048 42.3808 234.355 42.6176 234.496L44.2752 235.45C43.168 237.267 41.6768 238.835 39.8976 240L38.944 238.342C38.8032 238.099 38.5024 238.022 38.2592 238.163C38.016 238.304 37.9392 238.605 38.08 238.848L39.0464 240.525C37.2288 241.562 35.1744 242.189 32.9728 242.342V240.346C32.9728 240.077 32.7488 239.846 32.4736 239.846C32.192 239.846 31.9744 240.077 31.9744 240.346V242.394C29.7344 242.381 27.6288 241.862 25.7408 240.941L26.8032 239.091C26.944 238.848 26.8608 238.547 26.624 238.406C26.3808 238.266 26.0736 238.349 25.9328 238.586L24.8576 240.461C24.8576 240.461 24.8576 240.474 24.8448 240.474C22.9376 239.379 21.2928 237.862 20.0576 236.038C20.1088 236.026 20.1664 236.026 20.2112 236L22.0864 234.918C22.3296 234.778 22.4064 234.477 22.2656 234.234C22.1376 233.99 21.824 233.914 21.5808 234.054L19.7056 235.13C19.6544 235.168 19.616 235.213 19.5776 235.251C18.4512 233.357 17.7728 231.174 17.632 228.845C17.7152 228.902 17.8112 228.947 17.9328 228.947H20.096C20.3776 228.947 20.5952 228.723 20.5952 228.448C20.5952 228.179 20.3712 227.949 20.096 227.949H17.9392C17.8112 227.949 17.6896 228 17.6 228.09V227.987C17.6 225.587 18.1952 223.322 19.2448 221.318C19.264 221.472 19.3344 221.606 19.4752 221.69L21.3504 222.771C21.4336 222.822 21.5232 222.842 21.6 222.842C21.7728 222.842 21.9392 222.752 22.0288 222.592C22.1696 222.362 22.0928 222.054 21.8496 221.92ZM23.7696 221.798L31.3216 228.096L29.2864 229.05C29.0368 229.171 28.928 229.459 29.0432 229.715C29.1264 229.907 29.312 230.003 29.4976 230.003C29.568 230.003 29.6512 229.99 29.7088 229.965L32.1664 228.813L33.7216 230.106C33.8112 230.176 33.92 230.214 34.0416 230.214C34.1824 230.214 34.3232 230.157 34.4256 230.035C34.6048 229.824 34.5792 229.504 34.368 229.331L33.1712 228.339L40.1088 225.094C40.3584 224.986 40.4672 224.685 40.352 224.429C40.2368 224.173 39.9296 224.07 39.68 224.186L32.3328 227.616L24.4224 221.03C24.2112 220.851 23.8912 220.877 23.7184 221.088C23.5264 221.312 23.5584 221.632 23.7696 221.798Z" fill="#101840"/>
<path d="M187.752 28.4929L192.341 27.0145C192.731 25.3761 193.314 23.8017 194.075 22.3169L191.656 17.6257C191.554 17.4273 191.598 17.1969 191.746 17.0433L197.038 11.7441C197.192 11.5905 197.429 11.5649 197.621 11.6545L201.915 13.8625C203.298 12.9985 204.834 12.2881 206.466 11.7569L208.085 6.75849C208.142 6.54729 208.347 6.40649 208.558 6.40649H216.046C216.258 6.40649 216.456 6.54729 216.52 6.75849L217.998 11.3281C219.637 11.7185 221.211 12.3137 222.696 13.0625L227.387 10.6625C227.586 10.5601 227.816 10.6049 227.97 10.7521L233.262 16.0449C233.422 16.2049 233.461 16.4353 233.365 16.6273L231.157 20.9025C232.021 22.3105 232.731 23.8337 233.262 25.4529L238.261 27.0721C238.459 27.1361 238.6 27.3281 238.6 27.5457V35.0273C238.6 35.2513 238.459 35.4369 238.248 35.5073L233.678 36.9729C233.288 38.6113 232.706 40.1857 231.944 41.6705L234.344 46.3681C234.446 46.5601 234.402 46.7969 234.254 46.9505L228.962 52.2433C228.802 52.3969 228.571 52.4353 228.379 52.3329L224.104 50.1441C222.696 51.0081 221.173 51.7121 219.547 52.2305L217.941 57.2417C217.87 57.4529 217.678 57.5937 217.461 57.5937H209.979C209.755 57.5937 209.57 57.4529 209.499 57.2417L208.034 52.6721C206.395 52.2689 204.821 51.6865 203.336 50.9249L198.638 53.3313C198.446 53.4337 198.21 53.3889 198.056 53.2289L192.763 47.9361C192.61 47.7825 192.571 47.5457 192.674 47.3537L194.862 43.0785C193.998 41.6513 193.294 40.1281 192.782 38.5281L187.752 36.9089C187.541 36.8641 187.4 36.6657 187.4 36.4545V28.9665C187.4 28.7425 187.541 28.5505 187.752 28.4929ZM213 47.4177C221.506 47.4177 228.411 40.4993 228.411 32.0001C228.411 23.5073 221.506 16.5889 213 16.5889C204.494 16.5889 197.589 23.5073 197.589 32.0001C197.589 40.4993 204.494 47.4177 213 47.4177Z" fill="#101840"/>
<path d="M202.85 25.9201L200.974 24.8385C200.834 24.7489 200.661 24.7553 200.52 24.8257C201.717 22.7585 203.394 21.0177 205.41 19.7633C205.358 19.9041 205.358 20.0513 205.442 20.1921L206.523 22.0609C206.613 22.2209 206.786 22.3105 206.952 22.3105C207.042 22.3105 207.125 22.2913 207.202 22.2529C207.445 22.1121 207.522 21.7985 207.394 21.5617L206.312 19.6929C206.222 19.5393 206.082 19.4689 205.928 19.4497C207.874 18.3425 210.114 17.6897 212.494 17.6001V20.0577C212.494 20.3393 212.718 20.5569 212.994 20.5569C213.269 20.5569 213.493 20.3329 213.493 20.0577V17.6001C215.79 17.6833 217.947 18.2849 219.861 19.3153C219.822 19.3537 219.778 19.3985 219.752 19.4433L218.67 21.3121C218.53 21.5553 218.613 21.8625 218.85 22.0033C218.933 22.0417 219.022 22.0609 219.099 22.0609C219.272 22.0609 219.438 21.9713 219.528 21.8113L220.61 19.9425C220.642 19.8913 220.648 19.8529 220.661 19.8017C222.51 20.9793 224.072 22.5537 225.23 24.4225L223.381 25.4849C223.138 25.6257 223.061 25.9393 223.202 26.1697C223.291 26.3297 223.464 26.4193 223.63 26.4193C223.714 26.4193 223.803 26.4001 223.88 26.3617L225.736 25.2865C226.709 27.1425 227.291 29.2417 227.374 31.4625H225.378C225.096 31.4625 224.878 31.6929 224.878 31.9617C224.878 32.2433 225.102 32.4609 225.378 32.4609H227.374C227.304 34.6689 226.741 36.7489 225.781 38.5921L224.123 37.6257C223.88 37.4849 223.573 37.5681 223.438 37.8049C223.298 38.0481 223.381 38.3553 223.618 38.4961L225.275 39.4497C224.168 41.2673 222.677 42.8353 220.898 44.0001L219.944 42.3425C219.803 42.0993 219.502 42.0225 219.259 42.1633C219.016 42.3041 218.939 42.6049 219.08 42.8481L220.046 44.5249C218.229 45.5617 216.174 46.1889 213.973 46.3425V44.3457C213.973 44.0769 213.749 43.8465 213.474 43.8465C213.192 43.8465 212.974 44.0769 212.974 44.3457V46.3937C210.734 46.3809 208.629 45.8625 206.741 44.9409L207.803 43.0913C207.944 42.8481 207.861 42.5473 207.624 42.4065C207.381 42.2657 207.074 42.3489 206.933 42.5857L205.858 44.4609C205.858 44.4609 205.858 44.4737 205.845 44.4737C203.938 43.3793 202.293 41.8625 201.058 40.0385C201.109 40.0257 201.166 40.0257 201.211 40.0001L203.086 38.9185C203.33 38.7777 203.406 38.4769 203.266 38.2337C203.138 37.9905 202.824 37.9137 202.581 38.0545L200.706 39.1297C200.654 39.1681 200.616 39.2129 200.578 39.2513C199.451 37.3569 198.773 35.1745 198.632 32.8449C198.715 32.9025 198.811 32.9473 198.933 32.9473H201.096C201.378 32.9473 201.595 32.7233 201.595 32.4481C201.595 32.1793 201.371 31.9489 201.096 31.9489H198.939C198.811 31.9489 198.69 32.0001 198.6 32.0897V31.9873C198.6 29.5873 199.195 27.3217 200.245 25.3185C200.264 25.4721 200.334 25.6065 200.475 25.6897L202.35 26.7713C202.434 26.8225 202.523 26.8417 202.6 26.8417C202.773 26.8417 202.939 26.7521 203.029 26.5921C203.17 26.3617 203.093 26.0545 202.85 25.9201ZM204.77 25.7985L212.322 32.0961L210.286 33.0497C210.037 33.1713 209.928 33.4593 210.043 33.7153C210.126 33.9073 210.312 34.0033 210.498 34.0033C210.568 34.0033 210.651 33.9905 210.709 33.9649L213.166 32.8129L214.722 34.1057C214.811 34.1761 214.92 34.2145 215.042 34.2145C215.182 34.2145 215.323 34.1569 215.426 34.0353C215.605 33.8241 215.579 33.5041 215.368 33.3313L214.171 32.3393L221.109 29.0945C221.358 28.9857 221.467 28.6849 221.352 28.4289C221.237 28.1729 220.93 28.0705 220.68 28.1857L213.333 31.6161L205.422 25.0305C205.211 24.8513 204.891 24.8769 204.718 25.0881C204.526 25.3121 204.558 25.6321 204.77 25.7985Z" fill="#101840"/>
<g clip-path="url(#clip0_305_1743)">
<path d="M417.594 124.058C417.594 123.778 417.368 123.552 417.088 123.552H405.993C405.713 123.552 405.486 123.779 405.486 124.058C405.486 124.337 405.713 124.564 405.993 124.564H417.088C417.368 124.564 417.594 124.337 417.594 124.058ZM417.088 126.554H410.024C409.745 126.554 409.518 126.327 409.518 126.048C409.518 125.768 409.745 125.542 410.024 125.542H417.088C417.368 125.542 417.594 125.768 417.594 126.048C417.594 126.327 417.368 126.554 417.088 126.554ZM419.246 123.939L420.434 125.128L420.807 124.755C421.005 124.557 421.326 124.557 421.523 124.755C421.721 124.953 421.721 125.273 421.523 125.471L420.792 126.202C420.693 126.301 420.564 126.35 420.434 126.35C420.304 126.35 420.175 126.301 420.076 126.202L418.529 124.655C418.331 124.457 418.331 124.137 418.529 123.939C418.727 123.741 419.047 123.741 419.245 123.939L419.246 123.939ZM417.088 131.079H405.993C405.713 131.079 405.486 130.852 405.486 130.573C405.486 130.294 405.713 130.067 405.993 130.067H417.088C417.368 130.067 417.594 130.294 417.594 130.573C417.594 130.852 417.368 131.079 417.088 131.079ZM417.088 133.069H410.024C409.745 133.069 409.518 132.842 409.518 132.563C409.518 132.283 409.745 132.057 410.024 132.057H417.088C417.368 132.057 417.594 132.283 417.594 132.563C417.594 132.842 417.368 133.069 417.088 133.069ZM417.088 136.581C417.368 136.581 417.594 136.808 417.594 137.088C417.594 137.367 417.368 137.594 417.088 137.594H405.993C405.713 137.594 405.486 137.367 405.486 137.088C405.486 136.808 405.713 136.581 405.993 136.581H417.088ZM410.024 138.571H417.088C417.368 138.571 417.594 138.798 417.594 139.077C417.594 139.356 417.368 139.583 417.088 139.583H410.024C409.745 139.583 409.518 139.356 409.518 139.077C409.518 138.798 409.745 138.571 410.024 138.571ZM391.928 147.374C391.752 147.591 391.784 147.91 392.001 148.087C392.095 148.163 392.208 148.2 392.321 148.2C392.467 148.2 392.613 148.136 392.714 148.014L398.932 140.379C399.096 140.177 399.081 139.885 398.897 139.701L398.742 139.546L399.006 139.282C400.06 139.549 401.159 139.254 401.935 138.478L402.958 137.455V142.848C402.958 143.743 403.686 144.47 404.58 144.47H422.579C423.473 144.47 424.2 143.743 424.2 142.848V120.295C424.2 119.401 423.473 118.673 422.579 118.673H418.442C418.423 117.94 417.824 117.349 417.087 117.349H415.88C415.505 116.431 414.595 115.8 413.58 115.8C412.564 115.8 411.654 116.431 411.279 117.349H410.072C409.334 117.349 408.735 117.94 408.716 118.673H404.58C403.685 118.673 402.958 119.401 402.958 120.295V125.496L398.571 129.883C398.452 129.363 398.302 128.713 398.17 128.152C397.999 127.429 397.368 126.931 396.629 126.931C396.62 126.931 396.61 126.931 396.601 126.931C395.797 126.946 395.139 127.516 395.069 128.258C395.035 128.607 394.978 129.053 394.913 129.553C394.7 131.209 394.413 133.437 394.646 134.84L394.341 135.145L394.186 134.99C393.988 134.792 393.667 134.792 393.47 134.99L391.948 136.512C391.75 136.71 391.75 137.03 391.948 137.228C392.146 137.426 392.466 137.426 392.664 137.228L393.828 136.064L393.983 136.219L397.668 139.904C397.668 139.904 397.669 139.905 397.67 139.905L397.858 140.094L391.928 147.373V147.374ZM417.433 119.651C417.433 119.842 417.278 119.997 417.087 119.997H410.072C409.88 119.997 409.725 119.842 409.725 119.651V118.708C409.725 118.517 409.88 118.362 410.072 118.362H411.65C411.888 118.362 412.093 118.196 412.144 117.964C412.29 117.297 412.894 116.812 413.58 116.812C414.265 116.812 414.868 117.297 415.015 117.964C415.066 118.196 415.271 118.361 415.509 118.361H417.087C417.278 118.361 417.433 118.517 417.433 118.708V119.65V119.651ZM403.971 136.442L405.656 134.757C405.92 134.493 406.065 134.141 406.065 133.766C406.065 133.391 405.92 133.04 405.656 132.776C405.533 132.653 405.396 132.552 405.251 132.477C405.385 132.259 405.456 132.007 405.456 131.744C405.456 131.37 405.31 131.018 405.045 130.754C404.907 130.615 404.75 130.505 404.581 130.426C404.801 129.909 404.681 129.293 404.228 128.84C404.149 128.76 404.062 128.696 403.97 128.639V128.547L405.141 127.377C405.43 127.088 405.575 126.714 405.551 126.322C405.528 125.966 405.364 125.619 405.09 125.345C404.826 125.081 404.474 124.935 404.1 124.935C404.056 124.935 404.014 124.944 403.97 124.948V120.295C403.97 119.959 404.244 119.686 404.58 119.686H408.716C408.735 120.419 409.334 121.01 410.072 121.01H417.087C417.824 121.01 418.423 120.419 418.442 119.686H422.579C422.915 119.686 423.188 119.959 423.188 120.295V142.849C423.188 143.185 422.914 143.458 422.579 143.458H404.58C404.244 143.458 403.971 143.185 403.971 142.849V136.442ZM398.027 138.83L396.542 137.346L395.057 135.861L395.554 135.364C395.679 135.239 395.73 135.059 395.688 134.887C395.4 133.699 395.699 131.377 395.918 129.683C395.984 129.169 396.043 128.711 396.076 128.353C396.1 128.102 396.371 127.948 396.618 127.943H396.629C396.899 127.943 397.121 128.119 397.184 128.383C397.447 129.503 397.737 130.77 397.779 130.99C397.815 131.173 397.949 131.323 398.128 131.377C398.307 131.432 398.502 131.384 398.634 131.251L403.825 126.061C403.97 125.915 404.228 125.915 404.374 126.061C404.474 126.161 404.533 126.276 404.54 126.386C404.546 126.487 404.509 126.577 404.425 126.661L400.808 130.278C400.61 130.476 400.61 130.797 400.808 130.994C401.006 131.192 401.326 131.192 401.524 130.994L402.963 129.555C403.115 129.403 403.361 129.404 403.513 129.555C403.567 129.609 403.824 129.893 403.563 130.154L402.042 131.675C401.845 131.873 401.845 132.193 402.042 132.391C402.24 132.589 402.561 132.589 402.758 132.391L403.731 131.419C403.814 131.335 403.904 131.3 404.005 131.303C404.115 131.31 404.23 131.369 404.33 131.468C404.403 131.542 404.444 131.64 404.444 131.744C404.444 131.848 404.404 131.945 404.33 132.018L402.548 133.8C402.35 133.998 402.35 134.318 402.548 134.516C402.746 134.713 403.066 134.714 403.263 134.516L404.34 133.44C404.418 133.362 404.501 133.324 404.593 133.324C404.708 133.324 404.834 133.385 404.94 133.49C405.013 133.564 405.053 133.661 405.053 133.765C405.053 133.869 405.013 133.967 404.94 134.04L403.107 135.873L403.106 135.874L401.219 137.761C400.647 138.334 399.81 138.514 399.036 138.232C398.98 138.212 398.921 138.202 398.863 138.202C398.731 138.202 398.602 138.253 398.505 138.35L398.026 138.829L398.027 138.83ZM419.246 130.454L420.435 131.643L420.808 131.269C421.006 131.072 421.326 131.072 421.524 131.269C421.721 131.467 421.721 131.788 421.524 131.985L420.793 132.716C420.694 132.815 420.564 132.865 420.434 132.865C420.305 132.865 420.175 132.815 420.076 132.716L418.529 131.17C418.332 130.972 418.332 130.651 418.529 130.454C418.727 130.256 419.048 130.256 419.245 130.454H419.246ZM419.246 137.18L420.435 138.369L420.808 137.996C421.006 137.798 421.326 137.798 421.524 137.996C421.721 138.194 421.721 138.514 421.524 138.712L420.793 139.443C420.694 139.542 420.564 139.591 420.434 139.591C420.305 139.591 420.175 139.542 420.076 139.443L418.529 137.896C418.332 137.698 418.332 137.378 418.529 137.18C418.727 136.982 419.048 136.982 419.245 137.18H419.246Z" fill="#101840"/>
</g>
<path d="M124.394 162.258C124.394 161.978 124.167 161.752 123.888 161.752H112.792C112.513 161.752 112.286 161.979 112.286 162.258C112.286 162.537 112.513 162.764 112.792 162.764H123.888C124.167 162.764 124.394 162.537 124.394 162.258ZM123.888 164.754H116.824C116.544 164.754 116.317 164.527 116.317 164.248C116.317 163.968 116.544 163.742 116.824 163.742H123.888C124.167 163.742 124.394 163.968 124.394 164.248C124.394 164.527 124.167 164.754 123.888 164.754ZM126.045 162.139L127.234 163.328L127.607 162.955C127.805 162.757 128.125 162.757 128.323 162.955C128.521 163.153 128.521 163.473 128.323 163.671L127.592 164.402C127.493 164.5 127.363 164.55 127.234 164.55C127.104 164.55 126.974 164.501 126.875 164.402L125.329 162.855C125.131 162.657 125.131 162.337 125.329 162.139C125.527 161.941 125.847 161.941 126.045 162.139L126.045 162.139ZM123.888 169.279H112.792C112.513 169.279 112.286 169.052 112.286 168.773C112.286 168.494 112.513 168.267 112.792 168.267H123.888C124.167 168.267 124.394 168.494 124.394 168.773C124.394 169.052 124.167 169.279 123.888 169.279ZM123.888 171.269H116.824C116.544 171.269 116.317 171.042 116.317 170.763C116.317 170.483 116.544 170.257 116.824 170.257H123.888C124.167 170.257 124.394 170.483 124.394 170.763C124.394 171.042 124.167 171.269 123.888 171.269ZM123.888 174.781C124.167 174.781 124.394 175.008 124.394 175.288C124.394 175.567 124.167 175.794 123.888 175.794H112.792C112.513 175.794 112.286 175.567 112.286 175.288C112.286 175.008 112.513 174.781 112.792 174.781H123.888ZM116.824 176.771H123.888C124.167 176.771 124.394 176.998 124.394 177.277C124.394 177.556 124.167 177.783 123.888 177.783H116.824C116.544 177.783 116.317 177.556 116.317 177.277C116.317 176.998 116.544 176.771 116.824 176.771ZM98.7278 185.574C98.5514 185.791 98.5838 186.11 98.8009 186.287C98.8948 186.363 99.0079 186.4 99.1202 186.4C99.2671 186.4 99.4129 186.336 99.5133 186.214L105.732 178.579C105.895 178.377 105.881 178.085 105.697 177.901L105.542 177.746L105.806 177.482C106.86 177.748 107.958 177.454 108.735 176.678L109.758 175.655V181.048C109.758 181.942 110.485 182.67 111.38 182.67H129.379C130.272 182.67 131 181.942 131 181.048V158.495C131 157.601 130.272 156.873 129.379 156.873H125.242C125.223 156.14 124.624 155.549 123.887 155.549H122.679C122.305 154.631 121.395 154 120.379 154C119.364 154 118.453 154.631 118.079 155.549H116.871C116.134 155.549 115.535 156.14 115.515 156.873H111.379C110.485 156.873 109.757 157.601 109.757 158.495V163.696L105.371 168.083C105.252 167.563 105.101 166.913 104.969 166.352C104.799 165.629 104.168 165.131 103.429 165.131C103.419 165.131 103.41 165.131 103.4 165.131C102.597 165.146 101.938 165.716 101.868 166.458C101.835 166.807 101.777 167.253 101.713 167.753C101.5 169.409 101.213 171.637 101.446 173.04L101.141 173.345L100.985 173.19C100.787 172.992 100.467 172.992 100.269 173.19L98.7476 174.712C98.55 174.91 98.55 175.23 98.7476 175.428C98.9456 175.626 99.266 175.626 99.4636 175.428L100.628 174.264L100.783 174.419L104.468 178.104C104.468 178.104 104.469 178.105 104.469 178.105L104.658 178.294L98.7278 185.573V185.574ZM124.233 157.851C124.233 158.042 124.078 158.197 123.887 158.197H116.871C116.68 158.197 116.524 158.042 116.524 157.851V156.908C116.524 156.717 116.68 156.562 116.871 156.562H118.449C118.687 156.562 118.893 156.396 118.944 156.164C119.09 155.497 119.694 155.012 120.379 155.012C121.065 155.012 121.668 155.497 121.814 156.164C121.865 156.396 122.071 156.561 122.309 156.561H123.887C124.078 156.561 124.233 156.717 124.233 156.908V157.85V157.851ZM110.771 174.642L112.456 172.957C112.72 172.693 112.865 172.341 112.865 171.966C112.865 171.591 112.72 171.24 112.456 170.976C112.333 170.853 112.196 170.752 112.05 170.677C112.184 170.459 112.256 170.207 112.256 169.944C112.256 169.57 112.11 169.218 111.845 168.954C111.707 168.815 111.549 168.705 111.38 168.626C111.601 168.109 111.48 167.493 111.028 167.04C110.949 166.96 110.862 166.896 110.77 166.839V166.747L111.941 165.577C112.229 165.288 112.375 164.914 112.35 164.522C112.328 164.166 112.164 163.819 111.89 163.545C111.626 163.281 111.274 163.135 110.899 163.135C110.855 163.135 110.813 163.144 110.77 163.148V158.495C110.77 158.159 111.043 157.886 111.379 157.886H115.515C115.534 158.619 116.134 159.21 116.871 159.21H123.887C124.624 159.21 125.223 158.619 125.242 157.886H129.379C129.714 157.886 129.987 158.159 129.987 158.495V181.049C129.987 181.385 129.714 181.658 129.379 181.658H111.38C111.043 181.658 110.771 181.384 110.771 181.049V174.642ZM104.826 177.03L103.342 175.546L101.857 174.061L102.354 173.564C102.478 173.439 102.529 173.259 102.488 173.087C102.2 171.898 102.499 169.577 102.717 167.883C102.783 167.369 102.842 166.911 102.876 166.553C102.9 166.302 103.17 166.148 103.418 166.143H103.429C103.699 166.143 103.921 166.319 103.984 166.583C104.247 167.703 104.536 168.97 104.579 169.189C104.615 169.373 104.749 169.522 104.928 169.577C105.107 169.632 105.301 169.584 105.434 169.451L110.624 164.261C110.77 164.115 111.028 164.115 111.174 164.261C111.274 164.361 111.332 164.476 111.34 164.586C111.346 164.687 111.308 164.777 111.224 164.86L107.607 168.478C107.41 168.676 107.41 168.997 107.607 169.194C107.805 169.392 108.126 169.392 108.323 169.194L109.763 167.755C109.914 167.603 110.161 167.604 110.313 167.755C110.367 167.809 110.624 168.093 110.363 168.354L108.842 169.875C108.644 170.073 108.644 170.393 108.842 170.591C109.04 170.789 109.36 170.789 109.558 170.591L110.53 169.619C110.614 169.535 110.704 169.5 110.805 169.503C110.915 169.51 111.03 169.569 111.129 169.668C111.203 169.742 111.243 169.84 111.243 169.944C111.243 170.048 111.203 170.145 111.13 170.218L109.347 172C109.15 172.198 109.15 172.518 109.347 172.716C109.545 172.913 109.866 172.914 110.063 172.716L111.14 171.64C111.218 171.562 111.3 171.524 111.393 171.524C111.507 171.524 111.634 171.585 111.739 171.69C111.812 171.764 111.853 171.861 111.853 171.965C111.853 172.069 111.812 172.167 111.739 172.24L109.907 174.073L109.906 174.074L108.019 175.961C107.447 176.533 106.61 176.714 105.836 176.432C105.779 176.412 105.721 176.402 105.663 176.402C105.531 176.402 105.401 176.453 105.305 176.55L104.826 177.029L104.826 177.03ZM126.046 168.654L127.234 169.843L127.607 169.469C127.805 169.272 128.126 169.272 128.323 169.469C128.521 169.667 128.521 169.988 128.323 170.185L127.592 170.916C127.493 171.015 127.364 171.065 127.234 171.065C127.104 171.065 126.975 171.015 126.876 170.916L125.329 169.37C125.131 169.172 125.131 168.851 125.329 168.654C125.527 168.456 125.847 168.456 126.045 168.654H126.046ZM126.046 175.38L127.234 176.569L127.607 176.196C127.805 175.998 128.126 175.998 128.323 176.196C128.521 176.394 128.521 176.714 128.323 176.912L127.592 177.643C127.493 177.742 127.364 177.791 127.234 177.791C127.104 177.791 126.975 177.742 126.876 177.643L125.329 176.096C125.131 175.898 125.131 175.578 125.329 175.38C125.527 175.182 125.847 175.182 126.045 175.38H126.046Z" fill="#101840"/>
<path d="M370.187 201.5L376.562 195.062L373.875 192.375C373.625 192.125 373.625 191.75 373.875 191.5C374 191.375 374.125 191.312 374.313 191.312H384.062C384.438 191.312 384.688 191.562 384.688 191.938V201.625C384.688 202 384.375 202.25 384.062 202.25C383.875 202.25 383.75 202.188 383.625 202.063L380.938 199.375L374.562 205.75C374.312 206 373.938 206 373.688 205.75L370.25 202.312C370.125 202.187 370.062 202.063 370.062 201.875C370 201.75 370.062 201.625 370.187 201.5ZM374.062 204.438L380.438 198.062C380.563 197.937 380.688 197.875 380.875 197.875C381.063 197.875 381.187 197.937 381.312 198.062L383.375 200.125V192.562H375.812L377.875 194.625C378.125 194.875 378.125 195.25 377.875 195.5L371.5 201.875L374.062 204.438Z" fill="#101840"/>
<path d="M385.312 194.375C386.125 194 386.625 193.187 386.75 192.312C386.75 192.187 386.75 192.063 386.75 191.875C386.75 190.375 385.5 189.125 384 189.125C383 189.125 382 189.688 381.562 190.625C381.437 190.938 381.062 191.125 380.75 190.938C380.437 190.813 380.25 190.437 380.437 190.125C380.437 190.125 380.437 190.062 380.5 190.062C381 189.125 381.812 188.375 382.812 188.062C383.187 187.937 383.625 187.875 384.062 187.875C386.25 187.875 388.062 189.688 388.062 191.875C388.062 192.063 388.062 192.313 388 192.5C387.812 193.75 387 194.875 385.875 195.437C385.812 195.5 385.688 195.5 385.562 195.5C385.187 195.5 384.938 195.188 384.938 194.875C384.938 194.688 385.062 194.5 385.312 194.375Z" fill="#101840"/>
<path d="M385.438 197.125C385.688 197.062 385.937 197 386.125 196.875C388 196.125 389.25 194.375 389.375 192.375C389.375 192.25 389.375 192.063 389.375 191.938C389.312 189 386.875 186.625 383.937 186.687C381.562 186.75 379.563 188.312 378.875 190.562C378.813 190.875 378.438 191.125 378.125 191C377.812 190.875 377.562 190.562 377.687 190.25C378.312 187.875 380.187 186.063 382.562 185.5C383.062 185.375 383.562 185.312 384.062 185.312C387.688 185.312 390.625 188.313 390.625 191.938C390.625 192.125 390.625 192.313 390.625 192.5C390.437 194.938 388.875 197.062 386.625 198.062C386.312 198.187 386.063 198.312 385.75 198.375C385.688 198.375 385.625 198.375 385.625 198.375C385.25 198.437 384.938 198.188 384.938 197.813C384.938 197.438 385.063 197.125 385.438 197.125Z" fill="#101840"/>
<path d="M407.5 198H408.75V199.25H407.5V198Z" fill="#101840"/>
<path d="M371.875 167.875H373.125V169.125H371.875V167.875Z" fill="#101840"/>
<path d="M403.75 167.25H405V168.5H403.75V167.25Z" fill="#101840"/>
<path d="M404.375 202.875H405.625V204.125H404.375V202.875Z" fill="#101840"/>
<path d="M377.625 168.438H378.875V169.688H377.625V168.438Z" fill="#101840"/>
<path d="M408.125 171H409.375V172.25H408.125V171Z" fill="#101840"/>
<path d="M395 202.875H396.25V204.125H395V202.875Z" fill="#101840"/>
<path d="M371.25 175.375H372.5V176.625H371.25V175.375Z" fill="#101840"/>
<path d="M391.5 184.5H375C374.625 184.5 374.375 184.25 374.375 183.875C374.375 174.5 381.625 166.75 391 166.125H391.063C391.375 166.125 391.688 166.125 392 166.125H392.125C392.438 166.125 392.75 166.125 393.063 166.125H393.188C402.625 166.687 409.875 174.437 409.875 183.812C409.875 186.937 409.063 189.937 407.5 192.625C404.563 197.812 399.188 201.125 393.25 201.5H393.125C392.813 201.5 392.438 201.5 392.062 201.5C391.687 201.5 391.438 201.25 391.438 200.875L391.5 184.5ZM399.5 193.062H392.75V200.313C395.438 199.938 397.938 197.25 399.5 193.062ZM392.75 191.812H399.937C400.625 189.437 401 186.937 401.062 184.5H392.813V191.812H392.75ZM408.625 184.5H402.25C402.188 187 401.875 189.437 401.187 191.812H406.562C407.812 189.562 408.5 187.062 408.625 184.5ZM406.625 175.875H401.25C401.937 178.25 402.25 180.75 402.312 183.187H408.625C408.562 180.687 407.812 178.125 406.625 175.875ZM391.5 167.375C388.813 167.75 386.312 170.437 384.75 174.687H391.5V167.375ZM392.75 167.375V174.687H399.5C398 170.437 395.438 167.75 392.75 167.375ZM392.75 175.875V183.187H401C400.938 180.687 400.563 178.25 399.875 175.875H392.75ZM391.5 175.875H384.375C383.688 178.25 383.313 180.75 383.25 183.187H391.5V175.875ZM375.625 183.25H382C382.063 180.75 382.375 178.312 383.063 175.937H377.688C376.438 178.125 375.75 180.687 375.625 183.25ZM378.438 174.625H383.438C384.188 172.125 385.625 169.813 387.5 168C383.813 169.063 380.563 171.438 378.438 174.625ZM396.75 168C398.687 169.813 400.062 172.125 400.875 174.687H405.875C403.687 171.438 400.438 169.063 396.75 168ZM405.812 193.062H400.812C400.062 195.562 398.625 197.875 396.688 199.688C400.438 198.625 403.687 196.25 405.812 193.062Z" fill="#101840"/>
<path d="M211 125H222V133H211V125Z" fill="#101840"/>
<path d="M207 102C207 95.8001 210.4 90.2001 215.7 87.2001L214.3 85.8001L213 87.0001L211.6 85.6001L215.6 81.6001L217 83.0001L215.7 84.3001L217.6 86.2001C226.4 82.7001 236.3 87.0001 239.8 95.7001C243.3 104.4 239 114.3 230.3 117.8C221.6 121.3 211.7 117.1 208.2 108.4C207.4 106.3 207 104.2 207 102ZM219.7 87.6001C218.6 87.9001 217.5 88.4001 216.5 89.0001L217.5 90.7001C218.4 90.2001 219.3 89.8001 220.3 89.5001L219.7 87.6001ZM221.9 87.2001L222.2 89.2001C223.1 89.0001 224 89.0001 224.9 89.0001L225 87.0001C224 87.0001 222.9 87.0001 221.9 87.2001ZM227.2 87.3001L226.8 89.3001C227.8 89.5001 228.7 89.8001 229.6 90.3001L230.5 88.5001C229.4 88.0001 228.3 87.6001 227.2 87.3001ZM224 117C232.3 117 239 110.3 239 102C239 97.1001 236.6 92.5001 232.6 89.7001L231.5 91.3001C237.4 95.4001 238.8 103.5 234.7 109.4C230.6 115.3 222.5 116.7 216.6 112.6C213.1 110.2 211 106.3 211 102C211 98.9001 212.1 95.9001 214 93.5001L228 107.5L232.7 102.8L231.3 101.4L228 104.7L214 90.7001L213.3 91.4001C210.5 94.2001 209 98.0001 209 102C209 110.3 215.7 117 224 117Z" fill="#101840"/>
<path d="M222 123H211V115.8C214 118.7 217.9 120.4 222 120.9V123Z" fill="#101840"/>
<path d="M227 79H221C220.4 79 220 78.6 220 78C220 77.4 220.4 77 221 77H227C227.6 77 228 77.4 228 78C228 78.6 227.6 79 227 79Z" fill="#101840"/>
<path d="M224 83C223.7 83 223.3 83 223 83.1V81H225V83.1C224.7 83 224.3 83 224 83Z" fill="#101840"/>
<path d="M198 125H209V133H198V125Z" fill="#101840"/>
<path d="M235 132C235 132.6 234.6 133 234 133H224V125H235V132Z" fill="#101840"/>
<path d="M235 123H224V121C227.9 121 231.8 119.8 235 117.5V123Z" fill="#101840"/>
<path d="M205 102C205 102.3 205 102.7 205.1 103H198V95H206.4C205.5 97.2 205 99.6 205 102Z" fill="#101840"/>
<path d="M185 105H196V113H185V105Z" fill="#101840"/>
<path d="M185 115H196V123H185V115Z" fill="#101840"/>
<path d="M185 95H196V103H185V95Z" fill="#101840"/>
<path d="M186 89H188V85H190V89H192V85H194V89H210.2C209.1 90.2 208.1 91.5 207.3 93H185V90C185 89.4 185.4 89 186 89Z" fill="#101840"/>
<path d="M198 115H209V123H198V115Z" fill="#101840"/>
<path d="M208.5 113H198V105H205.3C205.7 107.9 206.8 110.6 208.5 113Z" fill="#101840"/>
<path d="M196 133H186C185.4 133 185 132.6 185 132V125H196V133Z" fill="#101840"/>
<path d="M352.156 68.9143H359.547V74.2857H352.156V68.9143Z" fill="#101840"/>
<path d="M349.469 53.4713C349.469 49.3085 351.753 45.5485 355.314 43.5342L354.373 42.5942L353.5 43.3999L352.559 42.4599L355.247 39.7742L356.188 40.7142L355.314 41.587L356.591 42.8627C362.503 40.5127 369.155 43.3999 371.506 49.2413C373.858 55.0827 370.969 61.7299 365.123 64.0799C359.278 66.4299 352.627 63.6099 350.275 57.7685C349.738 56.3585 349.469 54.9485 349.469 53.4713ZM358.002 43.8027C357.263 44.0042 356.523 44.3399 355.852 44.7427L356.523 45.8842C357.128 45.5485 357.733 45.2799 358.405 45.0785L358.002 43.8027ZM359.48 43.5342L359.681 44.877C360.286 44.7427 360.891 44.7427 361.495 44.7427L361.563 43.3999C360.891 43.3999 360.152 43.3999 359.48 43.5342ZM363.041 43.6013L362.772 44.9442C363.444 45.0785 364.048 45.2799 364.653 45.6156L365.258 44.407C364.519 44.0713 363.78 43.8027 363.041 43.6013ZM360.891 63.5427C366.467 63.5427 370.969 59.0442 370.969 53.4713C370.969 50.1813 369.356 47.0927 366.669 45.2127L365.93 46.287C369.894 49.0399 370.834 54.4785 368.08 58.4399C365.325 62.4013 359.883 63.3413 355.919 60.5885C353.567 58.977 352.156 56.3585 352.156 53.4713C352.156 51.3899 352.895 49.3756 354.172 47.7642L363.578 57.1642L366.736 54.0085L365.795 53.0685L363.578 55.2842L354.172 45.8842L353.702 46.3542C351.82 48.2342 350.813 50.7856 350.813 53.4713C350.813 59.0442 355.314 63.5427 360.891 63.5427Z" fill="#101840"/>
<path d="M359.547 67.5713H352.156V62.7371C354.172 64.6842 356.792 65.8256 359.547 66.1613V67.5713Z" fill="#101840"/>
<path d="M362.906 38.0286H358.875C358.472 38.0286 358.203 37.7601 358.203 37.3572C358.203 36.9544 358.472 36.6858 358.875 36.6858H362.906C363.309 36.6858 363.578 36.9544 363.578 37.3572C363.578 37.7601 363.309 38.0286 362.906 38.0286Z" fill="#101840"/>
<path d="M360.891 40.7142C360.689 40.7142 360.42 40.7142 360.219 40.7813V39.3713H361.562V40.7813C361.361 40.7142 361.092 40.7142 360.891 40.7142Z" fill="#101840"/>
<path d="M343.422 68.9143H350.812V74.2857H343.422V68.9143Z" fill="#101840"/>
<path d="M368.281 73.6143C368.281 74.0172 368.013 74.2857 367.609 74.2857H360.891V68.9143H368.281V73.6143Z" fill="#101840"/>
<path d="M368.281 67.5715H360.891V66.2287C363.511 66.2287 366.131 65.4229 368.281 63.8787V67.5715Z" fill="#101840"/>
<path d="M348.125 53.4715C348.125 53.6729 348.125 53.9415 348.192 54.1429H343.422V48.7715H349.066C348.461 50.2486 348.125 51.8601 348.125 53.4715Z" fill="#101840"/>
<path d="M334.688 55.4856H342.078V60.857H334.688V55.4856Z" fill="#101840"/>
<path d="M334.688 62.2H342.078V67.5714H334.688V62.2Z" fill="#101840"/>
<path d="M334.688 48.7715H342.078V54.1429H334.688V48.7715Z" fill="#101840"/>
<path d="M335.359 44.7428H336.703V42.0571H338.047V44.7428H339.391V42.0571H340.734V44.7428H351.619C350.88 45.5486 350.208 46.4214 349.67 47.4286H334.688V45.4143C334.688 45.0114 334.956 44.7428 335.359 44.7428Z" fill="#101840"/>
<path d="M343.422 62.2H350.812V67.5714H343.422V62.2Z" fill="#101840"/>
<path d="M350.477 60.857H343.422V55.4856H348.327C348.595 57.4327 349.334 59.2456 350.477 60.857Z" fill="#101840"/>
<path d="M342.078 74.2857H335.359C334.956 74.2857 334.688 74.0172 334.688 73.6143V68.9143H342.078V74.2857Z" fill="#101840"/>
<defs>
<clipPath id="clip0_305_1743">
<rect width="36" height="34.2" fill="white" transform="matrix(-1 0 0 1 426 114)"/>
</clipPath>
</defs>
</svg>
