<svg xmlns="http://www.w3.org/2000/svg" viewBox="0 0 64 80" x="0px" y="0px"><g><path d="M9,62H47a7.008,7.008,0,0,0,7-7V54a26.1,26.1,0,0,0-.52-5.2,25.783,25.783,0,0,0-2.6-7.16l-1.758.952a23.811,23.811,0,0,1,2.123,5.464A7.237,7.237,0,0,0,45.02,53.8l1.96.392a5.222,5.222,0,0,1,4.689-4.158A24.192,24.192,0,0,1,52,54v1a5.006,5.006,0,0,1-5,5H37.92A7,7,0,0,0,31,54v2a5.009,5.009,0,0,1,4.9,4H28a5,5,0,0,1,0-10h9.04A7.929,7.929,0,0,0,38.3,53.54l1.683-1.08a4.865,4.865,0,0,1-.239-5.49l-1.646-1.136A6.152,6.152,0,0,0,37.162,48H31.92A7,7,0,0,0,25,42v2a5.009,5.009,0,0,1,4.9,4H28a7,7,0,0,0-5.839,3.148,6.832,6.832,0,0,1-4.859-3l-.47-.706-1.664,1.11.47.7a8.817,8.817,0,0,0,5.652,3.758A6.963,6.963,0,0,0,23.11,60H9a5,5,0,0,1-4.906-4.073A10.306,10.306,0,0,0,8.8,54.207,9.828,9.828,0,0,0,15.706,57c.108,0,.217,0,.326-.005l-.064-2a7.788,7.788,0,0,1-5.624-2.087,10.39,10.39,0,0,0,1.261-1.519l.561-.84L10.5,49.44l-.56.84A8.317,8.317,0,0,1,4,53.933a23.938,23.938,0,0,1,2.76-11.091,4.124,4.124,0,0,1,4.406,1.713l1.664-1.11a6.128,6.128,0,0,0-4.821-2.709A24.115,24.115,0,0,1,13.217,35.1c.585,2.858,2.325,5.083,4.511,5.715A11.226,11.226,0,0,0,17,44.778h2a9.18,9.18,0,0,1,2.707-6.535l.536-.536-1.414-1.414-.536.536a11.267,11.267,0,0,0-1.666,2.142c-1.821-.267-3.327-2.457-3.584-5.157a23.769,23.769,0,0,1,6.236-2.859l-.558-1.921a25.784,25.784,0,0,0-7.271,3.417A26.014,26.014,0,0,0,2,54v1A7.008,7.008,0,0,0,9,62Z"/><path d="M22,28h3.814a15.805,15.805,0,0,0,.91,2.206L24.03,32.9a2,2,0,0,0,0,2.829l4.242,4.242a2,2,0,0,0,2.829,0l2.693-2.694c.265.134.535.26.807.379.454.2.922.375,1.4.532V42a2,2,0,0,0,2,2h6a2,2,0,0,0,2-2V38.186a15.805,15.805,0,0,0,2.206-.91L50.9,39.97a2,2,0,0,0,2.829,0l4.243-4.242a2,2,0,0,0,0-2.829l-2.695-2.693A15.805,15.805,0,0,0,56.186,28H60a2,2,0,0,0,2-2V20a2,2,0,0,0-2-2H56.186a15.805,15.805,0,0,0-.91-2.206L57.971,13.1a2,2,0,0,0,0-2.828L53.728,6.029a2,2,0,0,0-2.829,0l-2.693,2.7A15.805,15.805,0,0,0,46,7.814V4a2,2,0,0,0-2-2H38a2,2,0,0,0-2,2V7.814c-.477.156-.945.334-1.4.531-.272.119-.542.245-.807.379L31.1,6.029a2,2,0,0,0-2.828,0L24.03,10.272a2,2,0,0,0,0,2.829l2.694,2.693c-.134.265-.26.535-.379.807-.2.454-.375.922-.532,1.4H22a2,2,0,0,0-2,2v6A2,2,0,0,0,22,28Zm0-8h4.556a1,1,0,0,0,.964-.734,14.089,14.089,0,0,1,.659-1.867,13.808,13.808,0,0,1,.646-1.294,1,1,0,0,0-.163-1.2l-3.218-3.219,4.243-4.243,3.218,3.219a1,1,0,0,0,1.2.163,13.808,13.808,0,0,1,1.294-.646,14.089,14.089,0,0,1,1.867-.659A1,1,0,0,0,38,8.556V4h6V8.556a1,1,0,0,0,.733.964,13.945,13.945,0,0,1,3.162,1.3,1,1,0,0,0,1.2-.163l3.219-3.219,4.243,4.244-3.219,3.218a1,1,0,0,0-.163,1.2,13.945,13.945,0,0,1,1.3,3.162,1,1,0,0,0,.964.733H60v6H55.444a1,1,0,0,0-.964.733,13.945,13.945,0,0,1-1.3,3.162,1,1,0,0,0,.163,1.2l3.219,3.219-4.244,4.242L49.1,35.338a1,1,0,0,0-1.2-.163,13.945,13.945,0,0,1-3.162,1.3,1,1,0,0,0-.733.964V42H38V37.444a1,1,0,0,0-.734-.964,14.131,14.131,0,0,1-1.867-.659,13.808,13.808,0,0,1-1.294-.646.991.991,0,0,0-.493-.13,1,1,0,0,0-.707.293l-3.219,3.218-4.242-4.243L28.662,31.1a1,1,0,0,0,.163-1.2,13.945,13.945,0,0,1-1.3-3.162A1,1,0,0,0,26.556,26H22Z"/><path d="M41,34A11,11,0,1,0,30,23,11.013,11.013,0,0,0,41,34Zm0-20a9,9,0,1,1-9,9A9.011,9.011,0,0,1,41,14Z"/><path d="M41,28a5,5,0,1,0-5-5A5.006,5.006,0,0,0,41,28Zm0-8a3,3,0,1,1-3,3A3,3,0,0,1,41,20Z"/></g><text x="0" y="79" fill="#000000" font-size="5px" font-weight="bold" font-family="'Helvetica Neue', Helvetica, Arial-Unicode, Arial, Sans-serif">Created by monkik</text><text x="0" y="84" fill="#000000" font-size="5px" font-weight="bold" font-family="'Helvetica Neue', Helvetica, Arial-Unicode, Arial, Sans-serif">from the Noun Project</text></svg>