<svg xmlns="http://www.w3.org/2000/svg" viewBox="0 0 64 80" x="0px" y="0px"><g><path d="M58.984,47.25l1.324,1.5A5,5,0,0,0,62,45V13a5,5,0,0,0-1.692-3.75l-1.324,1.5A3,3,0,0,1,60,13V45A3,3,0,0,1,58.984,47.25Z"/><path d="M6,44.9V45a5.006,5.006,0,0,0,5,5H38V48H11a3,3,0,0,1-3-3H38V43H7a3,3,0,0,1-3-3V7A3,3,0,0,1,7,4H53a3,3,0,0,1,3,3V40a3,3,0,0,1-3,3H48v2h5a5.006,5.006,0,0,0,5-5V7a5.006,5.006,0,0,0-5-5H7A5.006,5.006,0,0,0,2,7V40A5.009,5.009,0,0,0,6,44.9Z"/><rect x="7" y="6" width="2" height="2"/><rect x="11" y="6" width="2" height="2"/><rect x="15" y="6" width="2" height="2"/><path d="M23.071,12.929A10,10,0,1,0,26,20,9.932,9.932,0,0,0,23.071,12.929ZM10.343,14.343a8,8,0,0,1,10.563-.663L15.586,19H8.062A7.934,7.934,0,0,1,10.343,14.343ZM8.062,21h5.524L9.68,24.906A7.9,7.9,0,0,1,8.062,21ZM16,28a7.933,7.933,0,0,1-4.906-1.68L16,21.414l4.906,4.906A7.933,7.933,0,0,1,16,28Zm6.32-3.094L17.414,20l4.906-4.906a8,8,0,0,1,0,9.812Z"/><path d="M28,37a1,1,0,0,0,1,1H53V36H30V33.618l3-1.5L36.553,33.9A1.011,1.011,0,0,0,37,34a1,1,0,0,0,.707-.293L41,30.414l3.293,3.293a.983.983,0,0,0,.806.288,1,1,0,0,0,.733-.44L49,28.8l3.168,4.752,1.664-1.11-4-6a1.039,1.039,0,0,0-1.664,0L44.845,31.43l-3.138-3.137a1,1,0,0,0-1.414,0l-3.49,3.49-3.356-1.678a1,1,0,0,0-.894,0L30,31.382V27H28Z"/><path d="M28,11V21a1,1,0,0,0,1,1H53V20H30V17.618l3-1.5L36.553,17.9a1,1,0,0,0,1.279-.34L41,12.8l3.168,4.752A1,1,0,0,0,44.9,18a.984.984,0,0,0,.806-.288L49,14.414l3.293,3.293,1.414-1.414-4-4a1,1,0,0,0-1.414,0L45.155,15.43l-3.323-4.985a1.039,1.039,0,0,0-1.664,0l-3.511,5.266-3.21-1.606a1,1,0,0,0-.894,0L30,15.382V11Z"/><rect x="7" y="32" width="5" height="2"/><rect x="14" y="32" width="11" height="2"/><rect x="7" y="36" width="9" height="2"/><rect x="18" y="36" width="7" height="2"/><path d="M58,61V50.107a3.082,3.082,0,0,0-2.5-3.066h0a3,3,0,0,0-2.439.673L53,47.765a2.994,2.994,0,0,0-4,0,3.116,3.116,0,0,0-3-.595V43a3.081,3.081,0,0,0-2.5-3.066A3,3,0,0,0,40,42.893V54.234l-2.654-1.593a2.754,2.754,0,0,0-2.66-.1l-.157.078a2.766,2.766,0,0,0-.371,4.725l6.261,4.472A1,1,0,0,0,41,62H57A1,1,0,0,0,58,61Zm-2-1H41.32l-6-4.285a.771.771,0,0,1-.32-.624.761.761,0,0,1,.424-.685l.156-.078a.759.759,0,0,1,.736.028l4.169,2.5A1,1,0,0,0,42,56V42.893a1,1,0,0,1,1.176-.985A1.082,1.082,0,0,1,44,43v7a1,1,0,0,0,2,0,1,1,0,0,1,2,0,1,1,0,0,0,2,0,1,1,0,0,1,2,0,1,1,0,0,0,2,0,1,1,0,0,1,1.176-.986A1.086,1.086,0,0,1,56,50.107Z"/></g><text x="0" y="79" fill="#000000" font-size="5px" font-weight="bold" font-family="'Helvetica Neue', Helvetica, Arial-Unicode, Arial, Sans-serif">Created by monkik</text><text x="0" y="84" fill="#000000" font-size="5px" font-weight="bold" font-family="'Helvetica Neue', Helvetica, Arial-Unicode, Arial, Sans-serif">from the Noun Project</text></svg>