<svg xmlns="http://www.w3.org/2000/svg" data-name="Layer 1" viewBox="0 0 100 125" x="0px" y="0px"><title>100all</title><path d="M85.32,85H78.65V44a2,2,0,0,0-2-2H71.16V37a8.88,8.88,0,0,0-2.32-6L51.16,11.62a2,2,0,1,0-3,2.69L65.88,33.75A4.88,4.88,0,0,1,67.16,37v5H40.23L38.41,38.4a2,2,0,1,0-3.57,1.8L46.07,62.48a4.9,4.9,0,0,1-6.15,6.77l-.33-.13A4.92,4.92,0,0,1,37.14,67L29.68,54.25a8.86,8.86,0,0,0-.94-1.32L19.83,42.56a8.29,8.29,0,0,1-2-5.33l-.18-23.85a2,2,0,0,0-2-2h0a2,2,0,0,0-2,2l.18,23.85a12.3,12.3,0,0,0,3,7.91l4.8,5.59a2,2,0,0,0,0,.32V85H14.68a2,2,0,0,0,0,4H85.32a2,2,0,0,0,0-4ZM25.56,55.37l.14.16a4.88,4.88,0,0,1,.52.72L33.68,69a8.93,8.93,0,0,0,4.46,3.81l.33.13a9,9,0,0,0,3.25.61,8.91,8.91,0,0,0,7.92-12.92L42.24,46H74.65V85H25.56Z"/><text x="0" y="115" fill="#000000" font-size="5px" font-weight="bold" font-family="'Helvetica Neue', Helvetica, Arial-Unicode, Arial, Sans-serif">Created by Lakshisha</text><text x="0" y="120" fill="#000000" font-size="5px" font-weight="bold" font-family="'Helvetica Neue', Helvetica, Arial-Unicode, Arial, Sans-serif">from the Noun Project</text></svg>