<svg xmlns="http://www.w3.org/2000/svg" data-name="Layer 1" viewBox="0 0 100 125" x="0px" y="0px"><path d="m23.349,27.939c0-.777.63-1.406,1.406-1.406h30.821c.776,0,1.406.63,1.406,1.406s-.63,1.406-1.406,1.406h-30.821c-.776,0-1.406-.63-1.406-1.406Zm1.406,6.933h19.623c.776,0,1.406-.63,1.406-1.406s-.63-1.406-1.406-1.406h-19.623c-.776,0-1.406.63-1.406,1.406s.63,1.406,1.406,1.406Zm-5.993-7.263l-3.302,3.302-1.036-1.037c-.55-.549-1.44-.549-1.989,0-.549.55-.549,1.44,0,1.989l2.031,2.031c.275.274.635.412.995.412s.72-.137.995-.412l4.297-4.297c.549-.55.549-1.44,0-1.989-.55-.549-1.44-.549-1.989,0Zm5.993,19.833h30.821c.776,0,1.406-.63,1.406-1.406s-.63-1.406-1.406-1.406h-30.821c-.776,0-1.406.63-1.406,1.406s.63,1.406,1.406,1.406Zm0,5.527h19.623c.776,0,1.406-.63,1.406-1.406s-.63-1.406-1.406-1.406h-19.623c-.776,0-1.406.63-1.406,1.406s.63,1.406,1.406,1.406Zm0,9.757c-.776,0-1.406.63-1.406,1.406s.63,1.406,1.406,1.406h30.821c.776,0,1.406-.63,1.406-1.406s-.63-1.406-1.406-1.406h-30.821Zm19.623,5.526h-19.623c-.776,0-1.406.63-1.406,1.406s.63,1.406,1.406,1.406h19.623c.776,0,1.406-.63,1.406-1.406s-.63-1.406-1.406-1.406Zm50.266,24.454c.49.602.4,1.488-.203,1.979-.261.212-.575.315-.887.315-.408,0-.813-.177-1.092-.518l-17.273-21.207c-.455-.56-.414-1.373.096-1.883l.431-.431-.733-.733c-2.928.74-5.979-.078-8.137-2.233l-2.841-2.842v14.981c0,2.484-2.021,4.505-4.505,4.505H9.503c-2.483,0-4.504-2.021-4.504-4.505V17.486c0-2.484,2.021-4.505,4.504-4.505h11.49c.053-2.036,1.717-3.678,3.765-3.678h3.354c1.041-2.549,3.568-4.303,6.389-4.303s5.35,1.754,6.39,4.303h3.354c2.049,0,3.713,1.642,3.767,3.678h11.489c2.484,0,4.505,2.021,4.505,4.505v14.448l12.186,12.186c.329-1.446.748-3.25,1.114-4.81.474-2.007,2.226-3.39,4.279-3.39.027,0,.054,0,.08,0,2.231.04,4.061,1.624,4.255,3.685.093.969.253,2.208.432,3.599.592,4.6,1.389,10.787.741,14.685l.849.848.431-.431c.55-.55,1.44-.55,1.989,0l4.227,4.227c.549.55.549,1.44,0,1.989-.55.55-1.44.55-1.989,0l-3.233-3.233-.431.431s0,0,0,0l-10.236,10.236s-.004.002-.005.003l-.523.523,16.472,20.222ZM23.796,15.696c0,.531.432.963.962.963h19.487c.532,0,.964-.432.964-.963v-2.617c0-.531-.432-.963-.964-.963h-4.383c-.661,0-1.232-.46-1.374-1.105-.406-1.854-2.083-3.199-3.987-3.199s-3.579,1.346-3.986,3.199c-.142.645-.713,1.104-1.374,1.104h-4.383c-.53,0-.962.432-.962.963v2.617Zm37.396,46.644l-4.681-4.682c-.734-.734-1.137-1.711-1.137-2.752s.403-2.018,1.137-2.751c.342-.342.722-.621,1.126-.831-.372-.605-.571-1.304-.57-2.034,0-1.041.405-2.019,1.14-2.752.385-.385.822-.692,1.291-.909-.612-1.438-.278-3.149.979-4.408.219-.22.462-.4.716-.556v-.256l-3.251-3.251c-.802-.802-1.206-1.842-1.138-2.929.063-.99.517-1.954,1.279-2.715.733-.734,1.711-1.138,2.751-1.138.122,0,.239.024.359.035v-12.925c0-.933-.759-1.692-1.692-1.692h-11.489c-.053,2.036-1.718,3.678-3.767,3.678h-19.487c-2.048,0-3.712-1.642-3.765-3.678h-11.49c-.933,0-1.691.759-1.691,1.692v62.649c0,.934.759,1.692,1.691,1.692h49.997c.934,0,1.692-.759,1.692-1.692v-17.794Zm16.512,6.632l4.124-4.123,4.124-4.124-1.38-1.38c-.346-.347-.488-.849-.372-1.326.799-3.301-.031-9.749-.638-14.456-.183-1.426-.347-2.698-.441-3.693-.066-.698-.817-1.126-1.505-1.139h-.031c-.75,0-1.367.488-1.541,1.222-.731,3.11-1.535,6.629-1.653,7.24-.099.511-.472.925-.969,1.077-.498.151-1.038.018-1.406-.35l-14.418-14.417c-.405-.407-1.121-.407-1.527,0-.278.277-.44.598-.46.903-.018.28.087.53.32.762l10.048,10.049c.549.55.549,1.44,0,1.989-.55.55-1.44.549-1.989,0l-3.999-3.998c-.421-.421-1.106-.42-1.527,0-.15.15-.865.939-.139,1.665l4.224,4.223c.549.55.549,1.44,0,1.989-.55.55-1.44.55-1.989,0l-2.701-2.7c-.232-.233-.482-.33-.763-.32-.305.019-.625.182-.901.458-.204.204-.316.476-.316.765s.111.56.314.762l4.952,4.95c.549.549.549,1.44,0,1.989-.55.548-1.44.55-1.988,0l-2.99-2.988c-.217-.217-.447-.322-.703-.322-.319,0-.67.167-.963.461-.203.204-.315.474-.315.763s.112.561.315.763l5.091,5.092.002.002,5.241,5.242c1.59,1.591,3.914,2.092,6.064,1.31.157-.057.319-.085.481-.085.366,0,.726.143.995.412l1.33,1.33Zm-58.943-23.267l-3.302,3.302-1.036-1.037c-.55-.549-1.44-.549-1.989,0-.549.55-.549,1.44,0,1.989l2.031,2.031c.275.275.635.412.995.412s.72-.137.995-.412l4.297-4.296c.549-.549.549-1.44,0-1.989-.55-.55-1.44-.549-1.989,0Zm0,18.684l-3.302,3.302-1.036-1.036c-.55-.55-1.44-.55-1.989,0-.549.55-.549,1.44,0,1.989l2.031,2.031c.275.275.635.412.995.412s.72-.137.995-.412l4.297-4.297c.549-.55.549-1.44,0-1.989-.55-.55-1.44-.55-1.989,0Z"/></svg>