<svg xmlns="http://www.w3.org/2000/svg" viewBox="0 0 32 40" x="0px" y="0px"><title>Artboard 35</title><g data-name="Layer 2"><path d="M27.01074,21.25a1.72725,1.72725,0,0,0-.47827.07483A3.24867,3.24867,0,0,0,23.51074,19.25a2.22612,2.22612,0,0,0-.75.13818V18.75H28.5a1.25116,1.25116,0,0,0,1.25-1.25v-5a1.25116,1.25116,0,0,0-1.25-1.25h-16a1.25116,1.25116,0,0,0-1.25,1.25v5a1.25116,1.25116,0,0,0,1.25,1.25h4.76074v3.91846a2.81732,2.81732,0,0,0-4.61426,3.21338.74518.74518,0,0,0,.13282.16259l2.69043,2.48584.41406.41407a2.73172,2.73172,0,0,0,1.94434.80566h9.18261a2.7528,2.7528,0,0,0,2.75-2.75V24A2.7528,2.7528,0,0,0,27.01074,21.25ZM12.75,17.25v-4.5h15.5v4.5H22.76074V17a2.75,2.75,0,0,0-5.5,0v.25ZM28.26074,27a1.25116,1.25116,0,0,1-1.25,1.25H17.82813a1.257,1.257,0,0,1-.88379-.36621L13.88379,25.023a1.31743,1.31743,0,0,1,2.25293-1.354.74506.74506,0,0,0,.13965.15087l.93261.76123a.75017.75017,0,0,0,.47461.16895h.32715a.7502.7502,0,0,0,.75-.75V17a1.25,1.25,0,0,1,2.5,0v.99512L21.25977,18l.001.00488V25a.75.75,0,0,0,1.5,0V21.5a.75114.75114,0,0,1,.75-.75,1.75212,1.75212,0,0,1,1.75,1.75V25a.75.75,0,0,0,1.5,0V23a.25048.25048,0,0,1,.25-.25,1.25116,1.25116,0,0,1,1.25,1.25Z"/><path d="M8.5,2.25h-5A1.25116,1.25116,0,0,0,2.25,3.5v5A1.25116,1.25116,0,0,0,3.5,9.75h5A1.25116,1.25116,0,0,0,9.75,8.5v-5A1.25116,1.25116,0,0,0,8.5,2.25Zm-.25,6H3.75V3.75h4.5Z"/><path d="M12.5,9.75h16A1.25116,1.25116,0,0,0,29.75,8.5v-5A1.25116,1.25116,0,0,0,28.5,2.25h-16A1.25116,1.25116,0,0,0,11.25,3.5v5A1.25116,1.25116,0,0,0,12.5,9.75Zm.25-6h15.5v4.5H12.75Z"/><path d="M8.5,11.25h-5A1.25116,1.25116,0,0,0,2.25,12.5v5A1.25116,1.25116,0,0,0,3.5,18.75h5A1.25116,1.25116,0,0,0,9.75,17.5v-5A1.25116,1.25116,0,0,0,8.5,11.25Zm-.25,6H3.75v-4.5h4.5Z"/><path d="M8.5,20.25h-5A1.25116,1.25116,0,0,0,2.25,21.5v5A1.25116,1.25116,0,0,0,3.5,27.75h5A1.25116,1.25116,0,0,0,9.75,26.5v-5A1.25116,1.25116,0,0,0,8.5,20.25Zm-.25,6H3.75v-4.5h4.5Z"/><path d="M26,5.25H19a.75.75,0,0,0,0,1.5h7a.75.75,0,0,0,0-1.5Z"/><circle cx="15.5" cy="6" r="1.5"/><path d="M24,15.75h2a.75.75,0,0,0,0-1.5H24a.75.75,0,0,0,0,1.5Z"/><circle cx="15.5" cy="15" r="1.5"/></g><text x="0" y="47" fill="#000000" font-size="5px" font-weight="bold" font-family="'Helvetica Neue', Helvetica, Arial-Unicode, Arial, Sans-serif">Created by Anggara Putra</text><text x="0" y="52" fill="#000000" font-size="5px" font-weight="bold" font-family="'Helvetica Neue', Helvetica, Arial-Unicode, Arial, Sans-serif">from the Noun Project</text></svg>