<svg xmlns="http://www.w3.org/2000/svg" xmlns:xlink="http://www.w3.org/1999/xlink" version="1.1" x="0px" y="0px" viewBox="0 0 512 640" style="enable-background:new 0 0 512 512;" xml:space="preserve"><style type="text/css">
	.st0{fill-rule:evenodd;clip-rule:evenodd;}
</style><path class="st0" d="M290.3,345c-5.8,0-5.8,8.8,0,8.8h117.4c5.8,0,5.8-8.8,0-8.8H290.3z M401.8,285.8h-23.5v23.5h23.5V285.8z   M329.4,285.8h-23.5v23.5h23.5V285.8z M256.9,285.8h-23.5v23.5h23.5V285.8z M401.8,218.8h-23.5v23.5h23.5V218.8z M329.4,218.8h-23.5  v23.5h23.5V218.8z M256.9,218.8h-23.5v23.5h23.5V218.8z M122,162.8h313v-29c0-7.9-6.4-14.3-14.3-14.3H388c0,6.2,0.6,11.4-4.5,16.3  c-2.8,2.8-6.6,4.5-10.7,4.5h-22.1c-4.1,0-8.1-1.7-10.8-4.5l0,0c-5-5-4.5-10-4.5-16.3h-30.6c0,6.2,0.6,11.4-4.5,16.3  c-2.7,2.8-6.5,4.5-10.7,4.5h-22.1c-4.1,0-8.1-1.7-10.7-4.5h0c-5-5-4.5-10-4.5-16.3h-30.6c0,6.2,0.5,11.9-4.8,16.7  c-2.7,2.6-6.4,4.1-10.4,4.1h-22.1c-4.1,0-8.1-1.7-10.7-4.5h0c-5-5-4.5-10-4.5-16.3h-32.7c-7.9,0-14.3,6.4-14.3,14.3V162.8z   M134.9,270.2l16.9,9.8c6.6,3.8,0.8,13.9-5.8,10.1l-16.9-9.8c-12.3,11.2-32.1,2.4-32.1-14.2c0-17,20.7-25.6,32.7-13.5  C134.3,257.1,136.3,263.7,134.9,270.2L134.9,270.2z M121.5,260.8c-4.7-4.7-12.8-1.4-12.8,5.3c0,6.6,8.1,10,12.8,5.3  C124.4,268.4,124.4,263.7,121.5,260.8L121.5,260.8z M177.5,260.3c7.7,0,7.7,11.7,0,11.7h-7.3c-7.7,0-7.7-11.7,0-11.7H177.5z   M110.4,204.8c0-7.7,11.7-7.7,11.7,0v7.3c0,7.7-11.7,7.7-11.7,0V204.8z M54.9,271.9c-7.7,0-7.7-11.7,0-11.7h7.3  c7.7,0,7.7,11.7,0,11.7H54.9z M122,327.4c0,7.7-11.7,7.7-11.7,0v-7.3c0-7.7,11.7-7.7,11.7,0V327.4z M110.4,351.1  c-44.5-3-79.4-40.1-79.4-85s34.9-82,79.4-85v-47.3c0-14.3,11.7-26,26-26H169c0-5.2,0.5-9,4.5-13c2.7-2.7,6.6-4.5,10.8-4.5h22.1  c8.4,0,15.2,6.9,15.2,15.2v2.2h30.6c0-5.2,0.5-9,4.5-13c2.8-2.7,6.6-4.5,10.8-4.5h22.1c8.4,0,15.3,6.9,15.3,15.2v2.2h30.6  c0-5.2,0.5-9,4.5-13c2.7-2.7,6.6-4.5,10.8-4.5h22.1c8.4,0,15.2,6.9,15.2,15.2v2.2h32.7c14.3,0,26,11.7,26,26v227.7h4.2  c16.6,0,30.1,13.5,30.1,30.1v24.3c0,3.2-2.6,5.8-5.8,5.8H81.9c-3.2,0-5.8-2.6-5.8-5.8v-24.3c0-16.6,13.5-30.1,30.1-30.1h4.2V351.1z   M168.2,214.1c-28.7-28.7-75.3-28.7-104,0c-28.7,28.7-28.7,75.3,0,104c28.7,28.7,75.3,28.7,104,0  C196.9,289.4,196.9,242.8,168.2,214.1L168.2,214.1z M206.4,102h-22.1c-2,0-3.5,1.6-3.5,3.5V125c0,1,0.4,1.9,1,2.5h0  c0.7,0.7,1.5,1,2.5,1h22.1c2,0,3.5-1.6,3.5-3.6v-19.4C210,103.6,208.4,102,206.4,102L206.4,102z M372.8,102h-22.1  c-2,0-3.5,1.6-3.5,3.5V125c0,1,0.4,1.9,1,2.5l0,0c0.7,0.7,1.5,1,2.5,1h22.1c2,0,3.5-1.6,3.5-3.6v-19.4  C376.3,103.6,374.8,102,372.8,102L372.8,102z M289.6,102h-22.1c-1.9,0-3.5,1.6-3.5,3.5V125c0,1,0.4,1.9,1,2.5l0,0  c0.6,0.7,1.5,1,2.5,1h22.1c2,0,3.5-1.6,3.5-3.6v-19.4C293.1,103.6,291.5,102,289.6,102L289.6,102z M446.5,373.2  c-1.6,12.8-12.6,22.7-25.7,22.7H136.3c-13.1,0-24.1-9.8-25.8-22.7c-6.7,0-11.9-0.1-17.4,5.4c-3.3,3.3-5.4,7.9-5.4,13v18.4h381.6  v-18.4c0-10.1-8.3-18.4-18.4-18.4H446.5z"/><text x="0" y="527" fill="#000000" font-size="5px" font-weight="bold" font-family="'Helvetica Neue', Helvetica, Arial-Unicode, Arial, Sans-serif">Created by BEJOUN</text><text x="0" y="532" fill="#000000" font-size="5px" font-weight="bold" font-family="'Helvetica Neue', Helvetica, Arial-Unicode, Arial, Sans-serif">from the Noun Project</text></svg>