<svg xmlns="http://www.w3.org/2000/svg" xmlns:xlink="http://www.w3.org/1999/xlink" version="1.1" x="0px" y="0px" viewBox="0 0 100 125" style="enable-background:new 0 0 100 100;" xml:space="preserve"><path d="M52.6,18.79v-6.81c0-1.09-0.88-1.97-1.97-1.97s-1.97,0.88-1.97,1.97v6.81c0,1.09,0.88,1.97,1.97,1.97S52.6,19.87,52.6,18.79  z"/><path d="M32.94,23.72c0.36,0.63,1.03,0.99,1.71,0.99c0.33,0,0.67-0.08,0.98-0.26c0.94-0.54,1.26-1.75,0.72-2.69l-2.83-4.9  c-0.54-0.94-1.74-1.27-2.69-0.72c-0.94,0.54-1.26,1.75-0.72,2.69L32.94,23.72z"/><path d="M23.77,32.43l-4.9-2.83c-0.94-0.55-2.15-0.22-2.69,0.72c-0.54,0.94-0.22,2.15,0.72,2.69l4.9,2.83  c0.31,0.18,0.65,0.26,0.98,0.26c0.68,0,1.34-0.35,1.71-0.99C25.03,34.18,24.71,32.97,23.77,32.43z"/><path d="M20.18,49.95c0-1.09-0.88-1.97-1.97-1.97h-5.66c-1.09,0-1.97,0.88-1.97,1.97s0.88,1.97,1.97,1.97h5.66  C19.3,51.92,20.18,51.03,20.18,49.95z"/><path d="M21.17,64.22l-4.9,2.83c-0.94,0.54-1.26,1.75-0.72,2.69c0.36,0.63,1.03,0.99,1.71,0.99c0.33,0,0.67-0.08,0.98-0.26l4.9-2.83  c0.94-0.54,1.26-1.75,0.72-2.69C23.31,64,22.11,63.67,21.17,64.22z"/><path d="M34.54,76.09c-0.95-0.55-2.15-0.22-2.69,0.72l-2.83,4.9c-0.54,0.94-0.22,2.15,0.72,2.69c0.31,0.18,0.65,0.26,0.98,0.26  c0.68,0,1.34-0.35,1.71-0.99l2.83-4.9C35.81,77.84,35.48,76.63,34.54,76.09z"/><path d="M49.37,80.4c-1.09,0-1.97,0.88-1.97,1.97v5.66c0,1.09,0.88,1.97,1.97,1.97s1.97-0.88,1.97-1.97v-5.66  C51.34,81.28,50.46,80.4,49.37,80.4z"/><path d="M67.06,77.44c-0.54-0.94-1.74-1.27-2.69-0.72c-0.94,0.54-1.26,1.75-0.72,2.69l2.83,4.9c0.36,0.63,1.03,0.99,1.71,0.99  c0.33,0,0.67-0.08,0.98-0.26c0.94-0.54,1.26-1.75,0.72-2.69L67.06,77.44z"/><path d="M83.1,68.14l-4.9-2.83c-0.94-0.55-2.15-0.22-2.69,0.72c-0.54,0.94-0.22,2.15,0.72,2.69l4.9,2.83  c0.31,0.18,0.65,0.26,0.98,0.26c0.68,0,1.34-0.35,1.71-0.99C84.37,69.89,84.05,68.69,83.1,68.14z"/><path d="M87.45,49.24h-5.66c-1.09,0-1.97,0.88-1.97,1.97s0.88,1.97,1.97,1.97h5.66c1.09,0,1.97-0.88,1.97-1.97  S88.54,49.24,87.45,49.24z"/><path d="M77.85,37.2c0.33,0,0.67-0.08,0.98-0.26l4.9-2.83c0.94-0.54,1.26-1.75,0.72-2.69c-0.54-0.94-1.74-1.27-2.69-0.72l-4.9,2.83  c-0.94,0.54-1.26,1.75-0.72,2.69C76.51,36.85,77.17,37.2,77.85,37.2z"/><path d="M66.44,25.33c0.68,0,1.34-0.35,1.71-0.99l2.83-4.9c0.54-0.94,0.22-2.15-0.72-2.69c-0.94-0.55-2.15-0.22-2.69,0.72l-2.83,4.9  c-0.54,0.94-0.22,2.15,0.72,2.69C65.77,25.25,66.11,25.33,66.44,25.33z"/><path d="M46.35,51.05l-2.31,1.92c-0.81,0.71-0.95,1.94-0.24,2.78c0.39,0.47,0.95,0.71,1.5,0.71c0.45,0,0.89-0.16,1.26-0.45  l3.73-3.13L46.35,51.05z"/><path d="M70.07,31.27L49.69,48.26l-18.87-8.83c-0.99-0.46-2.16-0.03-2.62,0.95c-0.46,0.99-0.04,2.16,0.95,2.62l27.2,12.72  c0.27,0.13,0.55,0.18,0.83,0.18c0.74,0,1.45-0.42,1.79-1.14c0.46-0.99,0.04-2.16-0.95-2.62l-4.39-2.06L72.6,34.29  c0.84-0.68,0.95-1.94,0.26-2.76C72.15,30.69,70.91,30.58,70.07,31.27z"/><text x="0" y="115" fill="#000000" font-size="5px" font-weight="bold" font-family="'Helvetica Neue', Helvetica, Arial-Unicode, Arial, Sans-serif">Created by ARI NOFIANA</text><text x="0" y="120" fill="#000000" font-size="5px" font-weight="bold" font-family="'Helvetica Neue', Helvetica, Arial-Unicode, Arial, Sans-serif">from the Noun Project</text></svg>