<svg xmlns="http://www.w3.org/2000/svg" xmlns:xlink="http://www.w3.org/1999/xlink" version="1.1" x="0px" y="0px" viewBox="0 0 100 125" style="enable-background:new 0 0 100 100;" xml:space="preserve"><path d="M89.45,44.52l-7.17-2.31c-0.61-2.56-1.52-5.02-2.71-7.34l3.78-7.33c0.16-0.31,0.09-0.67-0.14-0.91l-8.27-8.28  c-0.24-0.24-0.61-0.28-0.91-0.14l-6.71,3.45c-2.16-1.35-4.56-2.46-7.11-3.29l-2.53-7.81c-0.09-0.33-0.41-0.55-0.74-0.55h-11.7  c-0.33,0-0.64,0.22-0.74,0.55l-2.31,7.14c-2.56,0.61-5.02,1.54-7.34,2.71l-7.33-3.75c-0.31-0.16-0.67-0.09-0.91,0.14l-8.27,8.27  c-0.25,0.25-0.31,0.61-0.16,0.91l3.45,6.68c-1.35,2.2-2.46,4.58-3.29,7.11l-7.81,2.53C10.22,42.4,10,42.7,10,43.04v11.69  c0,0.35,0.22,0.64,0.55,0.75l7.14,2.29c0.61,2.56,1.52,5.02,2.71,7.34l-3.75,7.34c-0.16,0.3-0.09,0.67,0.14,0.91l8.27,8.27  c0.25,0.24,0.61,0.3,0.91,0.14l6.68-3.42c2.2,1.35,4.58,2.45,7.12,3.26l2.51,7.83c0.11,0.33,0.41,0.55,0.75,0.55h11.69  c0.35,0,0.64-0.22,0.75-0.55l2.29-7.14c2.56-0.63,5.02-1.54,7.34-2.73l7.34,3.76c0.3,0.16,0.67,0.09,0.91-0.16l8.27-8.27  c0.24-0.24,0.3-0.61,0.14-0.91l-3.42-6.68c1.35-2.23,2.45-4.61,3.25-7.11l7.86-2.53C89.78,57.6,90,57.29,90,56.96v-11.7  C90,44.91,89.78,44.61,89.45,44.52z M50,74.09c-13.29,0-24.08-10.81-24.08-24.09c0-13.27,10.79-24.08,24.08-24.08  s24.08,10.81,24.08,24.08C74.08,63.28,63.29,74.09,50,74.09z"/><path d="M65.86,40.5l2.93-1.69c0.22-0.14,0.49-0.13,0.71-0.02c-1.87-3.23-4.49-5.95-7.64-7.91c0.08,0.22,0.08,0.45-0.05,0.67  l-1.69,2.92c-0.14,0.25-0.41,0.39-0.67,0.39c-0.14,0-0.27-0.03-0.39-0.09c-0.38-0.22-0.5-0.71-0.3-1.08l1.69-2.92  c0.14-0.24,0.36-0.35,0.6-0.38c-3.04-1.73-6.54-2.75-10.26-2.89v3.84c0,0.44-0.35,0.78-0.78,0.78s-0.78-0.35-0.78-0.78v-3.84  c-3.59,0.13-6.96,1.07-9.95,2.68c0.06,0.06,0.13,0.13,0.17,0.2l1.69,2.92c0.22,0.38,0.09,0.86-0.28,1.08  c-0.13,0.06-0.27,0.09-0.39,0.09c-0.27,0-0.53-0.14-0.67-0.39l-1.69-2.92c-0.05-0.08-0.06-0.14-0.08-0.22  c-2.89,1.84-5.33,4.3-7.14,7.22l2.89,1.66c0.38,0.22,0.5,0.71,0.28,1.07c-0.14,0.25-0.41,0.39-0.67,0.39  c-0.13,0-0.27-0.03-0.39-0.09l-2.9-1.68c-1.52,2.9-2.43,6.18-2.56,9.65h3.12c0.44,0,0.78,0.36,0.78,0.78c0,0.44-0.35,0.78-0.78,0.78  h-3.12c0.11,3.45,0.99,6.7,2.49,9.58l2.59-1.51c0.38-0.22,0.86-0.09,1.07,0.28c0.22,0.38,0.09,0.86-0.28,1.08l-2.59,1.49  c1.73,2.84,4.06,5.29,6.84,7.11l1.49-2.59c0.22-0.38,0.69-0.5,1.07-0.28c0.38,0.22,0.5,0.69,0.28,1.07l-1.51,2.62  c2.84,1.62,6.05,2.6,9.49,2.84v-3.12c0-0.42,0.35-0.78,0.78-0.78c0.44,0,0.78,0.36,0.78,0.78v3.2c3.5-0.02,6.79-0.83,9.74-2.27  l-1.66-2.89c-0.22-0.38-0.09-0.85,0.28-1.07c0.38-0.22,0.86-0.09,1.08,0.28l1.68,2.93c0,0,0,0.02,0.02,0.02  c2.98-1.71,5.55-4.08,7.48-6.93c-0.08-0.02-0.17-0.02-0.24-0.06l-2.93-1.69c-0.38-0.22-0.5-0.69-0.28-1.07  c0.2-0.38,0.69-0.5,1.07-0.28l2.93,1.68c0.08,0.06,0.14,0.13,0.2,0.19c1.76-2.96,2.82-6.37,3.04-10.01  c-0.13,0.09-0.28,0.16-0.47,0.16H68.6c-0.44,0-0.78-0.35-0.78-0.78c0-0.42,0.35-0.78,0.78-0.78h3.37c0.2,0,0.39,0.08,0.53,0.22  v-0.16c0-3.75-0.93-7.29-2.57-10.42c-0.03,0.24-0.14,0.45-0.36,0.58l-2.93,1.69c-0.13,0.08-0.27,0.11-0.39,0.11  c-0.27,0-0.53-0.14-0.67-0.39C65.36,41.19,65.48,40.71,65.86,40.5z M62.86,40.31l-11.8,9.84l3.18,1.49  c0.39,0.19,0.56,0.64,0.38,1.04c-0.13,0.3-0.42,0.45-0.71,0.45c-0.11,0-0.24-0.02-0.33-0.06l-3.84-1.8l-2.43,2.02  c-0.14,0.11-0.31,0.17-0.5,0.17c-0.22,0-0.44-0.09-0.6-0.28c-0.28-0.33-0.24-0.83,0.09-1.1l1.87-1.55l-10.84-5.07  c-0.39-0.17-0.56-0.64-0.38-1.04s0.66-0.56,1.05-0.38l11.48,5.36l12.36-10.29c0.33-0.28,0.83-0.24,1.1,0.09  C63.24,39.55,63.19,40.05,62.86,40.31z"/><text x="0" y="115" fill="#000000" font-size="5px" font-weight="bold" font-family="'Helvetica Neue', Helvetica, Arial-Unicode, Arial, Sans-serif">Created by ARI NOFIANA</text><text x="0" y="120" fill="#000000" font-size="5px" font-weight="bold" font-family="'Helvetica Neue', Helvetica, Arial-Unicode, Arial, Sans-serif">from the Noun Project</text></svg>