<svg xmlns="http://www.w3.org/2000/svg" viewBox="0 0 64 80" x="0px" y="0px"><g><circle cx="23" cy="14" r="2"/><path d="M4,39a5.006,5.006,0,0,1,5-5h.42l5.712,10,2,3.5a1,1,0,0,0,1.736,0l2-3.5,5.705-9.983a5.018,5.018,0,0,1,4.672,3.67l4.79,17.58A1,1,0,0,0,38,55V46h4v9.13a4.871,4.871,0,0,1-7.676,3.981,4.76,4.76,0,0,1-1.773-2.338l-2.43-6.8A.99.99,0,0,0,31,49V45a1,1,0,0,0-1-1H29V42H27v2H22a1,1,0,0,0-1,1v4a1,1,0,0,0,1,1h5V62h2V52.781l1.666,4.66a6.746,6.746,0,0,0,2.51,3.308A6.871,6.871,0,0,0,44,55.13V42h3a1,1,0,0,0,1-1V33a1,1,0,0,0-1-1H44V27h.764l15.789,7.9A1,1,0,0,0,62,34V7a1,1,0,0,0-1.447-.895L44.764,14H37a1,1,0,0,0-1,1V26a1,1,0,0,0,1,1h1v5H37a1,1,0,0,0-1,1V47.526L33.174,37.154A7.031,7.031,0,0,0,26.42,32H24V28h3a3,3,0,0,0,3-3V21h3a1,1,0,0,0,.94-1.342l-3.562-9.8A7.011,7.011,0,0,0,36,3a1,1,0,0,0-1-1H19a7.008,7.008,0,0,0-7,7V32H9a7.008,7.008,0,0,0-7,7V62H4Zm25,9H23V46h6ZM46,15.618l14-7V32.382l-14-7ZM38,16h6v9H38Zm4,11v5H40V27Zm-4,7h8v6H38Zm0,8h4v2H38ZM19,43.234l-1,1.75-1-1.75V34h2ZM24.277,34,21,39.734V34h3.277ZM19,4H33.9A5.008,5.008,0,0,1,29,8H14.1A5.008,5.008,0,0,1,19,4Zm-5,6h3.932A7.311,7.311,0,0,1,14,15.527Zm0,7.7A9.3,9.3,0,0,0,19.94,10H28.3l3.272,9H29a1,1,0,0,0-1,1v5a1,1,0,0,1-1,1H23a1,1,0,0,0-1,1v5H14ZM13,34h2v5.734L11.723,34Z"/><rect x="8" y="42" width="2" height="20"/><rect x="55.281" y="13.365" width="1.796" height="2" transform="translate(-0.99 24.066) rotate(-23.974)"/><rect x="47.732" y="15.736" width="6.225" height="2.001" transform="translate(-2.415 22.092) rotate(-23.962)"/><rect x="51" y="4" width="5" height="2" transform="translate(17.392 44.793) rotate(-53.119)"/><rect x="46" y="2" width="2" height="5"/><rect x="39.5" y="2.5" width="2" height="5" transform="translate(5.1 25.3) rotate(-36.87)"/><rect x="17" y="52" width="2" height="2"/><rect x="17" y="58" width="2" height="2"/></g><text x="0" y="79" fill="#000000" font-size="5px" font-weight="bold" font-family="'Helvetica Neue', Helvetica, Arial-Unicode, Arial, Sans-serif">Created by monkik</text><text x="0" y="84" fill="#000000" font-size="5px" font-weight="bold" font-family="'Helvetica Neue', Helvetica, Arial-Unicode, Arial, Sans-serif">from the Noun Project</text></svg>