<svg xmlns="http://www.w3.org/2000/svg" xmlns:xlink="http://www.w3.org/1999/xlink" version="1.1" x="0px" y="0px" viewBox="0 0 64 80" style="enable-background:new 0 0 64 64;" xml:space="preserve"><title>002-icon-design</title><path d="M63.7,56.8L53.5,46.5l4.3-4.3c0.4-0.4,0.4-1,0-1.4c-0.2-0.2-0.4-0.3-0.7-0.3H41.5c-0.6,0-1,0.4-1,1V57c0,0.6,0.5,1,1,1  c0.3,0,0.5-0.1,0.7-0.3l4.3-4.3l10.2,10.2c0.4,0.4,1,0.4,1.4,0c0,0,0,0,0,0l5.5-5.5c0.2-0.2,0.3-0.4,0.3-0.7  C64,57.2,63.9,57,63.7,56.8z M57.5,61.5L47.3,51.3c-0.2-0.2-0.4-0.3-0.7-0.3c-0.3,0-0.5,0.1-0.7,0.3l-3.3,3.3V42.5h12.1l-3.3,3.3  c-0.4,0.4-0.4,1,0,1.4l10.2,10.2L57.5,61.5z"/><path d="M39.5,45.4c-1.3-0.6-2.1-1.9-2.3-3.3c0-0.2,0-0.4,0-0.7c0-2.4,2-4.4,4.4-4.4c1.6,0,3.2,0.9,3.9,2.4c0.2,0.5,0.8,0.8,1.3,0.5  c0.5-0.2,0.8-0.8,0.5-1.3c0,0,0-0.1-0.1-0.1c-0.8-1.5-2.1-2.7-3.7-3.2c-0.6-0.2-1.3-0.3-2-0.3c-3.5,0-6.4,2.9-6.4,6.4  c0,0.3,0,0.7,0.1,1c0.3,2,1.6,3.8,3.4,4.7c0.1,0.1,0.3,0.1,0.5,0.1c0.6,0,1-0.5,1-1C40.1,45.9,39.9,45.6,39.5,45.4L39.5,45.4z"/><path d="M39.3,49.8c-0.4-0.1-0.8-0.2-1.1-0.4c-3-1.2-5-4-5.2-7.2c0-0.2,0-0.5,0-0.7c0.1-4.7,4-8.5,8.7-8.4c3.8,0.1,7,2.6,8.1,6.2  c0.1,0.5,0.7,0.9,1.2,0.7s0.9-0.7,0.7-1.2c-1-3.8-4-6.7-7.8-7.6c-0.8-0.2-1.6-0.3-2.4-0.3c-5.8,0-10.5,4.8-10.5,10.6  c0,0.3,0,0.6,0,0.9c0.3,3.9,2.8,7.3,6.4,8.9c0.5,0.2,0.9,0.4,1.4,0.5c0.1,0,0.2,0,0.2,0c0.6,0.1,1.1-0.3,1.1-0.9  S39.9,49.8,39.3,49.8L39.3,49.8z"/><rect x="2" y="51.2" width="2" height="2"/><rect x="59" y="3" width="2" height="2"/><rect x="8" y="2" width="2" height="2"/><rect x="7" y="59" width="2" height="2"/><rect x="49.8" y="3.9" width="2" height="2"/><rect x="1" y="8" width="2" height="2"/><rect x="22" y="59" width="2" height="2"/><rect x="60" y="15" width="2" height="2"/><path d="M29.6,29.6H56c0.6,0,1-0.4,1-1l0,0l0,0c0-15-11.6-27.4-26.6-28.4h-0.1c-0.5,0-1,0-1.5,0h-0.2c-0.5,0-1,0-1.5,0h-0.2  C11.8,1.1,0.2,13.5,0.2,28.5l0,0l0,0c0,5,1.3,9.8,3.8,14.1H4c4.7,8.3,13.3,13.6,22.8,14.2H27c0.5,0,1.1,0,1.7,0c0.6,0,1-0.4,1-1l0,0  L29.6,29.6z M16.8,43.3h10.8v11.6C23.3,54.3,19.3,50,16.8,43.3z M27.6,41.3H16.1c-1.1-3.8-1.7-7.8-1.8-11.7h13.2V41.3z M2.2,29.6  h10.2c0.1,4,0.6,7.9,1.7,11.7H5.5C3.5,37.7,2.4,33.7,2.2,29.6z M5.4,15.8H14c-1.1,3.8-1.6,7.8-1.7,11.7H2.2  C2.3,23.5,3.5,19.4,5.4,15.8z M29.6,2.2c4.3,0.6,8.3,4.9,10.8,11.7H29.6V2.2z M27.6,2.2v11.7H16.8C19.2,7.1,23.3,2.8,27.6,2.2z   M27.6,15.8v11.7H14.4c0.1-4,0.7-7.9,1.8-11.7L27.6,15.8z M29.6,15.8H41c1.1,3.8,1.7,7.8,1.8,11.7H29.6V15.8z M55,27.6H44.8  c-0.1-4-0.6-7.9-1.7-11.7h8.6C53.7,19.4,54.8,23.5,55,27.6z M50.5,13.8h-8C41.3,9.8,39,6.1,36,3.2C41.9,4.9,47.1,8.7,50.5,13.8z   M21.2,3.2c-3.1,2.9-5.3,6.6-6.6,10.7h-8C10.1,8.7,15.3,4.9,21.2,3.2z M6.7,43.3h8c1.2,4,3.5,7.7,6.6,10.6  C15.3,52.2,10.1,48.4,6.7,43.3z"/></svg>