<svg width="430" height="261" viewBox="0 0 430 261" fill="none" xmlns="http://www.w3.org/2000/svg">
<path d="M12.6001 60.4C13.2629 60.4 13.8001 59.8627 13.8001 59.2C13.8001 58.5373 13.2629 58 12.6001 58C11.9374 58 11.4001 58.5373 11.4001 59.2C11.4001 59.8627 11.9374 60.4 12.6001 60.4Z" fill="#474D66"/>
<path d="M1.2 74.2C1.20095 73.4046 1.51733 72.6421 2.07973 72.0797C2.64213 71.5173 3.40464 71.2009 4.2 71.2H4.452L7.8792 77.2L9.0792 79.3C9.1317 79.3918 9.20751 79.468 9.29897 79.5211C9.39042 79.5741 9.49427 79.6021 9.6 79.6021C9.70572 79.6021 9.80957 79.5741 9.90103 79.5211C9.99248 79.468 10.0683 79.3918 10.1208 79.3L11.3208 77.2L14.7438 71.2102C15.3846 71.2309 16.0021 71.4557 16.5063 71.8518C17.0105 72.2478 17.3751 72.7945 17.547 73.4122L20.421 83.9602C20.4592 84.1007 20.5472 84.2226 20.6686 84.303C20.79 84.3835 20.9365 84.417 21.0808 84.3974C21.2251 84.3778 21.3573 84.3064 21.4529 84.1965C21.5484 84.0865 21.6007 83.9456 21.6 83.8V78.4H24V83.878C23.9999 84.4133 23.8527 84.9382 23.5746 85.3956C23.2965 85.853 22.8981 86.2252 22.4229 86.4717C21.9478 86.7181 21.414 86.8293 20.88 86.7931C20.3459 86.757 19.832 86.5748 19.3944 86.2666C18.9009 85.9227 18.5286 85.4317 18.3306 84.8638L16.8726 80.7838C17.0166 80.7676 17.1497 80.6992 17.2468 80.5917C17.3439 80.4842 17.3984 80.3449 17.4 80.2V77.8C17.4 77.6409 17.3368 77.4883 17.2243 77.3757C17.1117 77.2632 16.9591 77.2 16.8 77.2H16.2V76H15V77.2H12C11.8409 77.2 11.6883 77.2632 11.5757 77.3757C11.4632 77.4883 11.4 77.6409 11.4 77.8V80.2C11.4 80.3591 11.4632 80.5117 11.5757 80.6243C11.6883 80.7368 11.8409 80.8 12 80.8H15V88H16.2V82.4686L17.1996 85.2646C17.4804 86.0681 18.0074 86.7626 18.7056 87.2494C19.323 87.6837 20.0479 87.9401 20.8011 87.9907C21.5542 88.0413 22.3069 87.8841 22.9768 87.5363C23.6468 87.1885 24.2085 86.6635 24.6005 86.0183C24.9925 85.3732 25.1999 84.6329 25.2 83.878V76H27C27.1591 76 27.3117 75.9368 27.4243 75.8243C27.5368 75.7117 27.6 75.5591 27.6 75.4V70.6C27.6 70.4409 27.5368 70.2883 27.4243 70.1757C27.3117 70.0632 27.1591 70 27 70H25.2V67H25.6584L35.1318 71.74C35.2235 71.7858 35.3255 71.8074 35.4279 71.8026C35.5303 71.7979 35.6298 71.7669 35.7169 71.7128C35.804 71.6586 35.8757 71.583 35.9253 71.4933C35.9748 71.4035 36.0006 71.3025 36 71.2V55C36 54.8977 35.9739 54.7971 35.9242 54.7078C35.8744 54.6184 35.8026 54.5432 35.7156 54.4894C35.6286 54.4356 35.5293 54.405 35.4271 54.4003C35.325 54.3957 35.2233 54.4173 35.1318 54.463L25.6584 59.2H21C20.8409 59.2 20.6883 59.2632 20.5757 59.3757C20.4632 59.4883 20.4 59.6409 20.4 59.8V66.4C20.4 66.5591 20.4632 66.7117 20.5757 66.8243C20.6883 66.9368 20.8409 67 21 67H21.6V70H21C20.8409 70 20.6883 70.0632 20.5757 70.1757C20.4632 70.2883 20.4 70.4409 20.4 70.6V79.3156L18.7044 73.0924C18.4587 72.2055 17.9297 71.4232 17.1981 70.8649C16.4665 70.3066 15.5723 70.0029 14.652 70H13.2V67.6H15C15.4774 67.6 15.9352 67.4104 16.2728 67.0728C16.6104 66.7352 16.8 66.2774 16.8 65.8V63.4H18.6C18.6965 63.4 18.7915 63.3768 18.8771 63.3323C18.9627 63.2877 19.0363 63.2232 19.0916 63.1442C19.147 63.0652 19.1824 62.974 19.195 62.8784C19.2076 62.7827 19.197 62.6855 19.164 62.5948L17.0268 56.7148C17.9771 56.5227 18.8319 56.0083 19.4466 55.2585C20.0613 54.5087 20.3981 53.5695 20.4 52.6C20.4 52.4409 20.3368 52.2883 20.2243 52.1757C20.1117 52.0632 19.9591 52 19.8 52H10.2C9.08648 52.0013 8.01893 52.4442 7.23155 53.2316C6.44418 54.0189 6.00127 55.0865 6 56.2V70H4.2C3.08648 70.0013 2.01893 70.4442 1.23155 71.2315C0.444177 72.0189 0.00127042 73.0865 0 74.2V88H1.2V74.2ZM16.2 79.6H12.6V78.4H16.2V79.6ZM26.4 60.1708L34.8 55.9708V70.2292L26.4 66.0292V60.1708ZM21.6 60.4H25.2V65.8H21.6V60.4ZM24 67V70H22.8V67H24ZM21.6 71.2H26.4V74.8H21.6V71.2ZM21.6 76H24V77.2H21.6V76ZM10.2 76.7404L9.6 77.7904L9 76.7404V71.2H10.2V76.7404ZM13.3662 71.2L11.4 74.6404V71.2H13.3662ZM10.2 53.2H19.14C19.0008 53.8772 18.6324 54.4857 18.0969 54.9229C17.5613 55.3601 16.8913 55.5992 16.2 55.6H7.26C7.39915 54.9228 7.76757 54.3143 8.30314 53.8771C8.8387 53.4399 9.50864 53.2008 10.2 53.2ZM7.2 56.8H9.5592C9.46312 57.5022 9.19832 58.1707 8.78745 58.7483C8.37659 59.3258 7.83189 59.7952 7.2 60.1162V56.8ZM7.2 61.42C8.16254 61.0538 9.00496 60.4284 9.63399 59.613C10.263 58.7976 10.6541 57.824 10.764 56.8H15.78L17.7432 62.2H16.2C16.0409 62.2 15.8883 62.2632 15.7757 62.3757C15.6632 62.4883 15.6 62.6409 15.6 62.8V65.8C15.6 65.9591 15.5368 66.1117 15.4243 66.2243C15.3117 66.3368 15.1591 66.4 15 66.4H12.6C12.4409 66.4 12.2883 66.4632 12.1757 66.5757C12.0632 66.6883 12 66.8409 12 67V70H7.2V61.42ZM6.6 71.2H7.8V74.6404L5.8338 71.2H6.6Z" fill="#474D66"/>
<path d="M4.79985 76H3.59985V88H4.79985V76Z" fill="#474D66"/>
<path d="M32.7564 58.6517L31.7717 59.0896L32.2593 60.1861L33.244 59.7482L32.7564 58.6517Z" fill="#474D66"/>
<path d="M30.7698 59.5349L27.3567 61.0518L27.8443 62.1489L31.2574 60.632L30.7698 59.5349Z" fill="#474D66"/>
<path d="M31.32 52.24L29.5195 54.6396L30.4794 55.3598L32.2799 52.9602L31.32 52.24Z" fill="#474D66"/>
<path d="M27.6001 52H26.4001V55H27.6001V52Z" fill="#474D66"/>
<path d="M22.68 52.24L21.72 52.96L23.52 55.36L24.48 54.64L22.68 52.24Z" fill="#474D66"/>
<path d="M10.2 82H9V83.2H10.2V82Z" fill="#474D66"/>
<path d="M10.2 85.6001H9V86.8001H10.2V85.6001Z" fill="#474D66"/>
<path d="M284.6 53H315C316.485 52.9983 317.908 52.4078 318.958 51.3579C320.008 50.3081 320.598 48.8847 320.6 47.4V46.6C320.601 45.2029 320.461 43.8093 320.184 42.44C319.778 40.4382 319.077 38.5078 318.104 36.712L316.698 37.4736C317.442 38.8551 318.012 40.3233 318.396 41.8448C317.188 41.9905 316.057 42.5129 315.164 43.3377C314.27 44.1626 313.658 45.248 313.416 46.44L314.984 46.7536C315.165 45.8679 315.629 45.0649 316.305 44.4651C316.982 43.8653 317.834 43.5011 318.735 43.4272C318.91 44.4757 318.999 45.5369 319 46.6V47.4C318.999 48.4605 318.577 49.4771 317.827 50.227C317.077 50.9769 316.06 51.3987 315 51.4H307.736C307.544 50.0683 306.879 48.8504 305.862 47.9689C304.845 47.0875 303.545 46.6016 302.2 46.6V48.2C303.122 48.2012 304.015 48.5201 304.729 49.103C305.443 49.6859 305.934 50.4971 306.12 51.4H299.8C298.739 51.4 297.722 50.9786 296.972 50.2284C296.221 49.4783 295.8 48.4609 295.8 47.4C295.8 46.3391 296.221 45.3217 296.972 44.5716C297.722 43.8214 298.739 43.4 299.8 43.4H307.032C307.136 44.4111 307.482 45.3824 308.04 46.232L309.386 45.368C308.916 44.7405 308.645 43.9853 308.611 43.2016C308.577 42.4178 308.781 41.6421 309.195 40.976L307.878 40.0672C307.519 40.5911 307.265 41.1795 307.13 41.8H302.936C302.744 40.4683 302.079 39.2504 301.062 38.3689C300.045 37.4875 298.745 37.0016 297.4 37V38.6C298.322 38.6012 299.215 38.9201 299.929 39.503C300.643 40.0859 301.134 40.8971 301.32 41.8H299.8C298.874 41.8008 297.962 42.0312 297.147 42.4707C296.332 42.9102 295.638 43.5451 295.129 44.3184C294.346 44.2225 293.593 43.9583 292.922 43.544C292.251 43.1297 291.678 42.5752 291.242 41.9184L290.866 41.3536L289.534 42.2416L289.91 42.8016C290.428 43.5766 291.094 44.2413 291.87 44.7573C292.646 45.2733 293.517 45.6304 294.432 45.808C294.14 46.7841 294.121 47.8216 294.378 48.8076C294.635 49.7935 295.157 50.6902 295.888 51.4H284.6C283.669 51.3986 282.767 51.0724 282.051 50.4776C281.334 49.8828 280.848 49.0566 280.675 48.1416C282.024 47.9996 283.317 47.527 284.44 46.7656C285.917 48.2065 287.901 49.009 289.965 49C290.051 49 290.138 49 290.226 48.996L290.174 47.396C289.351 47.4289 288.53 47.2983 287.758 47.0118C286.985 46.7252 286.278 46.2883 285.675 45.7264C286.049 45.3543 286.387 44.9474 286.684 44.5112L287.133 43.8392L285.8 42.952L285.352 43.624C284.819 44.426 284.118 45.1027 283.297 45.6073C282.477 46.1118 281.556 46.4323 280.6 46.5464C280.609 43.4539 281.366 40.4095 282.808 37.6736C283.465 37.5131 284.156 37.5585 284.786 37.8036C285.417 38.0488 285.957 38.4818 286.333 39.044L287.664 38.156C287.236 37.5178 286.664 36.9891 285.994 36.6126C285.324 36.2362 284.575 36.0225 283.807 35.9888C284.946 34.2731 286.353 32.7509 287.974 31.48C288.442 33.7664 289.834 35.5464 291.582 36.052C291.199 37.065 291.001 38.1391 291 39.2224H292.6C292.597 38.2511 292.787 37.2888 293.159 36.3914C293.531 35.494 294.077 34.6793 294.766 33.9944L295.194 33.5656L294.063 32.4344L293.634 32.8632C293.123 33.3786 292.675 33.954 292.302 34.5768C290.845 34.3632 289.64 32.6112 289.434 30.4512C290.978 29.4516 292.658 28.6811 294.423 28.164L293.977 26.6272C291.907 27.2289 289.944 28.1513 288.16 29.3608C285.34 31.2662 283.03 33.8342 281.433 36.8397C279.836 39.8452 279.001 43.1966 279 46.6V47.4C279.002 48.8847 279.592 50.3081 280.642 51.3579C281.692 52.4078 283.115 52.9983 284.6 53Z" fill="#474D66"/>
<path d="M295 25.8H298.051C298.249 26.4058 298.492 26.9957 298.779 27.5648L296.624 29.72C296.475 29.8686 296.357 30.045 296.277 30.2392C296.197 30.4333 296.155 30.6414 296.155 30.8516C296.155 31.0618 296.197 31.2699 296.277 31.464C296.357 31.6582 296.475 31.8346 296.624 31.9832L300.018 35.3768C300.166 35.5254 300.343 35.6434 300.537 35.7238C300.731 35.8042 300.939 35.8457 301.149 35.8457C301.359 35.8457 301.568 35.8042 301.762 35.7238C301.956 35.6434 302.132 35.5254 302.281 35.3768L304.435 33.2216C304.647 33.3288 304.863 33.4296 305.081 33.5248C305.444 33.6848 305.818 33.8248 306.201 33.9504V37C306.201 37.4243 306.369 37.8313 306.669 38.1314C306.97 38.4314 307.376 38.6 307.801 38.6H312.601C313.025 38.6 313.432 38.4314 313.732 38.1314C314.032 37.8313 314.201 37.4243 314.201 37V33.9488C314.807 33.751 315.397 33.5076 315.966 33.2208L318.12 35.376C318.269 35.5246 318.445 35.6426 318.639 35.723C318.833 35.8035 319.041 35.8449 319.252 35.8449C319.462 35.8449 319.67 35.8035 319.864 35.723C320.058 35.6426 320.235 35.5246 320.383 35.376L323.778 31.9824C323.926 31.8338 324.044 31.6574 324.125 31.4632C324.205 31.2691 324.246 31.061 324.246 30.8508C324.246 30.6406 324.205 30.4325 324.125 30.2384C324.044 30.0442 323.926 29.8678 323.778 29.7192L321.622 27.5648C321.908 26.9957 322.151 26.4057 322.349 25.8H325.4C325.824 25.8 326.231 25.6314 326.531 25.3314C326.831 25.0313 327 24.6243 327 24.2V19.4C327 18.9757 326.831 18.5687 326.531 18.2686C326.231 17.9686 325.824 17.8 325.4 17.8H322.349C322.151 17.1942 321.908 16.6043 321.621 16.0352L323.777 13.88C324.077 13.58 324.245 13.1731 324.245 12.7488C324.245 12.3245 324.077 11.9176 323.777 11.6176L320.382 8.2232C320.234 8.07456 320.057 7.95664 319.863 7.8762C319.669 7.79575 319.461 7.75434 319.251 7.75434C319.041 7.75434 318.833 7.79575 318.638 7.8762C318.444 7.95664 318.268 8.07456 318.119 8.2232L315.965 10.3832C315.396 10.095 314.806 9.85034 314.2 9.6512V6.6C314.2 6.17565 314.031 5.76869 313.731 5.46863C313.431 5.16857 313.024 5 312.6 5H307.8C307.376 5 306.969 5.16857 306.669 5.46863C306.369 5.76869 306.2 6.17565 306.2 6.6V9.6512C305.818 9.776 305.444 9.9184 305.08 10.076C304.862 10.1712 304.646 10.272 304.434 10.3792L302.28 8.2232C301.98 7.92325 301.573 7.75474 301.149 7.75474C300.725 7.75474 300.318 7.92325 300.018 8.2232L296.624 11.6176C296.475 11.7662 296.357 11.9426 296.277 12.1368C296.197 12.3309 296.155 12.539 296.155 12.7492C296.155 12.9594 296.197 13.1675 296.277 13.3616C296.357 13.5558 296.475 13.7322 296.624 13.8808L298.779 16.0352C298.672 16.2472 298.571 16.4632 298.476 16.6808C298.316 17.044 298.176 17.4184 298.05 17.8008H295C294.576 17.8008 294.169 17.9694 293.869 18.2694C293.569 18.5695 293.4 18.9765 293.4 19.4008V24.2008C293.4 24.625 293.569 25.0318 293.869 25.3317C294.169 25.6315 294.576 25.8 295 25.8ZM295 19.4H298.645C298.82 19.4 298.99 19.3426 299.129 19.2365C299.269 19.1304 299.369 18.9816 299.416 18.8128C299.557 18.3032 299.733 17.8041 299.943 17.3192C300.097 16.9653 300.27 16.6198 300.46 16.284C300.546 16.1317 300.58 15.9554 300.557 15.782C300.533 15.6086 300.453 15.4477 300.33 15.324L297.755 12.7488L301.15 9.3544L303.724 11.9296C303.848 12.0533 304.009 12.1331 304.182 12.1566C304.355 12.1802 304.532 12.1462 304.684 12.06C305.02 11.8698 305.365 11.6973 305.719 11.5432C306.204 11.3327 306.703 11.1565 307.213 11.016C307.382 10.9694 307.53 10.8688 307.637 10.7295C307.743 10.5901 307.8 10.4199 307.8 10.2448V6.6H312.6V10.2448C312.6 10.4198 312.657 10.59 312.763 10.7293C312.869 10.8686 313.018 10.9693 313.186 11.016C314.069 11.2576 314.919 11.6069 315.716 12.056C315.868 12.1422 316.045 12.1762 316.218 12.1526C316.391 12.1291 316.552 12.0493 316.676 11.9256L319.251 9.3504L322.646 12.7456L320.07 15.32C319.947 15.4437 319.867 15.6046 319.843 15.778C319.82 15.9514 319.854 16.1277 319.94 16.28C320.389 17.0774 320.738 17.9269 320.98 18.8096C321.027 18.9782 321.127 19.1269 321.267 19.2328C321.406 19.3387 321.576 19.3961 321.751 19.396H325.4V24.196H321.755C321.58 24.1959 321.41 24.2533 321.271 24.3592C321.131 24.4651 321.031 24.6138 320.984 24.7824C320.742 25.6651 320.393 26.5146 319.944 27.312C319.858 27.4643 319.824 27.6406 319.847 27.814C319.871 27.9874 319.951 28.1483 320.074 28.272L322.65 30.8472L319.254 34.2408L316.68 31.6704C316.556 31.5467 316.395 31.4669 316.222 31.4434C316.049 31.4198 315.872 31.4537 315.72 31.54C314.923 31.9891 314.073 32.3384 313.19 32.58C313.022 32.6267 312.873 32.7274 312.767 32.8667C312.661 33.006 312.604 33.1762 312.604 33.3512V37H307.8V33.3552C307.8 33.1801 307.743 33.0098 307.637 32.8705C307.53 32.7312 307.382 32.6306 307.213 32.584C306.703 32.4434 306.204 32.2672 305.719 32.0568C305.365 31.9027 305.02 31.7302 304.684 31.54C304.564 31.4715 304.428 31.4357 304.29 31.436C304.077 31.436 303.874 31.5204 303.724 31.6704L301.149 34.2448L297.755 30.8504L300.33 28.28C300.453 28.1563 300.533 27.9954 300.557 27.822C300.58 27.6486 300.546 27.4723 300.46 27.32C300.011 26.5226 299.662 25.6731 299.42 24.7904C299.374 24.6204 299.273 24.4703 299.133 24.3636C298.993 24.2568 298.821 24.1993 298.645 24.2H295V19.4Z" fill="#474D66"/>
<path d="M310.2 30.6C311.941 30.6 313.642 30.0839 315.089 29.1169C316.536 28.15 317.664 26.7756 318.33 25.1676C318.996 23.5596 319.17 21.7902 318.831 20.0832C318.491 18.3762 317.653 16.8082 316.423 15.5775C315.192 14.3468 313.624 13.5086 311.917 13.1691C310.21 12.8295 308.44 13.0038 306.832 13.6699C305.224 14.3359 303.85 15.4638 302.883 16.911C301.916 18.3581 301.4 20.0595 301.4 21.8C301.403 24.1331 302.331 26.3698 303.981 28.0195C305.63 29.6692 307.867 30.5973 310.2 30.6ZM310.2 14.6C311.624 14.6 313.016 15.0223 314.2 15.8134C315.384 16.6046 316.307 17.7291 316.852 19.0447C317.397 20.3603 317.539 21.808 317.262 23.2047C316.984 24.6013 316.298 25.8842 315.291 26.8912C314.284 27.8981 313.001 28.5838 311.605 28.8617C310.208 29.1395 308.76 28.9969 307.445 28.4519C306.129 27.907 305.005 26.9841 304.213 25.8001C303.422 24.6161 303 23.224 303 21.8C303.002 19.8912 303.762 18.0612 305.111 16.7114C306.461 15.3616 308.291 14.6023 310.2 14.6Z" fill="#474D66"/>
<path d="M310.2 25.8001C310.991 25.8001 311.764 25.5655 312.422 25.1259C313.08 24.6864 313.593 24.0617 313.895 23.3308C314.198 22.5999 314.277 21.7956 314.123 21.0197C313.969 20.2438 313.588 19.531 313.028 18.9716C312.469 18.4122 311.756 18.0313 310.98 17.8769C310.204 17.7226 309.4 17.8018 308.669 18.1045C307.938 18.4073 307.314 18.92 306.874 19.5778C306.435 20.2356 306.2 21.0089 306.2 21.8001C306.201 22.8605 306.623 23.8772 307.373 24.6271C308.123 25.3769 309.139 25.7988 310.2 25.8001ZM310.2 19.4001C310.675 19.4001 311.139 19.5408 311.533 19.8045C311.928 20.0682 312.236 20.4431 312.417 20.8816C312.599 21.3202 312.646 21.8027 312.554 22.2683C312.461 22.7338 312.233 23.1615 311.897 23.4971C311.561 23.8328 311.134 24.0613 310.668 24.1539C310.203 24.2465 309.72 24.199 309.282 24.0174C308.843 23.8357 308.468 23.5281 308.204 23.1334C307.941 22.7387 307.8 22.2747 307.8 21.8001C307.8 21.1635 308.053 20.5531 308.503 20.103C308.953 19.6529 309.563 19.4001 310.2 19.4001Z" fill="#474D66"/>
<path d="M335.587 124.2L336.646 125.4C337.072 125.025 337.413 124.563 337.646 124.046C337.879 123.528 338 122.968 338 122.4V96.8C338 96.2326 337.879 95.6716 337.646 95.1544C337.413 94.6371 337.072 94.1755 336.646 93.8L335.587 95C335.843 95.2252 336.047 95.5022 336.187 95.8126C336.327 96.1229 336.4 96.4595 336.4 96.8V122.4C336.4 122.741 336.327 123.077 336.187 123.388C336.047 123.698 335.843 123.975 335.587 124.2Z" fill="#474D66"/>
<path d="M293.2 122.32V122.4C293.201 123.46 293.623 124.477 294.373 125.227C295.123 125.977 296.14 126.399 297.2 126.4H318.8V124.8H297.2C296.563 124.8 295.953 124.547 295.503 124.097C295.053 123.647 294.8 123.037 294.8 122.4H318.8V120.8H294C293.363 120.8 292.753 120.547 292.303 120.097C291.853 119.647 291.6 119.037 291.6 118.4V92C291.6 91.3635 291.853 90.753 292.303 90.3029C292.753 89.8529 293.363 89.6 294 89.6H330.8C331.437 89.6 332.047 89.8529 332.497 90.3029C332.947 90.753 333.2 91.3635 333.2 92V118.4C333.2 119.037 332.947 119.647 332.497 120.097C332.047 120.547 331.437 120.8 330.8 120.8H326.8V122.4H330.8C331.86 122.399 332.877 121.977 333.627 121.227C334.377 120.477 334.799 119.46 334.8 118.4V92C334.799 90.9395 334.377 89.9228 333.627 89.173C332.877 88.4231 331.86 88.0013 330.8 88H294C292.94 88.0013 291.923 88.4231 291.173 89.173C290.423 89.9228 290.001 90.9395 290 92V118.4C290.001 119.322 290.32 120.215 290.903 120.929C291.486 121.643 292.297 122.134 293.2 122.32Z" fill="#474D66"/>
<path d="M295.6 91.2H294V92.8H295.6V91.2Z" fill="#474D66"/>
<path d="M298.8 91.2H297.2V92.8H298.8V91.2Z" fill="#474D66"/>
<path d="M302 91.2H300.4V92.8H302V91.2Z" fill="#474D66"/>
<path d="M306.857 96.7433C305.548 95.4345 303.826 94.6201 301.984 94.4387C300.142 94.2573 298.294 94.7202 296.755 95.7484C295.216 96.7767 294.082 98.3068 293.544 100.078C293.007 101.849 293.101 103.752 293.809 105.462C294.517 107.172 295.797 108.583 297.429 109.456C299.061 110.328 300.945 110.608 302.761 110.246C304.576 109.885 306.21 108.906 307.384 107.475C308.558 106.044 309.2 104.251 309.2 102.4C309.203 101.349 308.997 100.308 308.595 99.3369C308.193 98.3659 307.602 97.4843 306.857 96.7433ZM296.674 97.8745C297.777 96.772 299.243 96.1098 300.799 96.0121C302.355 95.9145 303.893 96.3881 305.125 97.3441L300.869 101.6H294.85C295.023 100.189 295.666 98.8769 296.674 97.8745ZM294.85 103.2H299.269L296.144 106.325C295.437 105.42 294.989 104.34 294.85 103.2ZM301.2 108.8C299.778 108.804 298.396 108.331 297.275 107.456L301.2 103.531L305.125 107.456C304.004 108.331 302.622 108.804 301.2 108.8ZM306.256 106.325L302.331 102.4L306.256 98.4753C307.128 99.5979 307.601 100.979 307.601 102.4C307.601 103.821 307.128 105.202 306.256 106.325Z" fill="#474D66"/>
<path d="M310.8 116C310.8 116.212 310.884 116.416 311.034 116.566C311.184 116.716 311.388 116.8 311.6 116.8H330.8V115.2H312.4V113.294L314.8 112.094L317.642 113.52C317.754 113.574 317.876 113.601 318 113.6C318.212 113.6 318.416 113.516 318.566 113.366L321.2 110.731L323.834 113.366C323.918 113.45 324.019 113.515 324.13 113.555C324.242 113.595 324.361 113.609 324.479 113.596C324.597 113.584 324.711 113.547 324.812 113.486C324.913 113.425 325 113.342 325.066 113.244L327.6 109.44L330.134 113.242L331.466 112.354L328.266 107.554C328.188 107.45 328.088 107.366 327.972 107.308C327.857 107.25 327.729 107.22 327.6 107.22C327.471 107.22 327.343 107.25 327.228 107.308C327.112 107.366 327.012 107.45 326.934 107.554L324.276 111.544L321.766 109.034C321.616 108.884 321.412 108.8 321.2 108.8C320.988 108.8 320.784 108.884 320.634 109.034L317.842 111.826L315.158 110.484C315.047 110.428 314.924 110.4 314.8 110.4C314.676 110.4 314.553 110.428 314.442 110.484L312.4 111.506V108H310.8V116Z" fill="#474D66"/>
<path d="M310.8 95.1999V103.2C310.8 103.412 310.884 103.616 311.034 103.766C311.184 103.916 311.388 104 311.6 104H330.8V102.4H312.4V100.494L314.8 99.2943L317.642 100.72C317.817 100.807 318.017 100.828 318.205 100.777C318.394 100.727 318.558 100.61 318.666 100.448L321.2 96.6399L323.734 100.442C323.799 100.541 323.886 100.625 323.987 100.687C324.088 100.749 324.202 100.787 324.32 100.8C324.438 100.813 324.557 100.798 324.669 100.759C324.78 100.719 324.882 100.654 324.965 100.57L327.6 97.9311L330.234 100.566L331.366 99.4343L328.166 96.2343C328.016 96.0844 327.812 96.0001 327.6 96.0001C327.388 96.0001 327.184 96.0844 327.034 96.2343L324.524 98.7439L321.866 94.7559C321.788 94.6525 321.688 94.5685 321.572 94.5106C321.457 94.4527 321.329 94.4226 321.2 94.4226C321.071 94.4226 320.943 94.4527 320.828 94.5106C320.712 94.5685 320.612 94.6525 320.534 94.7559L317.726 98.9687L315.158 97.6839C315.047 97.6285 314.924 97.5996 314.8 97.5996C314.676 97.5996 314.553 97.6285 314.442 97.6839L312.4 98.7055V95.1999H310.8Z" fill="#474D66"/>
<path d="M298 112H294V113.6H298V112Z" fill="#474D66"/>
<path d="M308.4 112H299.6V113.6H308.4V112Z" fill="#474D66"/>
<path d="M301.2 115.2H294V116.8H301.2V115.2Z" fill="#474D66"/>
<path d="M308.4 115.2H302.8V116.8H308.4V115.2Z" fill="#474D66"/>
<path d="M334.8 135.2V126.486C334.807 125.907 334.611 125.344 334.245 124.896C333.88 124.448 333.368 124.142 332.8 124.033C332.455 123.975 332.102 123.993 331.765 124.086C331.428 124.179 331.115 124.345 330.849 124.571L330.8 124.612C330.36 124.218 329.791 123.999 329.2 123.999C328.609 123.999 328.039 124.218 327.6 124.612C327.274 124.333 326.883 124.143 326.462 124.059C326.042 123.976 325.607 124.002 325.2 124.136V120.8C325.207 120.222 325.011 119.659 324.646 119.21C324.28 118.762 323.768 118.456 323.2 118.347C322.856 118.289 322.503 118.307 322.166 118.399C321.829 118.491 321.517 118.656 321.25 118.881C320.984 119.106 320.77 119.387 320.623 119.704C320.476 120.02 320.4 120.365 320.4 120.714V129.787L318.277 128.513C317.958 128.321 317.595 128.213 317.223 128.199C316.851 128.185 316.481 128.265 316.149 128.433L316.023 128.495C315.682 128.666 315.39 128.922 315.177 129.238C314.964 129.555 314.836 129.921 314.806 130.301C314.776 130.682 314.845 131.063 315.007 131.409C315.168 131.755 315.416 132.054 315.726 132.275L320.735 135.853C320.871 135.949 321.033 136.001 321.2 136H334C334.212 136 334.416 135.916 334.566 135.766C334.716 135.616 334.8 135.412 334.8 135.2ZM333.2 134.4H321.456L316.656 130.972C316.577 130.915 316.512 130.84 316.468 130.753C316.423 130.667 316.4 130.57 316.4 130.473C316.399 130.359 316.431 130.247 316.491 130.15C316.551 130.053 316.637 129.975 316.739 129.925L316.864 129.862C316.956 129.816 317.058 129.794 317.161 129.797C317.264 129.801 317.364 129.831 317.453 129.885L320.788 131.885C320.909 131.958 321.048 131.997 321.189 131.999C321.331 132.001 321.47 131.965 321.593 131.896C321.717 131.826 321.819 131.725 321.891 131.603C321.962 131.481 322 131.342 322 131.2V120.714C322 120.597 322.025 120.482 322.075 120.376C322.124 120.27 322.196 120.176 322.286 120.101C322.376 120.026 322.481 119.971 322.594 119.941C322.707 119.911 322.825 119.906 322.941 119.926C323.134 119.974 323.306 120.087 323.426 120.246C323.546 120.405 323.607 120.601 323.6 120.8V126.4C323.6 126.612 323.684 126.816 323.834 126.966C323.984 127.116 324.188 127.2 324.4 127.2C324.612 127.2 324.816 127.116 324.966 126.966C325.116 126.816 325.2 126.612 325.2 126.4C325.2 126.188 325.284 125.984 325.434 125.834C325.584 125.684 325.788 125.6 326 125.6C326.212 125.6 326.416 125.684 326.566 125.834C326.716 125.984 326.8 126.188 326.8 126.4C326.8 126.612 326.884 126.816 327.034 126.966C327.184 127.116 327.388 127.2 327.6 127.2C327.812 127.2 328.016 127.116 328.166 126.966C328.316 126.816 328.4 126.612 328.4 126.4C328.4 126.188 328.484 125.984 328.634 125.834C328.784 125.684 328.988 125.6 329.2 125.6C329.412 125.6 329.616 125.684 329.766 125.834C329.916 125.984 330 126.188 330 126.4C330 126.612 330.084 126.816 330.234 126.966C330.384 127.116 330.588 127.2 330.8 127.2C331.012 127.2 331.216 127.116 331.366 126.966C331.516 126.816 331.6 126.612 331.6 126.4C331.6 126.283 331.625 126.167 331.675 126.061C331.724 125.955 331.796 125.861 331.886 125.786C331.976 125.711 332.081 125.656 332.194 125.626C332.307 125.596 332.425 125.591 332.541 125.611C332.734 125.659 332.905 125.772 333.025 125.932C333.145 126.091 333.207 126.286 333.2 126.486V134.4Z" fill="#474D66"/>
<path d="M132.587 201.2L133.646 202.4C134.072 202.025 134.413 201.563 134.646 201.046C134.879 200.528 135 199.968 135 199.4V173.8C135 173.233 134.879 172.672 134.646 172.154C134.413 171.637 134.072 171.175 133.646 170.8L132.587 172C132.843 172.225 133.047 172.502 133.187 172.813C133.327 173.123 133.4 173.46 133.4 173.8V199.4C133.4 199.741 133.327 200.077 133.187 200.388C133.047 200.698 132.843 200.975 132.587 201.2Z" fill="#474D66"/>
<path d="M90.2 199.32V199.4C90.2013 200.46 90.6231 201.477 91.373 202.227C92.1228 202.977 93.1395 203.399 94.2 203.4H115.8V201.8H94.2C93.5635 201.8 92.953 201.547 92.5029 201.097C92.0529 200.647 91.8 200.037 91.8 199.4H115.8V197.8H91C90.3635 197.8 89.753 197.547 89.3029 197.097C88.8529 196.647 88.6 196.037 88.6 195.4V169C88.6 168.363 88.8529 167.753 89.3029 167.303C89.753 166.853 90.3635 166.6 91 166.6H127.8C128.437 166.6 129.047 166.853 129.497 167.303C129.947 167.753 130.2 168.363 130.2 169V195.4C130.2 196.037 129.947 196.647 129.497 197.097C129.047 197.547 128.437 197.8 127.8 197.8H123.8V199.4H127.8C128.86 199.399 129.877 198.977 130.627 198.227C131.377 197.477 131.799 196.46 131.8 195.4V169C131.799 167.94 131.377 166.923 130.627 166.173C129.877 165.423 128.86 165.001 127.8 165H91C89.9395 165.001 88.9228 165.423 88.173 166.173C87.4231 166.923 87.0013 167.94 87 169V195.4C87.0012 196.322 87.3201 197.215 87.903 197.929C88.4859 198.643 89.2971 199.134 90.2 199.32Z" fill="#474D66"/>
<path d="M92.6 168.2H91V169.8H92.6V168.2Z" fill="#474D66"/>
<path d="M95.8 168.2H94.2V169.8H95.8V168.2Z" fill="#474D66"/>
<path d="M99 168.2H97.4V169.8H99V168.2Z" fill="#474D66"/>
<path d="M103.857 173.743C102.548 172.435 100.826 171.62 98.984 171.439C97.1421 171.257 95.2942 171.72 93.7553 172.748C92.2164 173.777 91.0817 175.307 90.5444 177.078C90.0072 178.849 90.1006 180.752 90.809 182.462C91.5173 184.172 92.7966 185.583 94.4289 186.456C96.0612 187.328 97.9455 187.608 99.7608 187.246C101.576 186.885 103.21 185.906 104.384 184.475C105.558 183.044 106.2 181.251 106.2 179.4C106.203 178.349 105.997 177.308 105.595 176.337C105.193 175.366 104.602 174.484 103.857 173.743ZM93.6744 174.874C94.7766 173.772 96.2434 173.11 97.7993 173.012C99.3552 172.914 100.893 173.388 102.125 174.344L97.8688 178.6H91.8496C92.0234 177.189 92.666 175.877 93.6744 174.874ZM91.8496 180.2H96.2688L93.144 183.325C92.4366 182.42 91.9891 181.34 91.8496 180.2ZM98.2 185.8C96.7781 185.804 95.3959 185.331 94.2752 184.456L98.2 180.531L102.125 184.456C101.004 185.331 99.6218 185.804 98.2 185.8ZM103.256 183.325L99.3312 179.4L103.256 175.475C104.128 176.598 104.601 177.979 104.601 179.4C104.601 180.821 104.128 182.202 103.256 183.325Z" fill="#474D66"/>
<path d="M107.8 193C107.8 193.212 107.884 193.416 108.034 193.566C108.184 193.716 108.388 193.8 108.6 193.8H127.8V192.2H109.4V190.294L111.8 189.094L114.642 190.52C114.754 190.574 114.876 190.601 115 190.6C115.212 190.6 115.416 190.516 115.566 190.366L118.2 187.731L120.834 190.366C120.918 190.45 121.019 190.515 121.13 190.555C121.242 190.595 121.361 190.609 121.479 190.596C121.597 190.584 121.711 190.547 121.812 190.486C121.913 190.425 122 190.342 122.066 190.244L124.6 186.44L127.134 190.242L128.466 189.354L125.266 184.554C125.188 184.45 125.088 184.366 124.972 184.308C124.857 184.25 124.729 184.22 124.6 184.22C124.471 184.22 124.343 184.25 124.228 184.308C124.112 184.366 124.012 184.45 123.934 184.554L121.276 188.544L118.766 186.034C118.616 185.884 118.412 185.8 118.2 185.8C117.988 185.8 117.784 185.884 117.634 186.034L114.842 188.826L112.158 187.484C112.047 187.428 111.924 187.4 111.8 187.4C111.676 187.4 111.553 187.428 111.442 187.484L109.4 188.506V185H107.8V193Z" fill="#474D66"/>
<path d="M107.8 172.2V180.2C107.8 180.412 107.884 180.616 108.034 180.766C108.184 180.916 108.388 181 108.6 181H127.8V179.4H109.4V177.494L111.8 176.294L114.642 177.72C114.817 177.807 115.017 177.828 115.205 177.777C115.394 177.727 115.558 177.61 115.666 177.448L118.2 173.64L120.734 177.442C120.799 177.541 120.886 177.625 120.987 177.687C121.088 177.749 121.202 177.787 121.32 177.8C121.438 177.813 121.557 177.798 121.669 177.759C121.78 177.719 121.882 177.654 121.965 177.57L124.6 174.931L127.234 177.566L128.366 176.434L125.166 173.234C125.016 173.084 124.812 173 124.6 173C124.388 173 124.184 173.084 124.034 173.234L121.524 175.744L118.866 171.756C118.788 171.652 118.688 171.568 118.572 171.511C118.457 171.453 118.329 171.423 118.2 171.423C118.071 171.423 117.943 171.453 117.828 171.511C117.712 171.568 117.612 171.652 117.534 171.756L114.726 175.969L112.158 174.684C112.047 174.628 111.924 174.6 111.8 174.6C111.676 174.6 111.553 174.628 111.442 174.684L109.4 175.706V172.2H107.8Z" fill="#474D66"/>
<path d="M95 189H91V190.6H95V189Z" fill="#474D66"/>
<path d="M105.4 189H96.6V190.6H105.4V189Z" fill="#474D66"/>
<path d="M98.2 192.2H91V193.8H98.2V192.2Z" fill="#474D66"/>
<path d="M105.4 192.2H99.8V193.8H105.4V192.2Z" fill="#474D66"/>
<path d="M131.8 212.2V203.486C131.807 202.907 131.611 202.344 131.245 201.896C130.88 201.448 130.368 201.142 129.8 201.033C129.455 200.975 129.102 200.993 128.765 201.086C128.428 201.179 128.115 201.345 127.849 201.571L127.8 201.612C127.36 201.218 126.791 200.999 126.2 200.999C125.609 200.999 125.039 201.218 124.6 201.612C124.274 201.333 123.883 201.143 123.462 201.059C123.042 200.976 122.607 201.002 122.2 201.136V197.8C122.207 197.222 122.011 196.659 121.646 196.21C121.28 195.762 120.768 195.456 120.2 195.347C119.856 195.289 119.503 195.307 119.166 195.399C118.829 195.491 118.517 195.656 118.25 195.881C117.984 196.106 117.77 196.387 117.623 196.704C117.476 197.02 117.4 197.365 117.4 197.714V206.787L115.277 205.513C114.958 205.321 114.595 205.213 114.223 205.199C113.851 205.185 113.481 205.265 113.149 205.433L113.023 205.495C112.682 205.666 112.39 205.922 112.177 206.238C111.964 206.555 111.836 206.921 111.806 207.301C111.776 207.682 111.845 208.063 112.007 208.409C112.168 208.755 112.416 209.054 112.726 209.275L117.735 212.853C117.871 212.949 118.033 213.001 118.2 213H131C131.212 213 131.416 212.916 131.566 212.766C131.716 212.616 131.8 212.412 131.8 212.2ZM130.2 211.4H118.456L113.656 207.972C113.577 207.915 113.512 207.84 113.468 207.753C113.423 207.667 113.4 207.57 113.4 207.473C113.399 207.359 113.431 207.247 113.491 207.15C113.551 207.053 113.637 206.975 113.739 206.925L113.864 206.862C113.956 206.816 114.058 206.794 114.161 206.797C114.264 206.801 114.364 206.831 114.453 206.885L117.788 208.885C117.909 208.958 118.048 208.997 118.189 208.999C118.331 209.001 118.47 208.965 118.593 208.896C118.717 208.826 118.819 208.725 118.891 208.603C118.962 208.481 119 208.342 119 208.2V197.714C119 197.597 119.025 197.482 119.075 197.376C119.124 197.27 119.196 197.176 119.286 197.101C119.376 197.026 119.481 196.971 119.594 196.941C119.707 196.911 119.825 196.906 119.941 196.926C120.134 196.974 120.306 197.087 120.426 197.246C120.546 197.405 120.607 197.601 120.6 197.8V203.4C120.6 203.612 120.684 203.816 120.834 203.966C120.984 204.116 121.188 204.2 121.4 204.2C121.612 204.2 121.816 204.116 121.966 203.966C122.116 203.816 122.2 203.612 122.2 203.4C122.2 203.188 122.284 202.984 122.434 202.834C122.584 202.684 122.788 202.6 123 202.6C123.212 202.6 123.416 202.684 123.566 202.834C123.716 202.984 123.8 203.188 123.8 203.4C123.8 203.612 123.884 203.816 124.034 203.966C124.184 204.116 124.388 204.2 124.6 204.2C124.812 204.2 125.016 204.116 125.166 203.966C125.316 203.816 125.4 203.612 125.4 203.4C125.4 203.188 125.484 202.984 125.634 202.834C125.784 202.684 125.988 202.6 126.2 202.6C126.412 202.6 126.616 202.684 126.766 202.834C126.916 202.984 127 203.188 127 203.4C127 203.612 127.084 203.816 127.234 203.966C127.384 204.116 127.588 204.2 127.8 204.2C128.012 204.2 128.216 204.116 128.366 203.966C128.516 203.816 128.6 203.612 128.6 203.4C128.6 203.283 128.625 203.167 128.675 203.061C128.724 202.955 128.796 202.861 128.886 202.786C128.976 202.711 129.081 202.656 129.194 202.626C129.307 202.596 129.425 202.591 129.541 202.611C129.734 202.659 129.905 202.772 130.025 202.932C130.145 203.091 130.207 203.286 130.2 203.486V211.4Z" fill="#474D66"/>
<path d="M241.202 205.151C240.919 205.155 240.638 205.199 240.367 205.281C239.955 204.217 239.231 203.302 238.291 202.657C237.35 202.011 236.236 201.664 235.095 201.661C234.648 201.666 234.206 201.747 233.787 201.902V200.789H243.8C244.379 200.788 244.933 200.558 245.342 200.149C245.751 199.74 245.981 199.186 245.981 198.608V189.884C245.981 189.306 245.751 188.751 245.342 188.342C244.933 187.933 244.379 187.703 243.8 187.703H215.884C215.306 187.703 214.751 187.933 214.342 188.342C213.933 188.751 213.704 189.306 213.703 189.884V198.608C213.704 199.186 213.933 199.74 214.342 200.149C214.751 200.558 215.306 200.788 215.884 200.789H224.19V207.626C223.412 206.649 222.291 206.005 221.056 205.825C219.82 205.645 218.562 205.941 217.537 206.655C216.512 207.369 215.797 208.446 215.538 209.667C215.278 210.889 215.493 212.163 216.14 213.232C216.203 213.337 216.281 213.433 216.371 213.516L221.065 217.853L221.788 218.575C222.232 219.022 222.761 219.377 223.343 219.618C223.926 219.859 224.55 219.983 225.18 219.981H241.202C242.474 219.98 243.694 219.474 244.593 218.574C245.493 217.675 245.999 216.455 246 215.183V209.949C245.999 208.677 245.493 207.457 244.593 206.557C243.694 205.658 242.474 205.152 241.202 205.151ZM216.32 198.172V190.32H243.364V198.172H233.787V197.735C233.787 196.463 233.281 195.242 232.381 194.343C231.481 193.443 230.261 192.937 228.989 192.937C227.716 192.937 226.496 193.443 225.596 194.343C224.696 195.242 224.19 196.463 224.19 197.735V198.172H216.32ZM243.383 215.183C243.382 215.761 243.152 216.316 242.744 216.725C242.335 217.134 241.78 217.363 241.202 217.364H225.18C224.602 217.363 224.048 217.133 223.638 216.725L218.298 211.734C218.034 211.215 217.976 210.616 218.136 210.056C218.297 209.497 218.663 209.019 219.162 208.719C219.661 208.419 220.255 208.32 220.824 208.441C221.393 208.562 221.896 208.894 222.229 209.371C222.298 209.47 222.38 209.558 222.473 209.634L224.1 210.963C224.334 211.153 224.626 211.258 224.928 211.257H225.499C225.846 211.257 226.179 211.119 226.424 210.874C226.67 210.629 226.807 210.296 226.808 209.949V197.735C226.808 197.157 227.037 196.602 227.446 196.193C227.855 195.784 228.41 195.554 228.989 195.554C229.567 195.554 230.122 195.784 230.531 196.193C230.94 196.602 231.169 197.157 231.169 197.735V199.472L231.168 199.48L231.17 199.489V211.694C231.17 212.041 231.307 212.373 231.553 212.619C231.798 212.864 232.131 213.002 232.478 213.002C232.825 213.002 233.158 212.864 233.403 212.619C233.649 212.373 233.787 212.041 233.787 211.694V205.587C233.787 205.24 233.925 204.907 234.171 204.662C234.416 204.417 234.748 204.279 235.095 204.278C235.905 204.279 236.681 204.601 237.253 205.174C237.826 205.746 238.148 206.522 238.149 207.332V211.694C238.149 212.041 238.286 212.373 238.532 212.619C238.777 212.864 239.11 213.002 239.457 213.002C239.804 213.002 240.137 212.864 240.383 212.619C240.628 212.373 240.766 212.041 240.766 211.694V208.204C240.766 208.088 240.812 207.978 240.894 207.896C240.976 207.814 241.086 207.768 241.202 207.768C241.78 207.768 242.335 207.998 242.744 208.407C243.152 208.816 243.382 209.37 243.383 209.949L243.383 215.183Z" fill="#474D66"/>
<path d="M208.905 172H200.181C199.603 172.001 199.048 172.23 198.639 172.639C198.23 173.048 198.001 173.603 198 174.181V182.905C198.001 183.483 198.23 184.038 198.639 184.446C199.048 184.855 199.603 185.085 200.181 185.086H208.905C209.483 185.085 210.038 184.855 210.446 184.446C210.855 184.038 211.085 183.483 211.086 182.905V174.181C211.085 173.603 210.855 173.048 210.446 172.639C210.038 172.23 209.483 172.001 208.905 172ZM208.469 182.469H200.617V174.617H208.469V182.469Z" fill="#474D66"/>
<path d="M215.884 185.086H243.8C244.379 185.085 244.933 184.855 245.342 184.446C245.751 184.038 245.981 183.483 245.981 182.905V174.181C245.981 173.603 245.751 173.048 245.342 172.639C244.933 172.23 244.379 172.001 243.8 172H215.884C215.306 172.001 214.751 172.23 214.342 172.639C213.933 173.048 213.704 173.603 213.703 174.181V182.905C213.704 183.483 213.933 184.038 214.342 184.446C214.751 184.855 215.306 185.085 215.884 185.086ZM216.32 174.617H243.364V182.469H216.32V174.617Z" fill="#474D66"/>
<path d="M208.905 187.703H200.181C199.603 187.703 199.048 187.933 198.639 188.342C198.23 188.751 198.001 189.306 198 189.884V198.608C198.001 199.186 198.23 199.74 198.639 200.149C199.048 200.558 199.603 200.788 200.181 200.789H208.905C209.483 200.788 210.038 200.558 210.446 200.149C210.855 199.74 211.085 199.186 211.086 198.608V189.884C211.085 189.306 210.855 188.751 210.446 188.342C210.038 187.933 209.483 187.703 208.905 187.703ZM208.469 198.172H200.617V190.32H208.469V198.172Z" fill="#474D66"/>
<path d="M208.905 203.406H200.181C199.603 203.407 199.048 203.636 198.639 204.045C198.23 204.454 198.001 205.009 198 205.587V214.311C198.001 214.889 198.23 215.444 198.639 215.852C199.048 216.261 199.603 216.491 200.181 216.492H208.905C209.483 216.491 210.038 216.261 210.446 215.852C210.855 215.444 211.085 214.889 211.086 214.311V205.587C211.085 205.009 210.855 204.454 210.446 204.045C210.038 203.636 209.483 203.407 208.905 203.406ZM208.469 213.875H200.617V206.023H208.469V213.875Z" fill="#474D66"/>
<path d="M239.438 177.234H227.225C226.878 177.234 226.545 177.372 226.3 177.618C226.054 177.863 225.916 178.196 225.916 178.543C225.916 178.89 226.054 179.223 226.3 179.468C226.545 179.714 226.878 179.852 227.225 179.852H239.438C239.785 179.852 240.118 179.714 240.364 179.468C240.609 179.223 240.747 178.89 240.747 178.543C240.747 178.196 240.609 177.863 240.364 177.618C240.118 177.372 239.785 177.234 239.438 177.234Z" fill="#474D66"/>
<path d="M221.118 181.16C222.564 181.16 223.735 179.988 223.735 178.543C223.735 177.098 222.564 175.926 221.118 175.926C219.673 175.926 218.501 177.098 218.501 178.543C218.501 179.988 219.673 181.16 221.118 181.16Z" fill="#474D66"/>
<path d="M235.949 195.554H239.438C239.785 195.554 240.118 195.417 240.364 195.171C240.609 194.926 240.747 194.593 240.747 194.246C240.747 193.899 240.609 193.566 240.364 193.321C240.118 193.075 239.785 192.937 239.438 192.937H235.949C235.602 192.937 235.269 193.075 235.024 193.321C234.778 193.566 234.64 193.899 234.64 194.246C234.64 194.593 234.778 194.926 235.024 195.171C235.269 195.417 235.602 195.554 235.949 195.554Z" fill="#474D66"/>
<path d="M221.118 196.863C222.564 196.863 223.735 195.691 223.735 194.246C223.735 192.8 222.564 191.629 221.118 191.629C219.673 191.629 218.501 192.8 218.501 194.246C218.501 195.691 219.673 196.863 221.118 196.863Z" fill="#474D66"/>
<path d="M340.714 250.62H336.424V224.254C336.424 223.913 336.289 223.586 336.048 223.344C335.807 223.103 335.479 222.968 335.138 222.968H331.608V219.752C331.61 218.325 331.078 216.948 330.116 215.894L318.746 203.431C318.632 203.304 318.495 203.201 318.342 203.127C318.188 203.054 318.022 203.011 317.852 203.002C317.682 202.993 317.512 203.017 317.351 203.073C317.191 203.13 317.043 203.217 316.916 203.331C316.79 203.445 316.687 203.582 316.613 203.735C316.54 203.889 316.497 204.055 316.488 204.225C316.478 204.395 316.503 204.565 316.559 204.726C316.616 204.886 316.703 205.034 316.817 205.161L328.212 217.662C328.735 218.233 329.028 218.978 329.035 219.752V222.968H311.717L310.547 220.653C310.474 220.496 310.37 220.357 310.243 220.241C310.115 220.126 309.965 220.037 309.802 219.981C309.64 219.924 309.467 219.901 309.295 219.913C309.123 219.924 308.956 219.97 308.802 220.048C308.648 220.125 308.511 220.233 308.4 220.364C308.289 220.495 308.205 220.648 308.153 220.812C308.102 220.977 308.084 221.15 308.101 221.321C308.118 221.492 308.169 221.659 308.251 221.81L315.473 236.138C315.759 236.707 315.866 237.349 315.78 237.98C315.694 238.611 315.418 239.201 314.99 239.673C314.562 240.144 314.001 240.475 313.381 240.621C312.761 240.767 312.111 240.722 311.518 240.492L311.305 240.408C310.641 240.145 310.086 239.664 309.73 239.045L304.932 230.845C304.757 230.545 304.555 230.26 304.328 229.997L298.598 223.328C297.778 222.373 297.323 221.159 297.312 219.9L297.196 204.563C297.196 204.221 297.061 203.894 296.819 203.653C296.578 203.412 296.251 203.276 295.91 203.276C295.569 203.276 295.242 203.412 295.001 203.653C294.759 203.894 294.624 204.221 294.624 204.563L294.74 219.9C294.761 221.771 295.445 223.573 296.669 224.987L299.756 228.582C299.75 228.65 299.75 228.719 299.756 228.788V250.62H295.286C294.945 250.62 294.618 250.756 294.377 250.997C294.136 251.238 294 251.565 294 251.907C294 252.248 294.136 252.575 294.377 252.816C294.618 253.057 294.945 253.193 295.286 253.193H340.714C341.055 253.193 341.382 253.057 341.623 252.816C341.864 252.575 342 252.248 342 251.907C342 251.565 341.864 251.238 341.623 250.997C341.382 250.756 341.055 250.62 340.714 250.62ZM302.283 231.566L302.373 231.669C302.498 231.812 302.61 231.967 302.707 232.132L307.505 240.331C308.158 241.447 309.168 242.311 310.373 242.781L310.585 242.865C311.252 243.123 311.96 243.256 312.675 243.257C313.651 243.253 314.611 243 315.461 242.521C316.312 242.042 317.027 241.354 317.537 240.522C318.047 239.689 318.336 238.741 318.377 237.765C318.417 236.79 318.208 235.82 317.768 234.948L313.01 225.54H333.852V250.62H302.283V231.566Z" fill="#474D66"/>
<path fill-rule="evenodd" clip-rule="evenodd" d="M402.87 41.2444C402.045 41.2444 402.045 42.4957 402.87 42.4957H419.563C420.388 42.4957 420.388 41.2444 419.563 41.2444H402.87ZM418.724 32.8267H415.383V36.1682H418.724V32.8267ZM408.43 32.8267H405.088V36.1682H408.43V32.8267ZM398.121 32.8267H394.779V36.1682H398.121V32.8267ZM418.724 23.2999H415.383V26.6414H418.724V23.2999ZM408.43 23.2999H405.088V26.6414H408.43V23.2999ZM398.121 23.2999H394.779V26.6414H398.121V23.2999ZM378.939 15.3373H423.445V11.2137C423.445 10.0904 422.535 9.1804 421.412 9.1804H416.762C416.762 10.062 416.847 10.8014 416.122 11.4981C415.724 11.8962 415.184 12.138 414.601 12.138H411.458C410.875 12.138 410.307 11.8962 409.923 11.4981C409.212 10.7872 409.283 10.0762 409.283 9.1804H404.932C404.932 10.062 405.017 10.8014 404.292 11.4981C403.908 11.8962 403.368 12.138 402.77 12.138H399.628C399.045 12.138 398.476 11.8962 398.107 11.4981C397.396 10.7872 397.467 10.0762 397.467 9.1804H393.116C393.116 10.062 393.187 10.8725 392.433 11.555C392.049 11.9247 391.523 12.138 390.954 12.138H387.812C387.229 12.138 386.66 11.8962 386.291 11.4981C385.58 10.7872 385.651 10.0762 385.651 9.1804H381.001C379.878 9.1804 378.968 10.0904 378.968 11.2137V15.3373H378.939ZM380.774 30.6085L383.177 32.002C384.115 32.5423 383.29 33.9784 382.352 33.4381L379.949 32.0447C378.2 33.6372 375.385 32.3859 375.385 30.0255C375.385 27.6083 378.328 26.3855 380.034 28.106C380.688 28.7458 380.973 29.6843 380.774 30.6085ZM378.868 29.2719C378.2 28.6036 377.048 29.0729 377.048 30.0255C377.048 30.964 378.2 31.4475 378.868 30.7792C379.281 30.3526 379.281 29.6843 378.868 29.2719ZM386.831 29.2008C387.926 29.2008 387.926 30.8645 386.831 30.8645H385.793C384.698 30.8645 384.698 29.2008 385.793 29.2008H386.831ZM377.29 21.3093C377.29 20.2144 378.954 20.2144 378.954 21.3093V22.3473C378.954 23.4421 377.29 23.4421 377.29 22.3473V21.3093ZM369.398 30.8503C368.303 30.8503 368.303 29.1866 369.398 29.1866H370.436C371.531 29.1866 371.531 30.8503 370.436 30.8503H369.398ZM378.939 38.7418C378.939 39.8367 377.276 39.8367 377.276 38.7418V37.7038C377.276 36.609 378.939 36.609 378.939 37.7038V38.7418ZM377.29 42.1118C370.962 41.6852 366 36.4099 366 30.0255C366 23.6412 370.962 18.3659 377.29 17.9393V11.2137C377.29 9.1804 378.954 7.51677 380.987 7.51677H385.622C385.622 6.77738 385.693 6.23706 386.262 5.6683C386.646 5.28438 387.201 5.02844 387.798 5.02844H390.94C392.135 5.02844 393.102 6.00955 393.102 7.18974V7.50255H397.453C397.453 6.76316 397.524 6.22284 398.092 5.65408C398.491 5.27016 399.031 5.01422 399.628 5.01422H402.77C403.965 5.01422 404.946 5.99533 404.946 7.17552V7.48834H409.297C409.297 6.74894 409.368 6.20862 409.937 5.63986C410.321 5.25594 410.875 5 411.473 5H414.615C415.809 5 416.776 5.98112 416.776 7.1613V7.47412H421.426C423.459 7.47412 425.123 9.13775 425.123 11.1711V43.5479H425.72C428.08 43.5479 430 45.4674 430 47.8278V51.283C430 51.7381 429.63 52.1078 429.175 52.1078H373.238C372.782 52.1078 372.413 51.7381 372.413 51.283V47.8278C372.413 45.4674 374.332 43.5479 376.693 43.5479H377.29V42.1118ZM385.509 22.6316C381.428 18.5508 374.802 18.5508 370.721 22.6316C366.64 26.7125 366.64 33.3386 370.721 37.4195C374.802 41.5003 381.428 41.5003 385.509 37.4195C389.589 33.3386 389.589 26.7125 385.509 22.6316ZM390.94 6.69207H387.798C387.513 6.69207 387.3 6.91957 387.3 7.18974V9.96245C387.3 10.1046 387.357 10.2326 387.442 10.3179C387.542 10.4175 387.656 10.4601 387.798 10.4601H390.94C391.225 10.4601 391.438 10.2326 391.438 9.94823V7.18974C391.452 6.91957 391.225 6.69207 390.94 6.69207ZM414.601 6.69207H411.458C411.174 6.69207 410.961 6.91957 410.961 7.18974V9.96245C410.961 10.1046 411.018 10.2326 411.103 10.3179C411.202 10.4175 411.316 10.4601 411.458 10.4601H414.601C414.885 10.4601 415.098 10.2326 415.098 9.94823V7.18974C415.098 6.91957 414.885 6.69207 414.601 6.69207ZM402.77 6.69207H399.628C399.358 6.69207 399.13 6.91957 399.13 7.18974V9.96245C399.13 10.1046 399.187 10.2326 399.273 10.3179C399.358 10.4175 399.486 10.4601 399.628 10.4601H402.77C403.055 10.4601 403.268 10.2326 403.268 9.94823V7.18974C403.268 6.91957 403.041 6.69207 402.77 6.69207ZM425.08 45.2542C424.853 47.0742 423.289 48.4819 421.426 48.4819H380.973C379.11 48.4819 377.546 47.0884 377.304 45.2542C376.351 45.2542 375.612 45.2399 374.83 46.022C374.361 46.4912 374.062 47.1453 374.062 47.8705V50.4868H428.322V47.8705C428.322 46.4343 427.142 45.2542 425.706 45.2542H425.08Z" fill="#474D66"/>
<path d="M429.798 137.237L423.001 122.498C422.799 122.027 422.328 121.758 421.79 121.758H414.387V124.383H420.982L426.568 136.496H369.365L374.951 124.383H381.546V121.758H374.143C373.605 121.758 373.201 122.027 372.932 122.498L366.135 137.237C366.067 137.371 366 137.573 366 137.775V148.273C366 149.014 366.606 149.619 367.346 149.619H428.654C429.394 149.619 430 149.014 430 148.273V137.775C429.933 137.573 429.865 137.371 429.798 137.237Z" fill="#474D66"/>
<path d="M397.899 115.97C398.37 116.576 398.639 117.249 398.774 117.989C399.043 119.47 398.639 120.883 397.63 122.027C396.957 122.768 396.015 123.171 395.073 123.171C394.534 123.171 394.063 123.037 393.592 122.835C390.9 121.556 387.131 119.739 383.901 117.989V129.093H380.738C380.065 129.093 379.459 129.565 379.392 130.17C379.258 130.978 379.863 131.718 380.671 131.718H415.262C415.935 131.718 416.54 131.247 416.608 130.641C416.742 129.834 416.137 129.093 415.329 129.093H412.099V116.643C412.099 116.24 411.83 115.97 411.426 115.97H397.899Z" fill="#474D66"/>
<path d="M379.123 112.404C381.411 114.49 391.573 119.335 394.534 120.749C395.005 120.951 395.544 120.816 395.947 120.479C396.419 120.008 396.62 119.403 396.62 118.864C396.62 117.989 396.149 117.115 395.275 116.711C392.246 115.163 388.343 112.875 389.15 111.125C389.823 109.779 392.784 110.048 399.783 113.682H407.994C405.1 110.789 397.966 103.79 395.476 102.713C392.717 101.502 386.526 102.578 384.44 102.242C382.892 101.973 380.671 99.6172 378.921 98.2713C378.45 97.8675 377.71 97.9348 377.239 98.3386L371.451 103.79C370.913 104.328 370.913 105.203 371.518 105.674C373.537 107.356 376.633 110.116 379.123 112.404Z" fill="#474D66"/>
<path d="M145.01 93H144.01V95H145.01C145.806 95 146.569 95.3161 147.131 95.8787C147.694 96.4413 148.01 97.2044 148.01 98V125H146V127H148.01V129C148.008 129.528 147.868 130.046 147.603 130.502C147.338 130.958 146.957 131.337 146.5 131.6L147.5 133.334C148.261 132.895 148.894 132.263 149.335 131.503C149.775 130.742 150.008 129.879 150.01 129V98C150.008 96.6744 149.481 95.4036 148.544 94.4662C147.606 93.5289 146.336 93.0016 145.01 93Z" fill="#474D66"/>
<path d="M90.01 129C90.0116 130.326 90.5389 131.596 91.4762 132.534C92.4136 133.471 93.6844 133.998 95.01 134H113.582L110.309 143H107.009V145H133.009V143H129.709L128.494 139.658L126.614 140.342L127.582 143H112.437L115.95 133.342C116.005 133.191 116.023 133.029 116.002 132.869C115.981 132.71 115.922 132.558 115.829 132.426C115.737 132.295 115.614 132.187 115.472 132.113C115.329 132.039 115.171 132 115.01 132H95.01C94.2144 132 93.4513 131.684 92.8887 131.121C92.3261 130.559 92.01 129.796 92.01 129L92 127H111.01V125H92L92.01 98C92.01 97.2044 92.3261 96.4413 92.8887 95.8787C93.4513 95.3161 94.2144 95 95.01 95H96.01V93H95.01C93.6844 93.0016 92.4136 93.5289 91.4762 94.4662C90.5389 95.4036 90.0116 96.6744 90.01 98L90 126L90.01 129Z" fill="#474D66"/>
<path d="M142.01 108V90C142.008 88.6744 141.481 87.4036 140.544 86.4662C139.606 85.5289 138.336 85.0016 137.01 85H103.01C101.684 85.0016 100.414 85.5289 99.4762 86.4662C98.5389 87.4036 98.0116 88.6744 98.01 90V123H100.01V90C100.01 89.2044 100.326 88.4413 100.889 87.8787C101.451 87.3161 102.214 87 103.01 87H137.01C137.806 87 138.569 87.3161 139.131 87.8787C139.694 88.4413 140.01 89.2044 140.01 90V108H142.01Z" fill="#474D66"/>
<path d="M105.01 89H103.01V91H105.01V89Z" fill="#474D66"/>
<path d="M109.01 89H107.01V91H109.01V89Z" fill="#474D66"/>
<path d="M113.01 89H111.01V91H113.01V89Z" fill="#474D66"/>
<path d="M111.01 117V109C111.01 108.735 110.905 108.48 110.717 108.293C110.53 108.105 110.275 108 110.01 108H106.01C105.745 108 105.49 108.105 105.303 108.293C105.115 108.48 105.01 108.735 105.01 109V116H103.01V118H111.01V117ZM109.01 116H107.01V110H109.01V116Z" fill="#474D66"/>
<path d="M119.01 107V102C119.01 101.735 118.905 101.48 118.717 101.293C118.53 101.105 118.275 101 118.01 101H114.01C113.745 101 113.49 101.105 113.303 101.293C113.115 101.48 113.01 101.735 113.01 102V111H115.01V103H117.01V107H119.01Z" fill="#474D66"/>
<path d="M127.01 104V101C127.01 100.735 126.905 100.48 126.717 100.293C126.53 100.105 126.275 100 126.01 100H122.01C121.745 100 121.49 100.105 121.303 100.293C121.115 100.48 121.01 100.735 121.01 101V105H123.01V102H125.01V104H127.01Z" fill="#474D66"/>
<path d="M135.01 104V98C135.01 97.7348 134.905 97.4804 134.717 97.2929C134.53 97.1054 134.275 97 134.01 97H130.01C129.745 97 129.49 97.1054 129.303 97.2929C129.115 97.4804 129.01 97.7348 129.01 98V104H131.01V99H133.01V104H135.01Z" fill="#474D66"/>
<path d="M141.884 131.46C144.21 128.3 145.299 124.397 144.944 120.489C144.59 116.581 142.817 112.938 139.96 110.248C137.103 107.558 133.36 106.007 129.438 105.888C125.515 105.768 121.685 107.089 118.67 109.601C115.655 112.113 113.664 115.641 113.073 119.521C112.482 123.4 113.331 127.361 115.461 130.657C117.591 133.953 120.854 136.355 124.634 137.409C128.413 138.464 132.449 138.098 135.977 136.381L143.477 143.881C144.196 144.595 145.167 144.997 146.18 145C147.195 144.999 148.169 144.595 148.887 143.877C149.605 143.159 150.009 142.186 150.01 141.17C150.007 140.155 149.603 139.182 148.887 138.463L141.884 131.46ZM129.01 136C126.241 136 123.534 135.179 121.232 133.641C118.93 132.102 117.135 129.916 116.076 127.358C115.016 124.8 114.739 121.985 115.279 119.269C115.819 116.553 117.153 114.059 119.111 112.101C121.068 110.143 123.563 108.809 126.279 108.269C128.994 107.729 131.809 108.006 134.368 109.066C136.926 110.125 139.112 111.92 140.651 114.222C142.189 116.524 143.01 119.231 143.01 122C143.006 125.712 141.53 129.271 138.905 131.895C136.28 134.52 132.722 135.996 129.01 136ZM147.474 142.463C147.125 142.794 146.662 142.979 146.181 142.979C145.699 142.979 145.236 142.794 144.887 142.463L137.787 135.363C138.812 134.685 139.756 133.893 140.6 133L147.476 139.876C147.818 140.22 148.011 140.684 148.013 141.169C148.013 141.41 147.965 141.648 147.873 141.87C147.78 142.092 147.645 142.294 147.474 142.463Z" fill="#474D66"/>
<path d="M129.01 110C126.637 110 124.317 110.704 122.343 112.022C120.37 113.341 118.832 115.215 117.923 117.408C117.015 119.601 116.778 122.013 117.241 124.341C117.704 126.669 118.847 128.807 120.525 130.485C122.203 132.164 124.341 133.306 126.669 133.769C128.997 134.232 131.41 133.995 133.602 133.087C135.795 132.178 137.669 130.64 138.988 128.667C140.306 126.693 141.01 124.373 141.01 122C141.007 118.818 139.741 115.768 137.491 113.519C135.242 111.269 132.192 110.003 129.01 110ZM129.01 132C127.032 132 125.099 131.414 123.454 130.315C121.81 129.216 120.528 127.654 119.771 125.827C119.014 124 118.816 121.989 119.202 120.049C119.588 118.109 120.54 116.327 121.939 114.929C123.337 113.53 125.119 112.578 127.059 112.192C128.999 111.806 131.01 112.004 132.837 112.761C134.664 113.518 136.226 114.8 137.325 116.444C138.424 118.089 139.01 120.022 139.01 122C139.007 124.651 137.953 127.193 136.078 129.068C134.203 130.943 131.661 131.997 129.01 132Z" fill="#474D66"/>
<path d="M127.3 116.249C127.855 116.084 128.431 116 129.01 116V114C128.236 113.999 127.467 114.111 126.725 114.331L127.3 116.249Z" fill="#474D66"/>
<path d="M121.01 122H123.01C123.01 121.033 123.245 120.08 123.692 119.222C124.14 118.365 124.788 117.628 125.582 117.075L124.438 115.435C123.38 116.173 122.516 117.154 121.919 118.297C121.323 119.44 121.011 120.711 121.01 122Z" fill="#474D66"/>
<path d="M107.01 120H103.01V122H107.01V120Z" fill="#474D66"/>
<path d="M111.01 120H109.01V122H111.01V120Z" fill="#474D66"/>
<path d="M137.01 93H103.01V95H137.01V93Z" fill="#474D66"/>
<path d="M107.01 97H103.01V99H107.01V97Z" fill="#474D66"/>
<path d="M135.248 23.0191V19.7503C135.248 19.2271 134.826 18.8047 134.302 18.8047C133.779 18.8047 133.357 19.2271 133.357 19.7503V23.0191C133.357 23.5423 133.779 23.9647 134.302 23.9647C134.826 23.9647 135.248 23.5375 135.248 23.0191Z" fill="#474D66"/>
<path d="M125.811 25.3856C125.984 25.688 126.306 25.8608 126.632 25.8608C126.79 25.8608 126.954 25.8224 127.102 25.736C127.554 25.4768 127.707 24.896 127.448 24.4448L126.09 22.0928C125.83 21.6416 125.254 21.4832 124.798 21.7472C124.347 22.0064 124.194 22.5872 124.453 23.0384L125.811 25.3856Z" fill="#474D66"/>
<path d="M121.41 29.5665L119.058 28.2081C118.606 27.9441 118.026 28.1025 117.766 28.5537C117.507 29.0049 117.661 29.5857 118.112 29.8449L120.464 31.2033C120.613 31.2897 120.776 31.3281 120.934 31.3281C121.261 31.3281 121.578 31.1601 121.755 30.8529C122.014 30.4065 121.861 29.8257 121.41 29.5665Z" fill="#474D66"/>
<path d="M119.686 37.9761C119.686 37.4529 119.264 37.0305 118.741 37.0305H116.024C115.501 37.0305 115.078 37.4529 115.078 37.9761C115.078 38.4993 115.501 38.9217 116.024 38.9217H118.741C119.264 38.9217 119.686 38.4945 119.686 37.9761Z" fill="#474D66"/>
<path d="M120.162 44.8256L117.81 46.184C117.358 46.4432 117.205 47.024 117.464 47.4752C117.637 47.7776 117.958 47.9504 118.285 47.9504C118.443 47.9504 118.606 47.912 118.755 47.8256L121.107 46.4672C121.558 46.208 121.712 45.6272 121.453 45.176C121.189 44.72 120.613 44.5616 120.162 44.8256Z" fill="#474D66"/>
<path d="M126.579 50.5233C126.123 50.2593 125.547 50.4177 125.288 50.8689L123.93 53.2209C123.67 53.6721 123.824 54.2529 124.275 54.5121C124.424 54.5985 124.587 54.6369 124.746 54.6369C125.072 54.6369 125.389 54.4689 125.566 54.1617L126.925 51.8097C127.189 51.3633 127.03 50.7825 126.579 50.5233Z" fill="#474D66"/>
<path d="M133.698 52.592C133.174 52.592 132.752 53.0144 132.752 53.5376V56.2544C132.752 56.7776 133.174 57.2 133.698 57.2C134.221 57.2 134.643 56.7776 134.643 56.2544V53.5376C134.643 53.0144 134.221 52.592 133.698 52.592Z" fill="#474D66"/>
<path d="M142.189 51.1711C141.93 50.7199 141.354 50.5615 140.898 50.8255C140.446 51.0847 140.293 51.6655 140.552 52.1167L141.91 54.4687C142.083 54.7711 142.405 54.9439 142.731 54.9439C142.89 54.9439 143.053 54.9055 143.202 54.8191C143.653 54.5599 143.806 53.9791 143.547 53.5279L142.189 51.1711Z" fill="#474D66"/>
<path d="M149.888 46.7071L147.536 45.3487C147.085 45.0847 146.504 45.2431 146.245 45.6943C145.986 46.1455 146.139 46.7263 146.59 46.9855L148.942 48.3439C149.091 48.4303 149.254 48.4687 149.413 48.4687C149.739 48.4687 150.056 48.3007 150.234 47.9935C150.498 47.5471 150.344 46.9711 149.888 46.7071Z" fill="#474D66"/>
<path d="M151.976 37.6353H149.259C148.736 37.6353 148.314 38.0577 148.314 38.5809C148.314 39.1041 148.736 39.5265 149.259 39.5265H151.976C152.499 39.5265 152.922 39.1041 152.922 38.5809C152.922 38.0577 152.499 37.6353 151.976 37.6353Z" fill="#474D66"/>
<path d="M147.368 31.8559C147.526 31.8559 147.69 31.8175 147.838 31.7311L150.19 30.3727C150.642 30.1135 150.795 29.5327 150.536 29.0815C150.277 28.6303 149.701 28.4719 149.245 28.7359L146.893 30.0943C146.442 30.3535 146.288 30.9343 146.547 31.3855C146.725 31.6879 147.042 31.8559 147.368 31.8559Z" fill="#474D66"/>
<path d="M141.891 26.1583C142.218 26.1583 142.534 25.9903 142.712 25.6831L144.07 23.3311C144.33 22.8799 144.176 22.2991 143.725 22.0399C143.274 21.7759 142.693 21.9343 142.434 22.3855L141.075 24.7375C140.816 25.1887 140.97 25.7695 141.421 26.0287C141.57 26.1199 141.733 26.1583 141.891 26.1583Z" fill="#474D66"/>
<path d="M132.248 38.5039L131.139 39.4255C130.75 39.7663 130.683 40.3567 131.024 40.7599C131.211 40.9855 131.48 41.1007 131.744 41.1007C131.96 41.1007 132.171 41.0239 132.349 40.8847L134.139 39.3823L132.248 38.5039Z" fill="#474D66"/>
<path d="M143.634 29.0095L133.851 37.1647L124.794 32.9263C124.318 32.7055 123.757 32.9119 123.536 33.3823C123.315 33.8575 123.517 34.4191 123.992 34.6399L137.048 40.7455C137.178 40.8079 137.312 40.8319 137.446 40.8319C137.802 40.8319 138.142 40.6303 138.306 40.2847C138.526 39.8095 138.325 39.2479 137.85 39.0271L135.742 38.0383L144.848 30.4591C145.251 30.1327 145.304 29.5279 144.973 29.1343C144.632 28.7311 144.037 28.6783 143.634 29.0095Z" fill="#474D66"/>
<path d="M423.248 224.493L418.659 223.014C418.269 221.376 417.686 219.802 416.925 218.317L419.344 213.626C419.446 213.427 419.402 213.197 419.254 213.043L413.962 207.744C413.808 207.59 413.571 207.565 413.379 207.654L409.085 209.862C407.702 208.998 406.166 208.288 404.534 207.757L402.915 202.758C402.858 202.547 402.653 202.406 402.442 202.406H394.954C394.742 202.406 394.544 202.547 394.48 202.758L393.002 207.328C391.363 207.718 389.789 208.314 388.304 209.062L383.613 206.662C383.414 206.56 383.184 206.605 383.03 206.752L377.738 212.045C377.578 212.205 377.539 212.435 377.635 212.627L379.843 216.902C378.979 218.31 378.269 219.834 377.738 221.453L372.739 223.072C372.541 223.136 372.4 223.328 372.4 223.546V231.027C372.4 231.251 372.541 231.437 372.752 231.507L377.322 232.973C377.712 234.611 378.294 236.186 379.056 237.67L376.656 242.368C376.554 242.56 376.598 242.797 376.746 242.95L382.038 248.243C382.198 248.397 382.429 248.435 382.621 248.333L386.896 246.144C388.304 247.008 389.827 247.712 391.453 248.23L393.059 253.242C393.13 253.453 393.322 253.594 393.539 253.594H401.021C401.245 253.594 401.43 253.453 401.501 253.242L402.966 248.672C404.605 248.269 406.179 247.686 407.664 246.925L412.362 249.331C412.554 249.434 412.79 249.389 412.944 249.229L418.237 243.936C418.39 243.782 418.429 243.546 418.326 243.354L416.138 239.078C417.002 237.651 417.706 236.128 418.218 234.528L423.248 232.909C423.459 232.864 423.6 232.666 423.6 232.454V224.966C423.6 224.742 423.459 224.55 423.248 224.493ZM398 243.418C389.494 243.418 382.589 236.499 382.589 228C382.589 219.507 389.494 212.589 398 212.589C406.506 212.589 413.411 219.507 413.411 228C413.411 236.499 406.506 243.418 398 243.418Z" fill="#474D66"/>
<path d="M408.15 221.92L410.026 220.838C410.166 220.749 410.339 220.755 410.48 220.826C409.283 218.758 407.606 217.018 405.59 215.763C405.642 215.904 405.642 216.051 405.558 216.192L404.477 218.061C404.387 218.221 404.214 218.31 404.048 218.31C403.958 218.31 403.875 218.291 403.798 218.253C403.555 218.112 403.478 217.798 403.606 217.562L404.688 215.693C404.778 215.539 404.918 215.469 405.072 215.45C403.126 214.342 400.886 213.69 398.506 213.6V216.058C398.506 216.339 398.282 216.557 398.006 216.557C397.731 216.557 397.507 216.333 397.507 216.058V213.6C395.21 213.683 393.053 214.285 391.139 215.315C391.178 215.354 391.222 215.398 391.248 215.443L392.33 217.312C392.47 217.555 392.387 217.862 392.15 218.003C392.067 218.042 391.978 218.061 391.901 218.061C391.728 218.061 391.562 217.971 391.472 217.811L390.39 215.942C390.358 215.891 390.352 215.853 390.339 215.802C388.49 216.979 386.928 218.554 385.77 220.422L387.619 221.485C387.862 221.626 387.939 221.939 387.798 222.17C387.709 222.33 387.536 222.419 387.37 222.419C387.286 222.419 387.197 222.4 387.12 222.362L385.264 221.286C384.291 223.142 383.709 225.242 383.626 227.462H385.622C385.904 227.462 386.122 227.693 386.122 227.962C386.122 228.243 385.898 228.461 385.622 228.461H383.626C383.696 230.669 384.259 232.749 385.219 234.592L386.877 233.626C387.12 233.485 387.427 233.568 387.562 233.805C387.702 234.048 387.619 234.355 387.382 234.496L385.725 235.45C386.832 237.267 388.323 238.835 390.102 240L391.056 238.342C391.197 238.099 391.498 238.022 391.741 238.163C391.984 238.304 392.061 238.605 391.92 238.848L390.954 240.525C392.771 241.562 394.826 242.189 397.027 242.342V240.346C397.027 240.077 397.251 239.846 397.526 239.846C397.808 239.846 398.026 240.077 398.026 240.346V242.394C400.266 242.381 402.371 241.862 404.259 240.941L403.197 239.091C403.056 238.848 403.139 238.547 403.376 238.406C403.619 238.266 403.926 238.349 404.067 238.586L405.142 240.461C405.142 240.461 405.142 240.474 405.155 240.474C407.062 239.379 408.707 237.862 409.942 236.038C409.891 236.026 409.834 236.026 409.789 236L407.914 234.918C407.67 234.778 407.594 234.477 407.734 234.234C407.862 233.99 408.176 233.914 408.419 234.054L410.294 235.13C410.346 235.168 410.384 235.213 410.422 235.251C411.549 233.357 412.227 231.174 412.368 228.845C412.285 228.902 412.189 228.947 412.067 228.947H409.904C409.622 228.947 409.405 228.723 409.405 228.448C409.405 228.179 409.629 227.949 409.904 227.949H412.061C412.189 227.949 412.31 228 412.4 228.09V227.987C412.4 225.587 411.805 223.322 410.755 221.318C410.736 221.472 410.666 221.606 410.525 221.69L408.65 222.771C408.566 222.822 408.477 222.842 408.4 222.842C408.227 222.842 408.061 222.752 407.971 222.592C407.83 222.362 407.907 222.054 408.15 221.92ZM406.23 221.798L398.678 228.096L400.714 229.05C400.963 229.171 401.072 229.459 400.957 229.715C400.874 229.907 400.688 230.003 400.502 230.003C400.432 230.003 400.349 229.99 400.291 229.965L397.834 228.813L396.278 230.106C396.189 230.176 396.08 230.214 395.958 230.214C395.818 230.214 395.677 230.157 395.574 230.035C395.395 229.824 395.421 229.504 395.632 229.331L396.829 228.339L389.891 225.094C389.642 224.986 389.533 224.685 389.648 224.429C389.763 224.173 390.07 224.07 390.32 224.186L397.667 227.616L405.578 221.03C405.789 220.851 406.109 220.877 406.282 221.088C406.474 221.312 406.442 221.632 406.23 221.798Z" fill="#474D66"/>
<path d="M242.248 28.4929L237.659 27.0145C237.269 25.3761 236.686 23.8017 235.925 22.3169L238.344 17.6257C238.446 17.4273 238.402 17.1969 238.254 17.0433L232.962 11.7441C232.808 11.5905 232.571 11.5649 232.379 11.6545L228.085 13.8625C226.702 12.9985 225.166 12.2881 223.534 11.7569L221.915 6.75849C221.858 6.54729 221.653 6.40649 221.442 6.40649H213.954C213.742 6.40649 213.544 6.54729 213.48 6.75849L212.002 11.3281C210.363 11.7185 208.789 12.3137 207.304 13.0625L202.613 10.6625C202.414 10.5601 202.184 10.6049 202.03 10.7521L196.738 16.0449C196.578 16.2049 196.539 16.4353 196.635 16.6273L198.843 20.9025C197.979 22.3105 197.269 23.8337 196.738 25.4529L191.739 27.0721C191.541 27.1361 191.4 27.3281 191.4 27.5457V35.0273C191.4 35.2513 191.541 35.4369 191.752 35.5073L196.322 36.9729C196.712 38.6113 197.294 40.1857 198.056 41.6705L195.656 46.3681C195.554 46.5601 195.598 46.7969 195.746 46.9505L201.038 52.2433C201.198 52.3969 201.429 52.4353 201.621 52.3329L205.896 50.1441C207.304 51.0081 208.827 51.7121 210.453 52.2305L212.059 57.2417C212.13 57.4529 212.322 57.5937 212.539 57.5937H220.021C220.245 57.5937 220.43 57.4529 220.501 57.2417L221.966 52.6721C223.605 52.2689 225.179 51.6865 226.664 50.9249L231.362 53.3313C231.554 53.4337 231.79 53.3889 231.944 53.2289L237.237 47.9361C237.39 47.7825 237.429 47.5457 237.326 47.3537L235.138 43.0785C236.002 41.6513 236.706 40.1281 237.218 38.5281L242.248 36.9089C242.459 36.8641 242.6 36.6657 242.6 36.4545V28.9665C242.6 28.7425 242.459 28.5505 242.248 28.4929ZM217 47.4177C208.494 47.4177 201.589 40.4993 201.589 32.0001C201.589 23.5073 208.494 16.5889 217 16.5889C225.506 16.5889 232.411 23.5073 232.411 32.0001C232.411 40.4993 225.506 47.4177 217 47.4177Z" fill="#474D66"/>
<path d="M227.15 25.9201L229.026 24.8385C229.166 24.7489 229.339 24.7553 229.48 24.8257C228.283 22.7585 226.606 21.0177 224.59 19.7633C224.642 19.9041 224.642 20.0513 224.558 20.1921L223.477 22.0609C223.387 22.2209 223.214 22.3105 223.048 22.3105C222.958 22.3105 222.875 22.2913 222.798 22.2529C222.555 22.1121 222.478 21.7985 222.606 21.5617L223.688 19.6929C223.778 19.5393 223.918 19.4689 224.072 19.4497C222.126 18.3425 219.886 17.6897 217.506 17.6001V20.0577C217.506 20.3393 217.282 20.5569 217.006 20.5569C216.731 20.5569 216.507 20.3329 216.507 20.0577V17.6001C214.21 17.6833 212.053 18.2849 210.139 19.3153C210.178 19.3537 210.222 19.3985 210.248 19.4433L211.33 21.3121C211.47 21.5553 211.387 21.8625 211.15 22.0033C211.067 22.0417 210.978 22.0609 210.901 22.0609C210.728 22.0609 210.562 21.9713 210.472 21.8113L209.39 19.9425C209.358 19.8913 209.352 19.8529 209.339 19.8017C207.49 20.9793 205.928 22.5537 204.77 24.4225L206.619 25.4849C206.862 25.6257 206.939 25.9393 206.798 26.1697C206.709 26.3297 206.536 26.4193 206.37 26.4193C206.286 26.4193 206.197 26.4001 206.12 26.3617L204.264 25.2865C203.291 27.1425 202.709 29.2417 202.626 31.4625H204.622C204.904 31.4625 205.122 31.6929 205.122 31.9617C205.122 32.2433 204.898 32.4609 204.622 32.4609H202.626C202.696 34.6689 203.259 36.7489 204.219 38.5921L205.877 37.6257C206.12 37.4849 206.427 37.5681 206.562 37.8049C206.702 38.0481 206.619 38.3553 206.382 38.4961L204.725 39.4497C205.832 41.2673 207.323 42.8353 209.102 44.0001L210.056 42.3425C210.197 42.0993 210.498 42.0225 210.741 42.1633C210.984 42.3041 211.061 42.6049 210.92 42.8481L209.954 44.5249C211.771 45.5617 213.826 46.1889 216.027 46.3425V44.3457C216.027 44.0769 216.251 43.8465 216.526 43.8465C216.808 43.8465 217.026 44.0769 217.026 44.3457V46.3937C219.266 46.3809 221.371 45.8625 223.259 44.9409L222.197 43.0913C222.056 42.8481 222.139 42.5473 222.376 42.4065C222.619 42.2657 222.926 42.3489 223.067 42.5857L224.142 44.4609C224.142 44.4609 224.142 44.4737 224.155 44.4737C226.062 43.3793 227.707 41.8625 228.942 40.0385C228.891 40.0257 228.834 40.0257 228.789 40.0001L226.914 38.9185C226.67 38.7777 226.594 38.4769 226.734 38.2337C226.862 37.9905 227.176 37.9137 227.419 38.0545L229.294 39.1297C229.346 39.1681 229.384 39.2129 229.422 39.2513C230.549 37.3569 231.227 35.1745 231.368 32.8449C231.285 32.9025 231.189 32.9473 231.067 32.9473H228.904C228.622 32.9473 228.405 32.7233 228.405 32.4481C228.405 32.1793 228.629 31.9489 228.904 31.9489H231.061C231.189 31.9489 231.31 32.0001 231.4 32.0897V31.9873C231.4 29.5873 230.805 27.3217 229.755 25.3185C229.736 25.4721 229.666 25.6065 229.525 25.6897L227.65 26.7713C227.566 26.8225 227.477 26.8417 227.4 26.8417C227.227 26.8417 227.061 26.7521 226.971 26.5921C226.83 26.3617 226.907 26.0545 227.15 25.9201ZM225.23 25.7985L217.678 32.0961L219.714 33.0497C219.963 33.1713 220.072 33.4593 219.957 33.7153C219.874 33.9073 219.688 34.0033 219.502 34.0033C219.432 34.0033 219.349 33.9905 219.291 33.9649L216.834 32.8129L215.278 34.1057C215.189 34.1761 215.08 34.2145 214.958 34.2145C214.818 34.2145 214.677 34.1569 214.574 34.0353C214.395 33.8241 214.421 33.5041 214.632 33.3313L215.829 32.3393L208.891 29.0945C208.642 28.9857 208.533 28.6849 208.648 28.4289C208.763 28.1729 209.07 28.0705 209.32 28.1857L216.667 31.6161L224.578 25.0305C224.789 24.8513 225.109 24.8769 225.282 25.0881C225.474 25.3121 225.442 25.6321 225.23 25.7985Z" fill="#474D66"/>
<g clip-path="url(#clip0_305_2202)">
<path d="M12.4057 124.058C12.4057 123.778 12.6325 123.552 12.9118 123.552H24.0074C24.2868 123.552 24.5136 123.779 24.5136 124.058C24.5136 124.337 24.2868 124.564 24.0074 124.564H12.9118C12.6325 124.564 12.4057 124.337 12.4057 124.058ZM12.9118 126.554H19.9761C20.2555 126.554 20.4823 126.327 20.4823 126.048C20.4823 125.768 20.2555 125.542 19.9761 125.542H12.9118C12.6325 125.542 12.4057 125.768 12.4057 126.048C12.4057 126.327 12.6325 126.554 12.9118 126.554ZM10.7544 123.939L9.56564 125.128L9.19268 124.755C8.99468 124.557 8.67428 124.557 8.47664 124.755C8.279 124.953 8.279 125.273 8.47664 125.471L9.2078 126.202C9.3068 126.301 9.4364 126.35 9.566 126.35C9.6956 126.35 9.8252 126.301 9.9242 126.202L11.4711 124.655C11.6688 124.457 11.6688 124.137 11.4711 123.939C11.2731 123.741 10.9527 123.741 10.7551 123.939L10.7544 123.939ZM12.9118 131.079H24.0074C24.2868 131.079 24.5136 130.852 24.5136 130.573C24.5136 130.294 24.2868 130.067 24.0074 130.067H12.9118C12.6325 130.067 12.4057 130.294 12.4057 130.573C12.4057 130.852 12.6325 131.079 12.9118 131.079ZM12.9118 133.069H19.9761C20.2555 133.069 20.4823 132.842 20.4823 132.563C20.4823 132.283 20.2555 132.057 19.9761 132.057H12.9118C12.6325 132.057 12.4057 132.283 12.4057 132.563C12.4057 132.842 12.6325 133.069 12.9118 133.069ZM12.9118 136.581C12.6325 136.581 12.4057 136.808 12.4057 137.088C12.4057 137.367 12.6325 137.594 12.9118 137.594H24.0074C24.2868 137.594 24.5136 137.367 24.5136 137.088C24.5136 136.808 24.2868 136.581 24.0074 136.581H12.9118ZM19.9761 138.571H12.9118C12.6325 138.571 12.4057 138.798 12.4057 139.077C12.4057 139.356 12.6325 139.583 12.9118 139.583H19.9761C20.2555 139.583 20.4823 139.356 20.4823 139.077C20.4823 138.798 20.2555 138.571 19.9761 138.571ZM38.0719 147.374C38.2483 147.591 38.2159 147.91 37.9988 148.087C37.9048 148.163 37.7918 148.2 37.6795 148.2C37.5326 148.2 37.3868 148.136 37.2864 148.014L31.0681 140.379C30.9043 140.177 30.919 139.885 31.1026 139.701L31.2578 139.546L30.9939 139.282C29.9398 139.549 28.8415 139.254 28.0646 138.478L27.0418 137.455V142.848C27.0418 143.743 26.3143 144.47 25.42 144.47H7.42112C6.52724 144.47 5.79968 143.743 5.79968 142.848V120.295C5.79968 119.401 6.52724 118.673 7.42112 118.673H11.5575C11.5766 117.94 12.1756 117.349 12.9129 117.349H14.1204C14.4951 116.431 15.4048 115.8 16.4204 115.8C17.436 115.8 18.3464 116.431 18.7208 117.349H19.9282C20.6659 117.349 21.2649 117.94 21.2844 118.673H25.4204C26.3146 118.673 27.0422 119.401 27.0422 120.295V125.496L31.4292 129.883C31.5476 129.363 31.6984 128.713 31.8302 128.152C32.0008 127.429 32.6316 126.931 33.3706 126.931C33.3804 126.931 33.3901 126.931 33.3994 126.931C34.2026 126.946 34.8614 127.516 34.9312 128.258C34.9647 128.607 35.0223 129.053 35.0868 129.553C35.2999 131.209 35.5868 133.437 35.3535 134.84L35.6592 135.145L35.8143 134.99C36.0123 134.792 36.3327 134.792 36.5304 134.99L38.0521 136.512C38.2497 136.71 38.2497 137.03 38.0521 137.228C37.8541 137.426 37.5337 137.426 37.336 137.228L36.1722 136.064L36.017 136.219L32.332 139.904C32.332 139.904 32.3306 139.905 32.3302 139.905L32.142 140.094L38.0719 147.373V147.374ZM12.5666 119.651C12.5666 119.842 12.7221 119.997 12.9129 119.997H19.9282C20.1198 119.997 20.2753 119.842 20.2753 119.651V118.708C20.2753 118.517 20.1198 118.362 19.9282 118.362H18.3504C18.1124 118.362 17.9068 118.196 17.8557 117.964C17.7096 117.297 17.1058 116.812 16.4204 116.812C15.735 116.812 15.132 117.297 14.9854 117.964C14.9343 118.196 14.7288 118.361 14.4908 118.361H12.9129C12.7221 118.361 12.5666 118.517 12.5666 118.708V119.65V119.651ZM26.0292 136.442L24.344 134.757C24.0798 134.493 23.9347 134.141 23.9347 133.766C23.9347 133.391 24.0798 133.04 24.344 132.776C24.4671 132.653 24.6039 132.552 24.7494 132.477C24.6154 132.259 24.5438 132.007 24.5442 131.744C24.5442 131.37 24.69 131.018 24.9546 130.754C25.0932 130.615 25.2505 130.505 25.4193 130.426C25.199 129.909 25.3192 129.293 25.7718 128.84C25.8506 128.76 25.9381 128.696 26.0295 128.639V128.547L24.8592 127.377C24.5704 127.088 24.425 126.714 24.4495 126.322C24.4722 125.966 24.6356 125.619 24.9099 125.345C25.1738 125.081 25.5259 124.935 25.9003 124.935C25.9442 124.935 25.9863 124.944 26.0295 124.948V120.295C26.0295 119.959 25.7563 119.686 25.4204 119.686H21.2844C21.2653 120.419 20.6659 121.01 19.9282 121.01H12.9129C12.1756 121.01 11.5766 120.419 11.5575 119.686H7.42112C7.08524 119.686 6.81236 119.959 6.81236 120.295V142.849C6.81236 143.185 7.0856 143.458 7.42112 143.458H25.42C25.7563 143.458 26.0292 143.185 26.0292 142.849V136.442ZM31.9735 138.83L33.4581 137.346L34.9428 135.861L34.446 135.364C34.3214 135.239 34.2703 135.059 34.312 134.887C34.5997 133.699 34.3009 131.377 34.0824 129.683C34.0165 129.169 33.9574 128.711 33.9236 128.353C33.8998 128.102 33.6295 127.948 33.3818 127.943H33.3706C33.1006 127.943 32.8785 128.119 32.8159 128.383C32.5527 129.503 32.2633 130.77 32.2208 130.99C32.1852 131.173 32.0509 131.323 31.872 131.377C31.6927 131.432 31.4983 131.384 31.3658 131.251L26.1753 126.061C26.0295 125.915 25.7718 125.915 25.6256 126.061C25.5255 126.161 25.4672 126.276 25.46 126.386C25.4535 126.487 25.4913 126.577 25.5752 126.661L29.1925 130.278C29.3901 130.476 29.3901 130.797 29.1925 130.994C28.9945 131.192 28.6741 131.192 28.4764 130.994L27.0368 129.555C26.8852 129.403 26.6386 129.404 26.4871 129.555C26.4331 129.609 26.1757 129.893 26.437 130.154L27.9577 131.675C28.1553 131.873 28.1553 132.193 27.9577 132.391C27.7597 132.589 27.4393 132.589 27.2416 132.391L26.2693 131.419C26.1858 131.335 26.0958 131.3 25.9946 131.303C25.8848 131.31 25.7696 131.369 25.6702 131.468C25.5968 131.542 25.5565 131.64 25.5565 131.744C25.5565 131.848 25.5964 131.945 25.6695 132.018L27.4522 133.8C27.6499 133.998 27.6499 134.318 27.4522 134.516C27.2542 134.713 26.9338 134.714 26.7366 134.516L25.6602 133.44C25.582 133.362 25.4992 133.324 25.4071 133.324C25.2922 133.324 25.1659 133.385 25.0604 133.49C24.9873 133.564 24.947 133.661 24.947 133.765C24.947 133.869 24.9873 133.967 25.0604 134.04L26.8932 135.873L26.8939 135.874L28.7806 137.761C29.353 138.334 30.1897 138.514 30.9637 138.232C31.0202 138.212 31.0785 138.202 31.1368 138.202C31.2686 138.202 31.3982 138.253 31.495 138.35L31.9738 138.829L31.9735 138.83ZM10.754 130.454L9.56528 131.643L9.19232 131.269C8.99432 131.072 8.67392 131.072 8.47628 131.269C8.27864 131.467 8.27864 131.788 8.47628 131.985L9.20744 132.716C9.30644 132.815 9.43604 132.865 9.56564 132.865C9.69524 132.865 9.82484 132.815 9.92384 132.716L11.4708 131.17C11.6684 130.972 11.6684 130.651 11.4708 130.454C11.2728 130.256 10.9524 130.256 10.7547 130.454H10.754ZM10.754 137.18L9.56528 138.369L9.19232 137.996C8.99432 137.798 8.67392 137.798 8.47628 137.996C8.27864 138.194 8.27864 138.514 8.47628 138.712L9.20744 139.443C9.30644 139.542 9.43604 139.591 9.56564 139.591C9.69524 139.591 9.82484 139.542 9.92384 139.443L11.4708 137.896C11.6684 137.698 11.6684 137.378 11.4708 137.18C11.2728 136.982 10.9524 136.982 10.7547 137.18H10.754Z" fill="#474D66"/>
</g>
<path d="M305.606 162.258C305.606 161.978 305.833 161.752 306.112 161.752H317.208C317.487 161.752 317.714 161.979 317.714 162.258C317.714 162.537 317.487 162.764 317.208 162.764H306.112C305.833 162.764 305.606 162.537 305.606 162.258ZM306.112 164.754H313.176C313.456 164.754 313.683 164.527 313.683 164.248C313.683 163.968 313.456 163.742 313.176 163.742H306.112C305.833 163.742 305.606 163.968 305.606 164.248C305.606 164.527 305.833 164.754 306.112 164.754ZM303.955 162.139L302.766 163.328L302.393 162.955C302.195 162.757 301.875 162.757 301.677 162.955C301.479 163.153 301.479 163.473 301.677 163.671L302.408 164.402C302.507 164.5 302.637 164.55 302.766 164.55C302.896 164.55 303.026 164.501 303.125 164.402L304.671 162.855C304.869 162.657 304.869 162.337 304.671 162.139C304.473 161.941 304.153 161.941 303.955 162.139L303.955 162.139ZM306.112 169.279H317.208C317.487 169.279 317.714 169.052 317.714 168.773C317.714 168.494 317.487 168.267 317.208 168.267H306.112C305.833 168.267 305.606 168.494 305.606 168.773C305.606 169.052 305.833 169.279 306.112 169.279ZM306.112 171.269H313.176C313.456 171.269 313.683 171.042 313.683 170.763C313.683 170.483 313.456 170.257 313.176 170.257H306.112C305.833 170.257 305.606 170.483 305.606 170.763C305.606 171.042 305.833 171.269 306.112 171.269ZM306.112 174.781C305.833 174.781 305.606 175.008 305.606 175.288C305.606 175.567 305.833 175.794 306.112 175.794H317.208C317.487 175.794 317.714 175.567 317.714 175.288C317.714 175.008 317.487 174.781 317.208 174.781H306.112ZM313.176 176.771H306.112C305.833 176.771 305.606 176.998 305.606 177.277C305.606 177.556 305.833 177.783 306.112 177.783H313.176C313.456 177.783 313.683 177.556 313.683 177.277C313.683 176.998 313.456 176.771 313.176 176.771ZM331.272 185.574C331.449 185.791 331.416 186.11 331.199 186.287C331.105 186.363 330.992 186.4 330.88 186.4C330.733 186.4 330.587 186.336 330.487 186.214L324.268 178.579C324.105 178.377 324.119 178.085 324.303 177.901L324.458 177.746L324.194 177.482C323.14 177.748 322.042 177.454 321.265 176.678L320.242 175.655V181.048C320.242 181.942 319.515 182.67 318.62 182.67H300.621C299.728 182.67 299 181.942 299 181.048V158.495C299 157.601 299.728 156.873 300.621 156.873H304.758C304.777 156.14 305.376 155.549 306.113 155.549H307.321C307.695 154.631 308.605 154 309.621 154C310.636 154 311.547 154.631 311.921 155.549H313.129C313.866 155.549 314.465 156.14 314.485 156.873H318.621C319.515 156.873 320.243 157.601 320.243 158.495V163.696L324.629 168.083C324.748 167.563 324.899 166.913 325.031 166.352C325.201 165.629 325.832 165.131 326.571 165.131C326.581 165.131 326.59 165.131 326.6 165.131C327.403 165.146 328.062 165.716 328.132 166.458C328.165 166.807 328.223 167.253 328.287 167.753C328.5 169.409 328.787 171.637 328.554 173.04L328.859 173.345L329.015 173.19C329.213 172.992 329.533 172.992 329.731 173.19L331.252 174.712C331.45 174.91 331.45 175.23 331.252 175.428C331.054 175.626 330.734 175.626 330.536 175.428L329.372 174.264L329.217 174.419L325.532 178.104C325.532 178.104 325.531 178.105 325.531 178.105L325.342 178.294L331.272 185.573V185.574ZM305.767 157.851C305.767 158.042 305.922 158.197 306.113 158.197H313.129C313.32 158.197 313.476 158.042 313.476 157.851V156.908C313.476 156.717 313.32 156.562 313.129 156.562H311.551C311.313 156.562 311.107 156.396 311.056 156.164C310.91 155.497 310.306 155.012 309.621 155.012C308.935 155.012 308.332 155.497 308.186 156.164C308.135 156.396 307.929 156.561 307.691 156.561H306.113C305.922 156.561 305.767 156.717 305.767 156.908V157.85V157.851ZM319.229 174.642L317.544 172.957C317.28 172.693 317.135 172.341 317.135 171.966C317.135 171.591 317.28 171.24 317.544 170.976C317.667 170.853 317.804 170.752 317.95 170.677C317.816 170.459 317.744 170.207 317.744 169.944C317.744 169.57 317.89 169.218 318.155 168.954C318.293 168.815 318.451 168.705 318.62 168.626C318.399 168.109 318.52 167.493 318.972 167.04C319.051 166.96 319.138 166.896 319.23 166.839V166.747L318.059 165.577C317.771 165.288 317.625 164.914 317.65 164.522C317.672 164.166 317.836 163.819 318.11 163.545C318.374 163.281 318.726 163.135 319.101 163.135C319.145 163.135 319.187 163.144 319.23 163.148V158.495C319.23 158.159 318.957 157.886 318.621 157.886H314.485C314.466 158.619 313.866 159.21 313.129 159.21H306.113C305.376 159.21 304.777 158.619 304.758 157.886H300.621C300.286 157.886 300.013 158.159 300.013 158.495V181.049C300.013 181.385 300.286 181.658 300.621 181.658H318.62C318.957 181.658 319.229 181.384 319.229 181.049V174.642ZM325.174 177.03L326.658 175.546L328.143 174.061L327.646 173.564C327.522 173.439 327.471 173.259 327.512 173.087C327.8 171.898 327.501 169.577 327.283 167.883C327.217 167.369 327.158 166.911 327.124 166.553C327.1 166.302 326.83 166.148 326.582 166.143H326.571C326.301 166.143 326.079 166.319 326.016 166.583C325.753 167.703 325.464 168.97 325.421 169.189C325.385 169.373 325.251 169.522 325.072 169.577C324.893 169.632 324.699 169.584 324.566 169.451L319.376 164.261C319.23 164.115 318.972 164.115 318.826 164.261C318.726 164.361 318.668 164.476 318.66 164.586C318.654 164.687 318.692 164.777 318.776 164.86L322.393 168.478C322.59 168.676 322.59 168.997 322.393 169.194C322.195 169.392 321.874 169.392 321.677 169.194L320.237 167.755C320.086 167.603 319.839 167.604 319.687 167.755C319.633 167.809 319.376 168.093 319.637 168.354L321.158 169.875C321.356 170.073 321.356 170.393 321.158 170.591C320.96 170.789 320.64 170.789 320.442 170.591L319.47 169.619C319.386 169.535 319.296 169.5 319.195 169.503C319.085 169.51 318.97 169.569 318.871 169.668C318.797 169.742 318.757 169.84 318.757 169.944C318.757 170.048 318.797 170.145 318.87 170.218L320.653 172C320.85 172.198 320.85 172.518 320.653 172.716C320.455 172.913 320.134 172.914 319.937 172.716L318.86 171.64C318.782 171.562 318.7 171.524 318.607 171.524C318.493 171.524 318.366 171.585 318.261 171.69C318.188 171.764 318.147 171.861 318.147 171.965C318.147 172.069 318.188 172.167 318.261 172.24L320.093 174.073L320.094 174.074L321.981 175.961C322.553 176.533 323.39 176.714 324.164 176.432C324.221 176.412 324.279 176.402 324.337 176.402C324.469 176.402 324.599 176.453 324.695 176.55L325.174 177.029L325.174 177.03ZM303.954 168.654L302.766 169.843L302.393 169.469C302.195 169.272 301.874 169.272 301.677 169.469C301.479 169.667 301.479 169.988 301.677 170.185L302.408 170.916C302.507 171.015 302.636 171.065 302.766 171.065C302.896 171.065 303.025 171.015 303.124 170.916L304.671 169.37C304.869 169.172 304.869 168.851 304.671 168.654C304.473 168.456 304.153 168.456 303.955 168.654H303.954ZM303.954 175.38L302.766 176.569L302.393 176.196C302.195 175.998 301.874 175.998 301.677 176.196C301.479 176.394 301.479 176.714 301.677 176.912L302.408 177.643C302.507 177.742 302.636 177.791 302.766 177.791C302.896 177.791 303.025 177.742 303.124 177.643L304.671 176.096C304.869 175.898 304.869 175.578 304.671 175.38C304.473 175.182 304.153 175.182 303.955 175.38H303.954Z" fill="#474D66"/>
<path d="M59.8125 201.5L53.4375 195.062L56.125 192.375C56.375 192.125 56.375 191.75 56.125 191.5C56 191.375 55.875 191.312 55.6875 191.312H45.9375C45.5625 191.312 45.3125 191.562 45.3125 191.938V201.625C45.3125 202 45.625 202.25 45.9375 202.25C46.125 202.25 46.25 202.188 46.375 202.063L49.0625 199.375L55.4375 205.75C55.6875 206 56.0625 206 56.3125 205.75L59.75 202.312C59.875 202.187 59.9375 202.063 59.9375 201.875C60 201.75 59.9375 201.625 59.8125 201.5ZM55.9375 204.438L49.5625 198.062C49.4375 197.937 49.3125 197.875 49.125 197.875C48.9375 197.875 48.8125 197.937 48.6875 198.062L46.625 200.125V192.562H54.1875L52.125 194.625C51.875 194.875 51.875 195.25 52.125 195.5L58.5 201.875L55.9375 204.438Z" fill="#474D66"/>
<path d="M44.6875 194.375C43.875 194 43.375 193.187 43.25 192.312C43.25 192.187 43.25 192.063 43.25 191.875C43.25 190.375 44.5 189.125 46 189.125C47 189.125 48 189.688 48.4375 190.625C48.5625 190.938 48.9375 191.125 49.25 190.938C49.5625 190.813 49.75 190.437 49.5625 190.125C49.5625 190.125 49.5625 190.062 49.5 190.062C49 189.125 48.1875 188.375 47.1875 188.062C46.8125 187.937 46.375 187.875 45.9375 187.875C43.75 187.875 41.9375 189.688 41.9375 191.875C41.9375 192.063 41.9375 192.313 42 192.5C42.1875 193.75 43 194.875 44.125 195.437C44.1875 195.5 44.3125 195.5 44.4375 195.5C44.8125 195.5 45.0625 195.188 45.0625 194.875C45.0625 194.688 44.9375 194.5 44.6875 194.375Z" fill="#474D66"/>
<path d="M44.5625 197.125C44.3125 197.062 44.0625 197 43.875 196.875C42 196.125 40.75 194.375 40.625 192.375C40.625 192.25 40.625 192.063 40.625 191.938C40.6875 189 43.125 186.625 46.0625 186.687C48.4375 186.75 50.4375 188.312 51.125 190.562C51.1875 190.875 51.5625 191.125 51.875 191C52.1875 190.875 52.4375 190.562 52.3125 190.25C51.6875 187.875 49.8125 186.063 47.4375 185.5C46.9375 185.375 46.4375 185.312 45.9375 185.312C42.3125 185.312 39.375 188.313 39.375 191.938C39.375 192.125 39.375 192.313 39.375 192.5C39.5625 194.938 41.125 197.062 43.375 198.062C43.6875 198.187 43.9375 198.312 44.25 198.375C44.3125 198.375 44.375 198.375 44.375 198.375C44.75 198.437 45.0625 198.188 45.0625 197.813C45.0625 197.438 44.9375 197.125 44.5625 197.125Z" fill="#474D66"/>
<path d="M22.5 198H21.25V199.25H22.5V198Z" fill="#474D66"/>
<path d="M58.125 167.875H56.875V169.125H58.125V167.875Z" fill="#474D66"/>
<path d="M26.25 167.25H25V168.5H26.25V167.25Z" fill="#474D66"/>
<path d="M25.625 202.875H24.375V204.125H25.625V202.875Z" fill="#474D66"/>
<path d="M52.375 168.438H51.125V169.688H52.375V168.438Z" fill="#474D66"/>
<path d="M21.875 171H20.625V172.25H21.875V171Z" fill="#474D66"/>
<path d="M35 202.875H33.75V204.125H35V202.875Z" fill="#474D66"/>
<path d="M58.75 175.375H57.5V176.625H58.75V175.375Z" fill="#474D66"/>
<path d="M38.5 184.5H55C55.375 184.5 55.625 184.25 55.625 183.875C55.625 174.5 48.375 166.75 39 166.125H38.9375C38.625 166.125 38.3125 166.125 38 166.125H37.875C37.5625 166.125 37.25 166.125 36.9375 166.125H36.8125C27.375 166.687 20.125 174.437 20.125 183.812C20.125 186.937 20.9375 189.937 22.5 192.625C25.4375 197.812 30.8125 201.125 36.75 201.5H36.875C37.1875 201.5 37.5625 201.5 37.9375 201.5C38.3125 201.5 38.5625 201.25 38.5625 200.875L38.5 184.5ZM30.5 193.062H37.25V200.313C34.5625 199.938 32.0625 197.25 30.5 193.062ZM37.25 191.812H30.0625C29.375 189.437 29 186.937 28.9375 184.5H37.1875V191.812H37.25ZM21.375 184.5H27.75C27.8125 187 28.125 189.437 28.8125 191.812H23.4375C22.1875 189.562 21.5 187.062 21.375 184.5ZM23.375 175.875H28.75C28.0625 178.25 27.75 180.75 27.6875 183.187H21.375C21.4375 180.687 22.1875 178.125 23.375 175.875ZM38.5 167.375C41.1875 167.75 43.6875 170.437 45.25 174.687H38.5V167.375ZM37.25 167.375V174.687H30.5C32 170.437 34.5625 167.75 37.25 167.375ZM37.25 175.875V183.187H29C29.0625 180.687 29.4375 178.25 30.125 175.875H37.25ZM38.5 175.875H45.625C46.3125 178.25 46.6875 180.75 46.75 183.187H38.5V175.875ZM54.375 183.25H48C47.9375 180.75 47.625 178.312 46.9375 175.937H52.3125C53.5625 178.125 54.25 180.687 54.375 183.25ZM51.5625 174.625H46.5625C45.8125 172.125 44.375 169.813 42.5 168C46.1875 169.063 49.4375 171.438 51.5625 174.625ZM33.25 168C31.3125 169.813 29.9375 172.125 29.125 174.687H24.125C26.3125 171.438 29.5625 169.063 33.25 168ZM24.1875 193.062H29.1875C29.9375 195.562 31.375 197.875 33.3125 199.688C29.5625 198.625 26.3125 196.25 24.1875 193.062Z" fill="#474D66"/>
<path d="M219 125H208V133H219V125Z" fill="#474D66"/>
<path d="M223 102C223 95.8001 219.6 90.2001 214.3 87.2001L215.7 85.8001L217 87.0001L218.4 85.6001L214.4 81.6001L213 83.0001L214.3 84.3001L212.4 86.2001C203.6 82.7001 193.7 87.0001 190.2 95.7001C186.7 104.4 191 114.3 199.7 117.8C208.4 121.3 218.3 117.1 221.8 108.4C222.6 106.3 223 104.2 223 102ZM210.3 87.6001C211.4 87.9001 212.5 88.4001 213.5 89.0001L212.5 90.7001C211.6 90.2001 210.7 89.8001 209.7 89.5001L210.3 87.6001ZM208.1 87.2001L207.8 89.2001C206.9 89.0001 206 89.0001 205.1 89.0001L205 87.0001C206 87.0001 207.1 87.0001 208.1 87.2001ZM202.8 87.3001L203.2 89.3001C202.2 89.5001 201.3 89.8001 200.4 90.3001L199.5 88.5001C200.6 88.0001 201.7 87.6001 202.8 87.3001ZM206 117C197.7 117 191 110.3 191 102C191 97.1001 193.4 92.5001 197.4 89.7001L198.5 91.3001C192.6 95.4001 191.2 103.5 195.3 109.4C199.4 115.3 207.5 116.7 213.4 112.6C216.9 110.2 219 106.3 219 102C219 98.9001 217.9 95.9001 216 93.5001L202 107.5L197.3 102.8L198.7 101.4L202 104.7L216 90.7001L216.7 91.4001C219.5 94.2001 221 98.0001 221 102C221 110.3 214.3 117 206 117Z" fill="#474D66"/>
<path d="M208 123H219V115.8C216 118.7 212.1 120.4 208 120.9V123Z" fill="#474D66"/>
<path d="M203 79H209C209.6 79 210 78.6 210 78C210 77.4 209.6 77 209 77H203C202.4 77 202 77.4 202 78C202 78.6 202.4 79 203 79Z" fill="#474D66"/>
<path d="M206 83C206.3 83 206.7 83 207 83.1V81H205V83.1C205.3 83 205.7 83 206 83Z" fill="#474D66"/>
<path d="M232 125H221V133H232V125Z" fill="#474D66"/>
<path d="M195 132C195 132.6 195.4 133 196 133H206V125H195V132Z" fill="#474D66"/>
<path d="M195 123H206V121C202.1 121 198.2 119.8 195 117.5V123Z" fill="#474D66"/>
<path d="M225 102C225 102.3 225 102.7 224.9 103H232V95H223.6C224.5 97.2 225 99.6 225 102Z" fill="#474D66"/>
<path d="M245 105H234V113H245V105Z" fill="#474D66"/>
<path d="M245 115H234V123H245V115Z" fill="#474D66"/>
<path d="M245 95H234V103H245V95Z" fill="#474D66"/>
<path d="M244 89H242V85H240V89H238V85H236V89H219.8C220.9 90.2 221.9 91.5 222.7 93H245V90C245 89.4 244.6 89 244 89Z" fill="#474D66"/>
<path d="M232 115H221V123H232V115Z" fill="#474D66"/>
<path d="M221.5 113H232V105H224.7C224.3 107.9 223.2 110.6 221.5 113Z" fill="#474D66"/>
<path d="M234 133H244C244.6 133 245 132.6 245 132V125H234V133Z" fill="#474D66"/>
<path d="M77.8438 68.9143H70.4531V74.2857H77.8438V68.9143Z" fill="#474D66"/>
<path d="M80.5312 53.4713C80.5312 49.3085 78.2469 45.5485 74.6859 43.5342L75.6265 42.5942L76.5 43.3999L77.4406 42.4599L74.7531 39.7742L73.8125 40.7142L74.6859 41.587L73.4094 42.8627C67.4969 40.5127 60.8453 43.3999 58.4937 49.2413C56.1422 55.0827 59.0312 61.7299 64.8765 64.0799C70.7219 66.4299 77.3734 63.6099 79.725 57.7685C80.2625 56.3585 80.5312 54.9485 80.5312 53.4713ZM71.9984 43.8027C72.7375 44.0042 73.4765 44.3399 74.1484 44.7427L73.4765 45.8842C72.8719 45.5485 72.2672 45.2799 71.5953 45.0785L71.9984 43.8027ZM70.5203 43.5342L70.3187 44.877C69.714 44.7427 69.1094 44.7427 68.5047 44.7427L68.4375 43.3999C69.1094 43.3999 69.8484 43.3999 70.5203 43.5342ZM66.9594 43.6013L67.2281 44.9442C66.5562 45.0785 65.9515 45.2799 65.3469 45.6156L64.7422 44.407C65.4812 44.0713 66.2203 43.8027 66.9594 43.6013ZM69.1094 63.5427C63.5328 63.5427 59.0312 59.0442 59.0312 53.4713C59.0312 50.1813 60.6437 47.0927 63.3312 45.2127L64.0703 46.287C60.1062 49.0399 59.1656 54.4785 61.9203 58.4399C64.675 62.4013 70.1172 63.3413 74.0812 60.5885C76.4328 58.977 77.8437 56.3585 77.8437 53.4713C77.8437 51.3899 77.1047 49.3756 75.8281 47.7642L66.4219 57.1642L63.264 54.0085L64.2047 53.0685L66.4219 55.2842L75.8281 45.8842L76.2984 46.3542C78.1797 48.2342 79.1875 50.7856 79.1875 53.4713C79.1875 59.0442 74.6859 63.5427 69.1094 63.5427Z" fill="#474D66"/>
<path d="M70.4531 67.5713H77.8438V62.7371C75.8281 64.6842 73.2078 65.8256 70.4531 66.1613V67.5713Z" fill="#474D66"/>
<path d="M67.0938 38.0286H71.125C71.5281 38.0286 71.7969 37.7601 71.7969 37.3572C71.7969 36.9544 71.5281 36.6858 71.125 36.6858H67.0938C66.6906 36.6858 66.4219 36.9544 66.4219 37.3572C66.4219 37.7601 66.6906 38.0286 67.0938 38.0286Z" fill="#474D66"/>
<path d="M69.1094 40.7142C69.3109 40.7142 69.5797 40.7142 69.7812 40.7813V39.3713H68.4375V40.7813C68.6391 40.7142 68.9078 40.7142 69.1094 40.7142Z" fill="#474D66"/>
<path d="M86.5781 68.9143H79.1875V74.2857H86.5781V68.9143Z" fill="#474D66"/>
<path d="M61.7188 73.6143C61.7188 74.0172 61.9875 74.2857 62.3906 74.2857H69.1094V68.9143H61.7188V73.6143Z" fill="#474D66"/>
<path d="M61.7188 67.5715H69.1094V66.2287C66.4891 66.2287 63.8688 65.4229 61.7188 63.8787V67.5715Z" fill="#474D66"/>
<path d="M81.875 53.4715C81.875 53.6729 81.875 53.9415 81.8078 54.1429H86.5781V48.7715H80.9343C81.539 50.2486 81.875 51.8601 81.875 53.4715Z" fill="#474D66"/>
<path d="M95.3125 55.4856H87.9219V60.857H95.3125V55.4856Z" fill="#474D66"/>
<path d="M95.3125 62.2H87.9219V67.5714H95.3125V62.2Z" fill="#474D66"/>
<path d="M95.3125 48.7715H87.9219V54.1429H95.3125V48.7715Z" fill="#474D66"/>
<path d="M94.6406 44.7428H93.2968V42.0571H91.9531V44.7428H90.6094V42.0571H89.2656V44.7428H78.3812C79.1203 45.5486 79.7922 46.4214 80.3297 47.4286H95.3125V45.4143C95.3125 45.0114 95.0437 44.7428 94.6406 44.7428Z" fill="#474D66"/>
<path d="M86.5781 62.2H79.1875V67.5714H86.5781V62.2Z" fill="#474D66"/>
<path d="M79.5234 60.857H86.5781V55.4856H81.6734C81.4047 57.4327 80.6656 59.2456 79.5234 60.857Z" fill="#474D66"/>
<path d="M87.9219 74.2857H94.6406C95.0438 74.2857 95.3125 74.0172 95.3125 73.6143V68.9143H87.9219V74.2857Z" fill="#474D66"/>
<defs>
<clipPath id="clip0_305_2202">
<rect width="36" height="34.2" fill="white" transform="translate(4 114)"/>
</clipPath>
</defs>
</svg>
