<svg width="69" height="70" viewBox="0 0 69 70" fill="none" xmlns="http://www.w3.org/2000/svg">
<path id="Vector" d="M14.0681 17.7337C14.0681 17.138 14.5511 16.6557 15.146 16.6557H38.7749C39.3699 16.6557 39.8529 17.1387 39.8529 17.7337C39.8529 18.3286 39.3699 18.8116 38.7749 18.8116H15.146C14.5511 18.8116 14.0681 18.3286 14.0681 17.7337ZM15.146 23.049H30.19C30.7849 23.049 31.2679 22.566 31.2679 21.971C31.2679 21.3761 30.7849 20.8931 30.19 20.8931H15.146C14.5511 20.8931 14.0681 21.3761 14.0681 21.971C14.0681 22.566 14.5511 23.049 15.146 23.049ZM10.5514 17.4807L8.01995 20.0122L7.22569 19.2172C6.80403 18.7963 6.12172 18.7963 5.70082 19.2172C5.27993 19.6388 5.27993 20.3212 5.70082 20.7421L7.25789 22.2992C7.46872 22.5092 7.74472 22.615 8.02071 22.615C8.29671 22.615 8.5727 22.51 8.78353 22.2992L12.0778 19.0048C12.4987 18.5831 12.4987 17.9008 12.0778 17.4799C11.6562 17.059 10.9739 17.059 10.553 17.4799L10.5514 17.4807ZM15.146 32.686H38.7749C39.3699 32.686 39.8529 32.203 39.8529 31.608C39.8529 31.0131 39.3699 30.5301 38.7749 30.5301H15.146C14.5511 30.5301 14.0681 31.0131 14.0681 31.608C14.0681 32.203 14.5511 32.686 15.146 32.686ZM15.146 36.9233H30.19C30.7849 36.9233 31.2679 36.4403 31.2679 35.8454C31.2679 35.2505 30.7849 34.7675 30.19 34.7675H15.146C14.5511 34.7675 14.0681 35.2505 14.0681 35.8454C14.0681 36.4403 14.5511 36.9233 15.146 36.9233ZM15.146 44.4037C14.5511 44.4037 14.0681 44.8867 14.0681 45.4816C14.0681 46.0766 14.5511 46.5596 15.146 46.5596H38.7749C39.3699 46.5596 39.8529 46.0766 39.8529 45.4816C39.8529 44.8867 39.3699 44.4037 38.7749 44.4037H15.146ZM30.19 48.6403H15.146C14.5511 48.6403 14.0681 49.1233 14.0681 49.7182C14.0681 50.3132 14.5511 50.7962 15.146 50.7962H30.19C30.7849 50.7962 31.2679 50.3132 31.2679 49.7182C31.2679 49.1233 30.7849 48.6403 30.19 48.6403ZM68.7265 67.3884C69.1022 67.8499 69.0332 68.5292 68.5709 68.9056C68.3708 69.0681 68.13 69.1471 67.8909 69.1471C67.5781 69.1471 67.2676 69.0114 67.0537 68.75L53.8113 52.4913C53.4625 52.0619 53.4939 51.4386 53.8849 51.0476L54.2153 50.7172L53.6534 50.1552C51.4086 50.7226 49.0695 50.0954 47.4151 48.4433L45.2371 46.2644V57.7498C45.2371 59.6542 43.6877 61.2037 41.7833 61.2037H3.453C1.5494 61.2037 0 59.6542 0 57.7498V9.71969C0 7.81529 1.5494 6.26586 3.453 6.26586H12.2618C12.3025 4.70493 13.5782 3.44606 15.1483 3.44606H17.7196C18.5177 1.49183 20.455 0.147095 22.6178 0.147095C24.7805 0.147095 26.7193 1.49183 27.5167 3.44606H30.088C31.6589 3.44606 32.9346 4.70493 32.976 6.26586H41.7841C43.6884 6.26586 45.2378 7.81529 45.2378 9.71969V20.7965L54.5802 30.1391C54.8325 29.0305 55.1537 27.6474 55.4343 26.4514C55.7977 24.9127 57.1409 23.8524 58.7148 23.8524C58.7355 23.8524 58.7562 23.8524 58.7761 23.8524C60.4865 23.8831 61.8895 25.0975 62.0382 26.6776C62.1095 27.4205 62.2322 28.3704 62.3694 29.4368C62.8233 32.9635 63.4343 37.7069 62.9375 40.6953L63.5884 41.3455L63.9188 41.015C64.3405 40.5934 65.0228 40.5934 65.4437 41.015L68.6843 44.2557C69.1052 44.6774 69.1052 45.3597 68.6843 45.7806C68.2627 46.2023 67.5804 46.2023 67.1595 45.7806L64.6809 43.302L64.3504 43.6324L56.503 51.48C56.503 51.48 56.4999 51.4816 56.4992 51.4823L56.0982 51.8833L68.7265 67.3868V67.3884ZM14.4108 8.34736C14.4108 8.75446 14.7419 9.08566 15.1483 9.08566H30.088C30.4959 9.08566 30.8271 8.75446 30.8271 8.34736V6.34099C30.8271 5.9339 30.4959 5.60269 30.088 5.60269H26.7278C26.221 5.60269 25.7833 5.25003 25.6744 4.75553C25.3631 3.33413 24.0775 2.30296 22.6178 2.30296C21.1581 2.30296 19.8739 3.33489 19.5619 4.75553C19.453 5.25003 19.0153 5.60193 18.5085 5.60193H15.1483C14.7419 5.60193 14.4108 5.93313 14.4108 6.34023V8.34659V8.34736ZM43.0805 44.1078L39.4918 40.5182C38.929 39.9555 38.6201 39.2065 38.6201 38.4084C38.6201 37.6103 38.929 36.8612 39.4918 36.2993C39.754 36.0371 40.0453 35.8232 40.355 35.6622C40.0698 35.1983 39.9173 34.6624 39.918 34.1028C39.918 33.3047 40.2285 32.5549 40.792 31.9929C41.0872 31.6977 41.4222 31.4624 41.7818 31.296C41.3126 30.1935 41.5686 28.8818 42.5323 27.9165C42.7002 27.7479 42.8865 27.6099 43.0812 27.4903V27.294L40.5888 24.8016C39.974 24.1867 39.6643 23.3894 39.7164 22.556C39.7647 21.797 40.1128 21.0579 40.6969 20.4745C41.2589 19.9118 42.0087 19.602 42.806 19.602C42.8995 19.602 42.9892 19.6204 43.0812 19.6289V9.71969C43.0812 9.00439 42.4993 8.42249 41.7841 8.42249H32.976C32.9354 9.98343 31.6589 11.2423 30.088 11.2423H15.1483C13.5782 11.2423 12.3025 9.98343 12.2618 8.42249H3.453C2.73771 8.42249 2.15659 9.00439 2.15659 9.71969V57.7506C2.15659 58.4667 2.73848 59.0478 3.453 59.0478H41.7833C42.4993 59.0478 43.0805 58.4659 43.0805 57.7506V44.1078ZM55.7394 49.1923L58.9011 46.0313L62.0628 42.8696L61.0048 41.8116C60.7395 41.5456 60.6307 41.1607 60.7196 40.795C61.3321 38.2642 60.6958 33.3208 60.2305 29.7121C60.0902 28.6188 59.9644 27.6436 59.8924 26.8808C59.8418 26.3456 59.266 26.0175 58.7386 26.0075H58.7148C58.1398 26.0075 57.6668 26.3817 57.5334 26.9444C56.973 29.3287 56.3566 32.0266 56.2661 32.4951C56.1902 32.8868 55.9042 33.2042 55.5232 33.3208C55.1414 33.4365 54.7274 33.3346 54.4453 33.0524L43.3917 21.9994C43.0812 21.6874 42.5323 21.6874 42.221 21.9994C42.0079 22.2118 41.8837 22.4579 41.8684 22.6917C41.8546 22.9064 41.9351 23.098 42.1137 23.2759L49.817 30.9801C50.2379 31.4018 50.2379 32.0841 49.817 32.505C49.3954 32.9267 48.7131 32.9259 48.2922 32.505L45.2263 29.4399C44.9036 29.1171 44.3784 29.1179 44.0556 29.4399C43.9406 29.5549 43.3925 30.1598 43.9491 30.7164L47.1874 33.954C47.6083 34.3757 47.6083 35.058 47.1874 35.4789C46.7658 35.9006 46.0834 35.9006 45.6625 35.4789L43.5918 33.4089C43.414 33.2303 43.2223 33.1559 43.0069 33.1636C42.773 33.1782 42.5277 33.3031 42.3161 33.5147C42.1597 33.6711 42.0739 33.8797 42.0739 34.1012C42.0739 34.3228 42.159 34.5306 42.3146 34.6854L46.111 38.4804C46.5319 38.9013 46.5319 39.5844 46.111 40.0053C45.6894 40.4255 45.0071 40.427 44.5869 40.0053L42.2946 37.7145C42.1283 37.5482 41.952 37.4677 41.7557 37.4677C41.5111 37.4677 41.242 37.5957 41.0174 37.8211C40.8618 37.9775 40.7759 38.1845 40.7759 38.4061C40.7759 38.6276 40.8618 38.8362 41.0174 38.991L44.9204 42.8949L44.922 42.8964L48.94 46.9153C50.159 48.1351 51.9407 48.5192 53.589 47.9196C53.7093 47.8759 53.8335 47.8545 53.9577 47.8545C54.2383 47.8545 54.5143 47.9641 54.7205 48.1703L55.7402 49.19L55.7394 49.1923ZM10.5507 31.3543L8.01918 33.8858L7.22493 33.0908C6.80327 32.6699 6.12095 32.6699 5.70006 33.0908C5.27916 33.5124 5.27916 34.1948 5.70006 34.6157L7.25713 36.1728C7.46796 36.3836 7.74395 36.4886 8.01995 36.4886C8.29594 36.4886 8.57193 36.3836 8.78276 36.1728L12.0771 32.8792C12.498 32.4583 12.498 31.7752 12.0771 31.3543C11.6554 30.9326 10.9731 30.9334 10.5522 31.3543H10.5507ZM10.5507 45.6787L8.01918 48.2102L7.22493 47.4159C6.80327 46.9943 6.12095 46.9943 5.70006 47.4159C5.27916 47.8376 5.27916 48.5199 5.70006 48.9408L7.25713 50.4979C7.46796 50.7088 7.74395 50.8138 8.01995 50.8138C8.29594 50.8138 8.57193 50.7088 8.78276 50.4979L12.0771 47.2036C12.498 46.7819 12.498 46.0996 12.0771 45.6787C11.6554 45.257 10.9731 45.257 10.5522 45.6787H10.5507Z" fill="#101840"/>
</svg>
